solid label plaque
facet normal 0.0 0.0 -1.0
  outer loop
    vertex -0.14999999999997715 24.0 0.0
    vertex 137.8499999999999 0.0 0.0
    vertex -0.14999999999998845 0.0 0.0
  endloop
endfacet
facet normal 0.0 0.0 -1.0
  outer loop
    vertex 137.8499999999999 0.0 0.0
    vertex -0.14999999999997715 24.0 0.0
    vertex 137.8499999999999 24.0 0.0
  endloop
endfacet
facet normal -0.0 -0.0 1.0
  outer loop
    vertex 137.8499999999999 0.0 1.5000000000000004
    vertex -0.14999999999997715 24.0 1.5000000000000004
    vertex -0.14999999999998845 0.0 1.5000000000000004
  endloop
endfacet
facet normal -0.0 -0.0 1.0
  outer loop
    vertex -0.14999999999997715 24.0 1.5000000000000004
    vertex 137.8499999999999 0.0 1.5000000000000004
    vertex 137.8499999999999 24.0 1.5000000000000004
  endloop
endfacet
facet normal -1.0 4.699944137579828e-16 0.0
  outer loop
    vertex -0.14999999999997715 24.0 1.5000000000000004
    vertex -0.14999999999998845 0.0 0.0
    vertex -0.14999999999998845 0.0 1.5000000000000004
  endloop
endfacet
facet normal -1.0 4.699944137579828e-16 0.0
  outer loop
    vertex -0.14999999999998845 0.0 0.0
    vertex -0.14999999999997715 24.0 1.5000000000000004
    vertex -0.14999999999997715 24.0 0.0
  endloop
endfacet
facet normal -0.0 1.0 -0.0
  outer loop
    vertex -0.14999999999997715 24.0 1.5000000000000004
    vertex 137.8499999999999 24.0 0.0
    vertex -0.14999999999997715 24.0 0.0
  endloop
endfacet
facet normal -0.0 1.0 -0.0
  outer loop
    vertex 137.8499999999999 24.0 0.0
    vertex -0.14999999999997715 24.0 1.5000000000000004
    vertex 137.8499999999999 24.0 1.5000000000000004
  endloop
endfacet
facet normal 1.0 -0.0 -0.0
  outer loop
    vertex 137.8499999999999 24.0 0.0
    vertex 137.8499999999999 0.0 1.5000000000000004
    vertex 137.8499999999999 0.0 0.0
  endloop
endfacet
facet normal 1.0 -0.0 -0.0
  outer loop
    vertex 137.8499999999999 0.0 1.5000000000000004
    vertex 137.8499999999999 24.0 0.0
    vertex 137.8499999999999 24.0 1.5000000000000004
  endloop
endfacet
facet normal 0.0 -1.0 0.0
  outer loop
    vertex 137.8499999999999 0.0 1.5000000000000004
    vertex -0.14999999999998845 0.0 0.0
    vertex 137.8499999999999 0.0 0.0
  endloop
endfacet
facet normal 0.0 -1.0 0.0
  outer loop
    vertex -0.14999999999998845 0.0 0.0
    vertex 137.8499999999999 0.0 1.5000000000000004
    vertex -0.14999999999998845 0.0 1.5000000000000004
  endloop
endfacet
facet normal -0.0 -0.0 1.0
  outer loop
    vertex -2.3000000000000136 -37.19639401263494 3.0
    vertex -0.30000000000001126 -35.19639401263494 3.0
    vertex -2.300000000000002 -8.896394012634937 3.0
  endloop
endfacet
facet normal -0.0 -0.0 1.0
  outer loop
    vertex -0.30000000000001126 -35.19639401263494 3.0
    vertex -2.3000000000000136 -37.19639401263494 3.0
    vertex 140.0 -37.19639401263494 3.0
  endloop
endfacet
facet normal -0.0 -0.0 1.0
  outer loop
    vertex -0.30000000000001126 -35.19639401263494 3.0
    vertex 140.0 -37.19639401263494 3.0
    vertex 138.0 -35.19639401263494 3.0
  endloop
endfacet
facet normal -0.0 -0.0 1.0
  outer loop
    vertex 138.0 -35.19639401263494 3.0
    vertex 140.0 -37.19639401263494 3.0
    vertex 139.99999999999997 -8.896394012634937 3.0
  endloop
endfacet
facet normal -0.0 -0.0 1.0
  outer loop
    vertex -2.300000000000002 -8.896394012634937 3.0
    vertex -0.3 -10.89639401263494 3.0
    vertex 139.99999999999997 -8.896394012634937 3.0
  endloop
endfacet
facet normal -0.0 -0.0 1.0
  outer loop
    vertex -0.3 -10.89639401263494 3.0
    vertex -2.300000000000002 -8.896394012634937 3.0
    vertex -0.30000000000001126 -35.19639401263494 3.0
  endloop
endfacet
facet normal -0.0 -0.0 1.0
  outer loop
    vertex 139.99999999999997 -8.896394012634937 3.0
    vertex -0.3 -10.89639401263494 3.0
    vertex 137.99999999999997 -10.89639401263494 3.0
  endloop
endfacet
facet normal -0.0 -0.0 1.0
  outer loop
    vertex 139.99999999999997 -8.896394012634937 3.0
    vertex 137.99999999999997 -10.89639401263494 3.0
    vertex 138.0 -35.19639401263494 3.0
  endloop
endfacet
facet normal -0.0 -0.0 1.0
  outer loop
    vertex -0.30000000000001126 -35.19639401263494 0.9999999999999996
    vertex 1.699999999999987 -33.19639401263493 0.9999999999999996
    vertex -0.3 -10.89639401263494 0.9999999999999996
  endloop
endfacet
facet normal -0.0 -0.0 1.0
  outer loop
    vertex 1.699999999999987 -33.19639401263493 0.9999999999999996
    vertex -0.30000000000001126 -35.19639401263494 0.9999999999999996
    vertex 138.0 -35.19639401263494 0.9999999999999996
  endloop
endfacet
facet normal -0.0 -0.0 1.0
  outer loop
    vertex 1.699999999999987 -33.19639401263493 0.9999999999999996
    vertex 138.0 -35.19639401263494 0.9999999999999996
    vertex 136.0 -33.19639401263493 0.9999999999999996
  endloop
endfacet
facet normal -0.0 -0.0 1.0
  outer loop
    vertex 136.0 -33.19639401263493 0.9999999999999996
    vertex 138.0 -35.19639401263494 0.9999999999999996
    vertex 137.99999999999997 -10.89639401263494 0.9999999999999996
  endloop
endfacet
facet normal -0.0 -0.0 1.0
  outer loop
    vertex -0.3 -10.89639401263494 0.9999999999999996
    vertex 1.6999999999999968 -12.896394012634937 0.9999999999999996
    vertex 137.99999999999997 -10.89639401263494 0.9999999999999996
  endloop
endfacet
facet normal -0.0 -0.0 1.0
  outer loop
    vertex 1.6999999999999968 -12.896394012634937 0.9999999999999996
    vertex -0.3 -10.89639401263494 0.9999999999999996
    vertex 1.699999999999987 -33.19639401263493 0.9999999999999996
  endloop
endfacet
facet normal -0.0 -0.0 1.0
  outer loop
    vertex 137.99999999999997 -10.89639401263494 0.9999999999999996
    vertex 1.6999999999999968 -12.896394012634937 0.9999999999999996
    vertex 135.99999999999997 -12.896394012634937 0.9999999999999996
  endloop
endfacet
facet normal -0.0 -0.0 1.0
  outer loop
    vertex 137.99999999999997 -10.89639401263494 0.9999999999999996
    vertex 135.99999999999997 -12.896394012634937 0.9999999999999996
    vertex 136.0 -33.19639401263493 0.9999999999999996
  endloop
endfacet
facet normal -0.0 1.0 -0.0
  outer loop
    vertex -0.30000000000001126 -35.19639401263494 3.0
    vertex 138.0 -35.19639401263494 0.9999999999999996
    vertex -0.30000000000001126 -35.19639401263494 0.9999999999999996
  endloop
endfacet
facet normal -0.0 1.0 -0.0
  outer loop
    vertex 138.0 -35.19639401263494 0.9999999999999996
    vertex -0.30000000000001126 -35.19639401263494 3.0
    vertex 138.0 -35.19639401263494 3.0
  endloop
endfacet
facet normal -1.0 -9.283840271762627e-16 2.30709551203146e-46
  outer loop
    vertex 137.99999999999997 -10.89639401263494 3.0
    vertex 138.0 -35.19639401263494 0.9999999999999996
    vertex 138.0 -35.19639401263494 3.0
  endloop
endfacet
facet normal -1.0 -9.283840271762627e-16 2.30709551203146e-46
  outer loop
    vertex 138.0 -35.19639401263494 0.9999999999999996
    vertex 137.99999999999997 -10.89639401263494 3.0
    vertex 137.99999999999997 -10.89639401263494 0.9999999999999996
  endloop
endfacet
facet normal 0.0 -1.0 0.0
  outer loop
    vertex 137.99999999999997 -10.89639401263494 3.0
    vertex -0.3 -10.89639401263494 0.9999999999999996
    vertex 137.99999999999997 -10.89639401263494 0.9999999999999996
  endloop
endfacet
facet normal 0.0 -1.0 0.0
  outer loop
    vertex -0.3 -10.89639401263494 0.9999999999999996
    vertex 137.99999999999997 -10.89639401263494 3.0
    vertex -0.3 -10.89639401263494 3.0
  endloop
endfacet
facet normal 1.0 -4.6419201358813135e-16 1.15354775601573e-46
  outer loop
    vertex -0.3 -10.89639401263494 0.9999999999999996
    vertex -0.30000000000001126 -35.19639401263494 3.0
    vertex -0.30000000000001126 -35.19639401263494 0.9999999999999996
  endloop
endfacet
facet normal 1.0 -4.6419201358813135e-16 1.15354775601573e-46
  outer loop
    vertex -0.30000000000001126 -35.19639401263494 3.0
    vertex -0.3 -10.89639401263494 0.9999999999999996
    vertex -0.3 -10.89639401263494 3.0
  endloop
endfacet
facet normal -0.0 1.0 -0.0
  outer loop
    vertex 1.699999999999987 -33.19639401263493 0.9999999999999996
    vertex 136.0 -33.19639401263493 0.0
    vertex 1.699999999999987 -33.19639401263493 0.0
  endloop
endfacet
facet normal -0.0 1.0 -0.0
  outer loop
    vertex 136.0 -33.19639401263493 0.0
    vertex 1.699999999999987 -33.19639401263493 0.9999999999999996
    vertex 136.0 -33.19639401263493 0.9999999999999996
  endloop
endfacet
facet normal -1.0 -1.1113168404129648e-15 0.0
  outer loop
    vertex 135.99999999999997 -12.896394012634937 0.9999999999999996
    vertex 136.0 -33.19639401263493 0.0
    vertex 136.0 -33.19639401263493 0.9999999999999996
  endloop
endfacet
facet normal -1.0 -1.1113168404129648e-15 0.0
  outer loop
    vertex 136.0 -33.19639401263493 0.0
    vertex 135.99999999999997 -12.896394012634937 0.9999999999999996
    vertex 135.99999999999997 -12.896394012634937 0.0
  endloop
endfacet
facet normal 0.0 -1.0 0.0
  outer loop
    vertex 135.99999999999997 -12.896394012634937 0.9999999999999996
    vertex 1.6999999999999968 -12.896394012634937 0.0
    vertex 135.99999999999997 -12.896394012634937 0.0
  endloop
endfacet
facet normal 0.0 -1.0 0.0
  outer loop
    vertex 1.6999999999999968 -12.896394012634937 0.0
    vertex 135.99999999999997 -12.896394012634937 0.9999999999999996
    vertex 1.6999999999999968 -12.896394012634937 0.9999999999999996
  endloop
endfacet
facet normal 1.0 -4.862011176806721e-16 -0.0
  outer loop
    vertex 1.6999999999999968 -12.896394012634937 0.0
    vertex 1.699999999999987 -33.19639401263493 0.9999999999999996
    vertex 1.699999999999987 -33.19639401263493 0.0
  endloop
endfacet
facet normal 1.0 -4.862011176806721e-16 -0.0
  outer loop
    vertex 1.699999999999987 -33.19639401263493 0.9999999999999996
    vertex 1.6999999999999968 -12.896394012634937 0.0
    vertex 1.6999999999999968 -12.896394012634937 0.9999999999999996
  endloop
endfacet
facet normal 0.0 0.0 -1.0
  outer loop
    vertex -0.8000000000000027 -10.39639401263494 0.0
    vertex 1.6999999999999968 -12.896394012634937 0.0
    vertex 1.699999999999987 -33.19639401263493 0.0
  endloop
endfacet
facet normal 0.0 0.0 -1.0
  outer loop
    vertex 1.6999999999999968 -12.896394012634937 0.0
    vertex -0.8000000000000027 -10.39639401263494 0.0
    vertex 138.49999999999997 -10.39639401263494 0.0
  endloop
endfacet
facet normal 0.0 0.0 -1.0
  outer loop
    vertex 1.6999999999999968 -12.896394012634937 0.0
    vertex 138.49999999999997 -10.39639401263494 0.0
    vertex 135.99999999999997 -12.896394012634937 0.0
  endloop
endfacet
facet normal 0.0 0.0 -1.0
  outer loop
    vertex 135.99999999999997 -12.896394012634937 0.0
    vertex 138.49999999999997 -10.39639401263494 0.0
    vertex 136.0 -33.19639401263493 0.0
  endloop
endfacet
facet normal 0.0 0.0 -1.0
  outer loop
    vertex -0.8000000000000128 -35.69639401263493 0.0
    vertex 1.699999999999987 -33.19639401263493 0.0
    vertex 138.5 -35.69639401263493 0.0
  endloop
endfacet
facet normal 0.0 0.0 -1.0
  outer loop
    vertex 1.699999999999987 -33.19639401263493 0.0
    vertex -0.8000000000000128 -35.69639401263493 0.0
    vertex -0.8000000000000027 -10.39639401263494 0.0
  endloop
endfacet
facet normal 0.0 0.0 -1.0
  outer loop
    vertex 138.5 -35.69639401263493 0.0
    vertex 1.699999999999987 -33.19639401263493 0.0
    vertex 136.0 -33.19639401263493 0.0
  endloop
endfacet
facet normal 0.0 0.0 -1.0
  outer loop
    vertex 138.5 -35.69639401263493 0.0
    vertex 136.0 -33.19639401263493 0.0
    vertex 138.49999999999997 -10.39639401263494 0.0
  endloop
endfacet
facet normal -0.0 1.0 -0.0
  outer loop
    vertex -2.300000000000002 -8.896394012634937 3.0
    vertex 139.99999999999997 -8.896394012634937 1.5
    vertex -2.300000000000002 -8.896394012634937 1.5
  endloop
endfacet
facet normal -0.0 1.0 -0.0
  outer loop
    vertex 139.99999999999997 -8.896394012634937 1.5
    vertex -2.300000000000002 -8.896394012634937 3.0
    vertex 139.99999999999997 -8.896394012634937 3.0
  endloop
endfacet
facet normal -0.7071067811865476 2.8118665093045685e-16 -0.7071067811865476
  outer loop
    vertex -2.300000000000002 -8.896394012634937 1.5
    vertex -0.8000000000000128 -35.69639401263493 0.0
    vertex -2.3000000000000136 -37.19639401263494 1.5
  endloop
endfacet
facet normal -0.7071067811865476 2.8118665093045685e-16 -0.7071067811865476
  outer loop
    vertex -0.8000000000000128 -35.69639401263493 0.0
    vertex -2.300000000000002 -8.896394012634937 1.5
    vertex -0.8000000000000027 -10.39639401263494 0.0
  endloop
endfacet
facet normal -1.0 3.985818349891021e-16 -1.7608926876282526e-46
  outer loop
    vertex -2.300000000000002 -8.896394012634937 3.0
    vertex -2.3000000000000136 -37.19639401263494 1.5
    vertex -2.3000000000000136 -37.19639401263494 3.0
  endloop
endfacet
facet normal -1.0 3.985818349891021e-16 -1.7608926876282526e-46
  outer loop
    vertex -2.3000000000000136 -37.19639401263494 1.5
    vertex -2.300000000000002 -8.896394012634937 3.0
    vertex -2.300000000000002 -8.896394012634937 1.5
  endloop
endfacet
facet normal 1.0 7.971636699782042e-16 -3.521785375256505e-46
  outer loop
    vertex 139.99999999999997 -8.896394012634937 1.5
    vertex 140.0 -37.19639401263494 3.0
    vertex 140.0 -37.19639401263494 1.5
  endloop
endfacet
facet normal 1.0 7.971636699782042e-16 -3.521785375256505e-46
  outer loop
    vertex 140.0 -37.19639401263494 3.0
    vertex 139.99999999999997 -8.896394012634937 1.5
    vertex 139.99999999999997 -8.896394012634937 3.0
  endloop
endfacet
facet normal 0.0 -1.0 0.0
  outer loop
    vertex 140.0 -37.19639401263494 3.0
    vertex -2.3000000000000136 -37.19639401263494 1.5
    vertex 140.0 -37.19639401263494 1.5
  endloop
endfacet
facet normal 0.0 -1.0 0.0
  outer loop
    vertex -2.3000000000000136 -37.19639401263494 1.5
    vertex 140.0 -37.19639401263494 3.0
    vertex -2.3000000000000136 -37.19639401263494 3.0
  endloop
endfacet
facet normal -3.970756547825654e-35 0.7071067811865475 -0.7071067811865476
  outer loop
    vertex 139.99999999999997 -8.896394012634937 1.5
    vertex -0.8000000000000027 -10.39639401263494 0.0
    vertex -2.300000000000002 -8.896394012634937 1.5
  endloop
endfacet
facet normal -3.970756547825654e-35 0.7071067811865475 -0.7071067811865476
  outer loop
    vertex -0.8000000000000027 -10.39639401263494 0.0
    vertex 139.99999999999997 -8.896394012634937 1.5
    vertex 138.49999999999997 -10.39639401263494 0.0
  endloop
endfacet
facet normal -3.1931408892305864e-19 -0.7071067811865469 -0.7071067811865482
  outer loop
    vertex -0.8000000000000128 -35.69639401263493 0.0
    vertex 140.0 -37.19639401263494 1.5
    vertex -2.3000000000000136 -37.19639401263494 1.5
  endloop
endfacet
facet normal -3.1931408892305864e-19 -0.7071067811865469 -0.7071067811865482
  outer loop
    vertex 140.0 -37.19639401263494 1.5
    vertex -0.8000000000000128 -35.69639401263493 0.0
    vertex 138.5 -35.69639401263493 0.0
  endloop
endfacet
facet normal 0.7071067811865482 5.942264771616301e-16 -0.7071067811865469
  outer loop
    vertex 138.5 -35.69639401263493 0.0
    vertex 139.99999999999997 -8.896394012634937 1.5
    vertex 140.0 -37.19639401263494 1.5
  endloop
endfacet
facet normal 0.7071067811865482 5.942264771616301e-16 -0.7071067811865469
  outer loop
    vertex 139.99999999999997 -8.896394012634937 1.5
    vertex 138.5 -35.69639401263493 0.0
    vertex 138.49999999999997 -10.39639401263494 0.0
  endloop
endfacet
endsolid label plaque
