solid label plaque template
facet normal -1.0 -7.752485175389404e-16 0.0
  outer loop
    vertex 140.39999999999998 9.49180320346031 3.0
    vertex 140.39999999999998 -19.608196796539705 1.4099832412739487e-15
    vertex 140.39999999999998 -19.608196796539705 3.0
  endloop
endfacet
facet normal -1.0 -7.752485175389404e-16 0.0
  outer loop
    vertex 140.39999999999998 -19.608196796539705 1.4099832412739487e-15
    vertex 140.39999999999998 9.49180320346031 3.0
    vertex 140.39999999999998 9.49180320346031 1.4099832412739487e-15
  endloop
endfacet
facet normal -0.0 1.0 -0.0
  outer loop
    vertex -2.7000000000000135 -19.608196796539705 3.0
    vertex 140.39999999999998 -19.608196796539705 1.4099832412739487e-15
    vertex -2.7000000000000135 -19.608196796539705 1.4099832412739487e-15
  endloop
endfacet
facet normal -0.0 1.0 -0.0
  outer loop
    vertex 140.39999999999998 -19.608196796539705 1.4099832412739487e-15
    vertex -2.7000000000000135 -19.608196796539705 3.0
    vertex 140.39999999999998 -19.608196796539705 3.0
  endloop
endfacet
facet normal 1.0 -3.8762425876947017e-16 -0.0
  outer loop
    vertex -2.700000000000002 9.49180320346031 1.4099832412739487e-15
    vertex -2.7000000000000135 -19.608196796539705 3.0
    vertex -2.7000000000000135 -19.608196796539705 1.4099832412739487e-15
  endloop
endfacet
facet normal 1.0 -3.8762425876947017e-16 -0.0
  outer loop
    vertex -2.7000000000000135 -19.608196796539705 3.0
    vertex -2.700000000000002 9.49180320346031 1.4099832412739487e-15
    vertex -2.700000000000002 9.49180320346031 3.0
  endloop
endfacet
facet normal 0.0 -1.0 0.0
  outer loop
    vertex 140.39999999999998 9.49180320346031 3.0
    vertex -2.700000000000002 9.49180320346031 1.4099832412739487e-15
    vertex 140.39999999999998 9.49180320346031 1.4099832412739487e-15
  endloop
endfacet
facet normal 0.0 -1.0 0.0
  outer loop
    vertex -2.700000000000002 9.49180320346031 1.4099832412739487e-15
    vertex 140.39999999999998 9.49180320346031 3.0
    vertex -2.700000000000002 9.49180320346031 3.0
  endloop
endfacet
facet normal -0.0 1.0 -0.0
  outer loop
    vertex 134.39999999999998 17.74180320346032 3.0
    vertex 142.39999999999998 17.74180320346032 -5.999999999999999
    vertex 134.39999999999998 17.74180320346032 -5.999999999999999
  endloop
endfacet
facet normal -0.0 1.0 -0.0
  outer loop
    vertex 142.39999999999998 17.74180320346032 -5.999999999999999
    vertex 134.39999999999998 17.74180320346032 3.0
    vertex 142.39999999999998 17.74180320346032 3.0
  endloop
endfacet
facet normal 2.826306007106142e-17 -1.0904259119301234e-16 1.0
  outer loop
    vertex -4.700000000000046 -21.60819679653967 2.999999999999993
    vertex -13.050000000000004 -13.6081967965397 2.9999999999999987
    vertex -13.05000000000001 -21.608196796539698 2.9999999999999987
  endloop
endfacet
facet normal 2.826306007106142e-17 -1.0904259119301234e-16 1.0
  outer loop
    vertex -13.050000000000004 -13.6081967965397 2.9999999999999987
    vertex -4.700000000000046 -21.60819679653967 2.999999999999993
    vertex -4.700000000000008 -13.6081967965397 2.9999999999999987
  endloop
endfacet
facet normal 2.826306007106142e-17 -1.0904259119301234e-16 1.0
  outer loop
    vertex -4.700000000000008 -13.6081967965397 2.9999999999999987
    vertex -4.700000000000046 -21.60819679653967 2.999999999999993
    vertex -2.7000000000000135 -19.608196796539705 3.0
  endloop
endfacet
facet normal 2.826306007106142e-17 -1.0904259119301234e-16 1.0
  outer loop
    vertex -2.7000000000000135 -19.608196796539705 3.0
    vertex -4.700000000000046 -21.60819679653967 2.999999999999993
    vertex 142.39999999999998 -21.608196796539698 3.0
  endloop
endfacet
facet normal 2.826306007106142e-17 -1.0904259119301234e-16 1.0
  outer loop
    vertex -4.700000000000008 -13.6081967965397 2.9999999999999987
    vertex -2.7000000000000135 -19.608196796539705 3.0
    vertex -4.700000000000005 3.491803203460314 3.0
  endloop
endfacet
facet normal 2.826306007106142e-17 -1.0904259119301234e-16 1.0
  outer loop
    vertex -4.700000000000005 3.491803203460314 3.0
    vertex -2.7000000000000135 -19.608196796539705 3.0
    vertex -4.700000000000001 11.491803203460314 3.0
  endloop
endfacet
facet normal 2.826306007106142e-17 -1.0904259119301234e-16 1.0
  outer loop
    vertex -4.700000000000001 11.491803203460314 3.0
    vertex -2.7000000000000135 -19.608196796539705 3.0
    vertex -4.700000000000001 17.741803203460314 3.000000000000003
  endloop
endfacet
facet normal 2.826306007106142e-17 -1.0904259119301234e-16 1.0
  outer loop
    vertex -2.7000000000000135 -19.608196796539705 3.0
    vertex 142.39999999999998 -21.608196796539698 3.0
    vertex 140.39999999999998 -19.608196796539705 3.0
  endloop
endfacet
facet normal 2.826306007106142e-17 -1.0904259119301234e-16 1.0
  outer loop
    vertex 140.39999999999998 -19.608196796539705 3.0
    vertex 142.39999999999998 -21.608196796539698 3.0
    vertex 142.39999999999984 -13.608196796539685 2.999999999999993
  endloop
endfacet
facet normal 2.826306007106142e-17 -1.0904259119301234e-16 1.0
  outer loop
    vertex 142.39999999999984 -13.608196796539685 2.999999999999993
    vertex 142.39999999999998 -21.608196796539698 3.0
    vertex 150.74999999999983 -13.608196796539685 2.999999999999993
  endloop
endfacet
facet normal 2.826306007106142e-17 -1.0904259119301234e-16 1.0
  outer loop
    vertex 150.74999999999983 -13.608196796539685 2.999999999999993
    vertex 142.39999999999998 -21.608196796539698 3.0
    vertex 150.74999999999983 -21.60819679653967 2.999999999999993
  endloop
endfacet
facet normal 2.826306007106142e-17 -1.0904259119301234e-16 1.0
  outer loop
    vertex 150.74999999999983 3.491803203460351 2.999999999999993
    vertex 142.39999999999984 11.491803203460336 2.999999999999993
    vertex 142.39999999999984 3.491803203460351 2.999999999999993
  endloop
endfacet
facet normal 2.826306007106142e-17 -1.0904259119301234e-16 1.0
  outer loop
    vertex 142.39999999999984 11.491803203460336 2.999999999999993
    vertex 150.74999999999983 3.491803203460351 2.999999999999993
    vertex 150.74999999999983 11.491803203460336 2.999999999999993
  endloop
endfacet
facet normal 2.826306007106142e-17 -1.0904259119301234e-16 1.0
  outer loop
    vertex 140.39999999999998 9.49180320346031 3.0
    vertex 3.2999999999999843 11.491803203460291 3.000000000000003
    vertex -2.700000000000002 9.49180320346031 3.0
  endloop
endfacet
facet normal 2.826306007106142e-17 -1.0904259119301234e-16 1.0
  outer loop
    vertex 3.2999999999999843 11.491803203460291 3.000000000000003
    vertex 140.39999999999998 9.49180320346031 3.0
    vertex 134.39999999999998 11.491803203460314 3.0
  endloop
endfacet
facet normal 2.826306007106142e-17 -1.0904259119301234e-16 1.0
  outer loop
    vertex 134.39999999999998 11.491803203460314 3.0
    vertex 140.39999999999998 9.49180320346031 3.0
    vertex 134.39999999999998 17.74180320346032 3.0
  endloop
endfacet
facet normal 2.826306007106142e-17 -1.0904259119301234e-16 1.0
  outer loop
    vertex 134.39999999999998 17.74180320346032 3.0
    vertex 140.39999999999998 9.49180320346031 3.0
    vertex 142.39999999999998 17.74180320346032 3.0
  endloop
endfacet
facet normal 2.826306007106142e-17 -1.0904259119301234e-16 1.0
  outer loop
    vertex 142.39999999999998 17.74180320346032 3.0
    vertex 140.39999999999998 9.49180320346031 3.0
    vertex 140.39999999999998 -19.608196796539705 3.0
  endloop
endfacet
facet normal 2.826306007106142e-17 -1.0904259119301234e-16 1.0
  outer loop
    vertex 142.39999999999998 17.74180320346032 3.0
    vertex 140.39999999999998 -19.608196796539705 3.0
    vertex 142.39999999999984 11.491803203460336 2.999999999999993
  endloop
endfacet
facet normal 2.826306007106142e-17 -1.0904259119301234e-16 1.0
  outer loop
    vertex 142.39999999999984 11.491803203460336 2.999999999999993
    vertex 140.39999999999998 -19.608196796539705 3.0
    vertex 142.39999999999984 -13.608196796539685 2.999999999999993
  endloop
endfacet
facet normal 2.826306007106142e-17 -1.0904259119301234e-16 1.0
  outer loop
    vertex 142.39999999999984 11.491803203460336 2.999999999999993
    vertex 142.39999999999984 -13.608196796539685 2.999999999999993
    vertex 142.39999999999984 3.491803203460351 2.999999999999993
  endloop
endfacet
facet normal 2.826306007106142e-17 -1.0904259119301234e-16 1.0
  outer loop
    vertex -4.700000000000001 17.741803203460314 3.000000000000003
    vertex -2.700000000000002 9.49180320346031 3.0
    vertex 3.2999999999999843 17.741803203460314 3.000000000000003
  endloop
endfacet
facet normal 2.826306007106142e-17 -1.0904259119301234e-16 1.0
  outer loop
    vertex -2.700000000000002 9.49180320346031 3.0
    vertex -4.700000000000001 17.741803203460314 3.000000000000003
    vertex -2.7000000000000135 -19.608196796539705 3.0
  endloop
endfacet
facet normal 2.826306007106142e-17 -1.0904259119301234e-16 1.0
  outer loop
    vertex 3.2999999999999843 17.741803203460314 3.000000000000003
    vertex -2.700000000000002 9.49180320346031 3.0
    vertex 3.2999999999999843 11.491803203460291 3.000000000000003
  endloop
endfacet
facet normal 2.826306007106142e-17 -1.0904259119301234e-16 1.0
  outer loop
    vertex -4.700000000000005 3.491803203460314 3.0
    vertex -13.049999999999999 11.491803203460314 3.0
    vertex -13.05 3.491803203460315 3.0
  endloop
endfacet
facet normal 2.826306007106142e-17 -1.0904259119301234e-16 1.0
  outer loop
    vertex -13.049999999999999 11.491803203460314 3.0
    vertex -4.700000000000005 3.491803203460314 3.0
    vertex -4.700000000000001 11.491803203460314 3.0
  endloop
endfacet
facet normal -1.0 0.0 0.0
  outer loop
    vertex 134.39999999999998 17.74180320346032 3.0
    vertex 134.39999999999998 11.491803203460314 1.4099832412739487e-15
    vertex 134.39999999999998 11.491803203460314 3.0
  endloop
endfacet
facet normal -1.0 0.0 0.0
  outer loop
    vertex 134.39999999999998 11.491803203460314 1.4099832412739487e-15
    vertex 134.39999999999998 17.74180320346032 3.0
    vertex 134.39999999999998 15.741803203460314 1.4099832412739487e-15
  endloop
endfacet
facet normal -1.0 0.0 0.0
  outer loop
    vertex 134.39999999999998 15.741803203460314 1.4099832412739487e-15
    vertex 134.39999999999998 17.74180320346032 3.0
    vertex 134.39999999999998 15.741803203460314 -5.999999999999999
  endloop
endfacet
facet normal -1.0 0.0 0.0
  outer loop
    vertex 134.39999999999998 15.741803203460314 -5.999999999999999
    vertex 134.39999999999998 17.74180320346032 3.0
    vertex 134.39999999999998 17.74180320346032 -5.999999999999999
  endloop
endfacet
facet normal 1.0 -2.2153236984605805e-14 1.9253475704691964e-15
  outer loop
    vertex 142.39999999999998 17.74180320346032 -5.999999999999999
    vertex 142.39999999999998 15.741803203460314 1.4099832412739487e-15
    vertex 142.39999999999998 15.741803203460314 -5.999999999999999
  endloop
endfacet
facet normal 1.0 -2.2153236984605805e-14 1.9253475704691964e-15
  outer loop
    vertex 142.39999999999998 15.741803203460314 1.4099832412739487e-15
    vertex 142.39999999999984 11.491803203460336 2.999999999999993
    vertex 142.39999999999984 11.491803203460336 -1.4099832412739487e-15
  endloop
endfacet
facet normal 1.0 -2.2153236984605805e-14 1.9253475704691964e-15
  outer loop
    vertex 142.39999999999984 11.491803203460336 2.999999999999993
    vertex 142.39999999999998 15.741803203460314 1.4099832412739487e-15
    vertex 142.39999999999998 17.74180320346032 3.0
  endloop
endfacet
facet normal 1.0 -2.2153236984605805e-14 1.9253475704691964e-15
  outer loop
    vertex 142.39999999999998 17.74180320346032 3.0
    vertex 142.39999999999998 15.741803203460314 1.4099832412739487e-15
    vertex 142.39999999999998 17.74180320346032 -5.999999999999999
  endloop
endfacet
facet normal 0.0 0.0 -1.0
  outer loop
    vertex 142.39999999999998 17.74180320346032 -5.999999999999999
    vertex 134.39999999999998 15.741803203460314 -5.999999999999999
    vertex 134.39999999999998 17.74180320346032 -5.999999999999999
  endloop
endfacet
facet normal 0.0 0.0 -1.0
  outer loop
    vertex 134.39999999999998 15.741803203460314 -5.999999999999999
    vertex 142.39999999999998 17.74180320346032 -5.999999999999999
    vertex 142.39999999999998 15.741803203460314 -5.999999999999999
  endloop
endfacet
facet normal 0.0 -1.0 0.0
  outer loop
    vertex 142.39999999999998 15.741803203460314 1.4099832412739487e-15
    vertex 134.39999999999998 15.741803203460314 -5.999999999999999
    vertex 142.39999999999998 15.741803203460314 -5.999999999999999
  endloop
endfacet
facet normal 0.0 -1.0 0.0
  outer loop
    vertex 134.39999999999998 15.741803203460314 -5.999999999999999
    vertex 142.39999999999998 15.741803203460314 1.4099832412739487e-15
    vertex 134.39999999999998 15.741803203460314 1.4099832412739487e-15
  endloop
endfacet
facet normal 0.0 0.0 -1.0
  outer loop
    vertex 3.2999999999999843 17.741803203460314 -6.000000000000003
    vertex -4.700000000000001 15.741803203460316 -6.000000000000003
    vertex -4.700000000000001 17.741803203460314 -6.000000000000003
  endloop
endfacet
facet normal 0.0 0.0 -1.0
  outer loop
    vertex -4.700000000000001 15.741803203460316 -6.000000000000003
    vertex 3.2999999999999843 17.741803203460314 -6.000000000000003
    vertex 3.2999999999999843 15.741803203460316 -6.000000000000003
  endloop
endfacet
facet normal -0.0 1.0 -0.0
  outer loop
    vertex -4.700000000000001 17.741803203460314 3.000000000000003
    vertex 3.2999999999999843 17.741803203460314 -6.000000000000003
    vertex -4.700000000000001 17.741803203460314 -6.000000000000003
  endloop
endfacet
facet normal -0.0 1.0 -0.0
  outer loop
    vertex 3.2999999999999843 17.741803203460314 -6.000000000000003
    vertex -4.700000000000001 17.741803203460314 3.000000000000003
    vertex 3.2999999999999843 17.741803203460314 3.000000000000003
  endloop
endfacet
facet normal 1.0 -0.0 -0.0
  outer loop
    vertex 3.2999999999999843 17.741803203460314 -6.000000000000003
    vertex 3.2999999999999843 15.741803203460316 -1.4099832412739487e-15
    vertex 3.2999999999999843 15.741803203460316 -6.000000000000003
  endloop
endfacet
facet normal 1.0 -0.0 -0.0
  outer loop
    vertex 3.2999999999999843 15.741803203460316 -1.4099832412739487e-15
    vertex 3.2999999999999843 11.491803203460291 3.000000000000003
    vertex 3.2999999999999843 11.491803203460291 -1.4099832412739487e-15
  endloop
endfacet
facet normal 1.0 -0.0 -0.0
  outer loop
    vertex 3.2999999999999843 11.491803203460291 3.000000000000003
    vertex 3.2999999999999843 15.741803203460316 -1.4099832412739487e-15
    vertex 3.2999999999999843 17.741803203460314 3.000000000000003
  endloop
endfacet
facet normal 1.0 -0.0 -0.0
  outer loop
    vertex 3.2999999999999843 17.741803203460314 3.000000000000003
    vertex 3.2999999999999843 15.741803203460316 -1.4099832412739487e-15
    vertex 3.2999999999999843 17.741803203460314 -6.000000000000003
  endloop
endfacet
facet normal -1.0 0.0 0.0
  outer loop
    vertex -4.700000000000001 17.741803203460314 3.000000000000003
    vertex -4.700000000000001 11.491803203460314 1.4099832412739487e-15
    vertex -4.700000000000001 11.491803203460314 3.0
  endloop
endfacet
facet normal -1.0 0.0 0.0
  outer loop
    vertex -4.700000000000001 11.491803203460314 1.4099832412739487e-15
    vertex -4.700000000000001 17.741803203460314 3.000000000000003
    vertex -4.700000000000001 15.741803203460316 -1.4099832412739487e-15
  endloop
endfacet
facet normal -1.0 0.0 0.0
  outer loop
    vertex -4.700000000000001 15.741803203460316 -1.4099832412739487e-15
    vertex -4.700000000000001 17.741803203460314 3.000000000000003
    vertex -4.700000000000001 15.741803203460316 -6.000000000000003
  endloop
endfacet
facet normal -1.0 0.0 0.0
  outer loop
    vertex -4.700000000000001 15.741803203460316 -6.000000000000003
    vertex -4.700000000000001 17.741803203460314 3.000000000000003
    vertex -4.700000000000001 17.741803203460314 -6.000000000000003
  endloop
endfacet
facet normal -1.7208033455669855e-16 1.0 -0.0
  outer loop
    vertex 3.2999999999999843 11.491803203460291 3.000000000000003
    vertex 134.39999999999998 11.491803203460314 1.4099832412739487e-15
    vertex 3.2999999999999843 11.491803203460291 -1.4099832412739487e-15
  endloop
endfacet
facet normal -1.7208033455669855e-16 1.0 -0.0
  outer loop
    vertex 134.39999999999998 11.491803203460314 1.4099832412739487e-15
    vertex 3.2999999999999843 11.491803203460291 3.000000000000003
    vertex 134.39999999999998 11.491803203460314 3.0
  endloop
endfacet
facet normal 0.0 -1.0 0.0
  outer loop
    vertex 3.2999999999999843 15.741803203460316 -1.4099832412739487e-15
    vertex -4.700000000000001 15.741803203460316 -6.000000000000003
    vertex 3.2999999999999843 15.741803203460316 -6.000000000000003
  endloop
endfacet
facet normal 0.0 -1.0 0.0
  outer loop
    vertex -4.700000000000001 15.741803203460316 -6.000000000000003
    vertex 3.2999999999999843 15.741803203460316 -1.4099832412739487e-15
    vertex -4.700000000000001 15.741803203460316 -1.4099832412739487e-15
  endloop
endfacet
facet normal -1.0 3.965577866082982e-16 -1.1749860343949578e-16
  outer loop
    vertex -13.049999999999999 11.491803203460314 3.0
    vertex -13.05 3.491803203460315 -6.000000000000001
    vertex -13.05 3.491803203460315 3.0
  endloop
endfacet
facet normal -1.0 3.965577866082982e-16 -1.1749860343949578e-16
  outer loop
    vertex -13.05 3.491803203460315 -6.000000000000001
    vertex -13.049999999999999 11.491803203460314 3.0
    vertex -13.049999999999999 11.491803203460314 -6.000000000000001
  endloop
endfacet
facet normal -7.333450077960475e-17 -1.0 2.107199738898434e-17
  outer loop
    vertex -11.05 3.491803203460314 8.503961423933505e-16
    vertex -13.05 3.491803203460315 -6.000000000000001
    vertex -11.050000000000002 3.491803203460314 -6.000000000000001
  endloop
endfacet
facet normal -7.333450077960475e-17 -1.0 2.107199738898434e-17
  outer loop
    vertex -13.05 3.491803203460315 -6.000000000000001
    vertex -11.05 3.491803203460314 8.503961423933505e-16
    vertex -13.05 3.491803203460315 3.0
  endloop
endfacet
facet normal -7.333450077960475e-17 -1.0 2.107199738898434e-17
  outer loop
    vertex -13.05 3.491803203460315 3.0
    vertex -11.05 3.491803203460314 8.503961423933505e-16
    vertex -4.700000000000004 3.491803203460314 1.4099832412739487e-15
  endloop
endfacet
facet normal -7.333450077960475e-17 -1.0 2.107199738898434e-17
  outer loop
    vertex -13.05 3.491803203460315 3.0
    vertex -4.700000000000004 3.491803203460314 1.4099832412739487e-15
    vertex -4.700000000000005 3.491803203460314 3.0
  endloop
endfacet
facet normal 2.0503028604883167e-16 1.0 6.869139306330314e-17
  outer loop
    vertex -13.049999999999999 11.491803203460314 3.0
    vertex -11.050000000000002 11.491803203460316 -6.000000000000001
    vertex -13.049999999999999 11.491803203460314 -6.000000000000001
  endloop
endfacet
facet normal 2.0503028604883167e-16 1.0 6.869139306330314e-17
  outer loop
    vertex -11.050000000000002 11.491803203460316 -6.000000000000001
    vertex -13.049999999999999 11.491803203460314 3.0
    vertex -11.05 11.491803203460316 1.0369251753535497e-15
  endloop
endfacet
facet normal 2.0503028604883167e-16 1.0 6.869139306330314e-17
  outer loop
    vertex -11.05 11.491803203460316 1.0369251753535497e-15
    vertex -13.049999999999999 11.491803203460314 3.0
    vertex -4.700000000000001 11.491803203460314 1.4099832412739487e-15
  endloop
endfacet
facet normal 2.0503028604883167e-16 1.0 6.869139306330314e-17
  outer loop
    vertex -4.700000000000001 11.491803203460314 1.4099832412739487e-15
    vertex -13.049999999999999 11.491803203460314 3.0
    vertex -4.700000000000001 11.491803203460314 3.0
  endloop
endfacet
facet normal 2.5739537815964534e-16 1.1658064560012402e-17 -1.0
  outer loop
    vertex -13.049999999999999 11.491803203460314 -6.000000000000001
    vertex -11.050000000000002 3.491803203460314 -6.000000000000001
    vertex -13.05 3.491803203460315 -6.000000000000001
  endloop
endfacet
facet normal 2.5739537815964534e-16 1.1658064560012402e-17 -1.0
  outer loop
    vertex -11.050000000000002 3.491803203460314 -6.000000000000001
    vertex -13.049999999999999 11.491803203460314 -6.000000000000001
    vertex -11.050000000000002 11.491803203460316 -6.000000000000001
  endloop
endfacet
facet normal 1.0 -6.001463872067926e-33 2.5739537815964534e-16
  outer loop
    vertex -11.050000000000002 11.491803203460316 -6.000000000000001
    vertex -11.05 3.491803203460314 8.503961423933505e-16
    vertex -11.050000000000002 3.491803203460314 -6.000000000000001
  endloop
endfacet
facet normal 1.0 -6.001463872067926e-33 2.5739537815964534e-16
  outer loop
    vertex -11.05 3.491803203460314 8.503961423933505e-16
    vertex -11.050000000000002 11.491803203460316 -6.000000000000001
    vertex -11.05 11.491803203460316 1.0369251753535497e-15
  endloop
endfacet
facet normal 0.0 0.0 -1.0
  outer loop
    vertex -13.050000000000004 -13.6081967965397 -6.000000000000002
    vertex -11.050000000000008 -21.608196796539698 -6.000000000000002
    vertex -13.05000000000001 -21.608196796539698 -6.000000000000002
  endloop
endfacet
facet normal 0.0 0.0 -1.0
  outer loop
    vertex -11.050000000000008 -21.608196796539698 -6.000000000000002
    vertex -13.050000000000004 -13.6081967965397 -6.000000000000002
    vertex -11.050000000000008 -13.608196796539689 -6.000000000000002
  endloop
endfacet
facet normal -1.7253363931292365e-16 -1.0 -6.276954797201682e-32
  outer loop
    vertex 142.39999999999998 -21.608196796539698 1.4099832412739487e-15
    vertex -4.700000000000046 -21.60819679653967 2.999999999999993
    vertex -4.700000000000046 -21.60819679653967 -1.4099832412739487e-15
  endloop
endfacet
facet normal -1.7253363931292365e-16 -1.0 -6.276954797201682e-32
  outer loop
    vertex -4.700000000000046 -21.60819679653967 2.999999999999993
    vertex 142.39999999999998 -21.608196796539698 1.4099832412739487e-15
    vertex 142.39999999999998 -21.608196796539698 3.0
  endloop
endfacet
facet normal -1.0 7.049916206369747e-16 0.0
  outer loop
    vertex -13.050000000000004 -13.6081967965397 2.9999999999999987
    vertex -13.05000000000001 -21.608196796539698 -6.000000000000002
    vertex -13.05000000000001 -21.608196796539698 2.9999999999999987
  endloop
endfacet
facet normal -1.0 7.049916206369747e-16 0.0
  outer loop
    vertex -13.05000000000001 -21.608196796539698 -6.000000000000002
    vertex -13.050000000000004 -13.6081967965397 2.9999999999999987
    vertex -13.050000000000004 -13.6081967965397 -6.000000000000002
  endloop
endfacet
facet normal 2.334451379584893e-16 1.0 4.4334155136508745e-16
  outer loop
    vertex -13.050000000000004 -13.6081967965397 2.9999999999999987
    vertex -11.050000000000008 -13.608196796539689 -6.000000000000002
    vertex -13.050000000000004 -13.6081967965397 -6.000000000000002
  endloop
endfacet
facet normal 2.334451379584893e-16 1.0 4.4334155136508745e-16
  outer loop
    vertex -11.050000000000008 -13.608196796539689 -6.000000000000002
    vertex -13.050000000000004 -13.6081967965397 2.9999999999999987
    vertex -11.050000000000008 -13.608196796539689 -1.4099832412739487e-15
  endloop
endfacet
facet normal 2.334451379584893e-16 1.0 4.4334155136508745e-16
  outer loop
    vertex -11.050000000000008 -13.608196796539689 -1.4099832412739487e-15
    vertex -13.050000000000004 -13.6081967965397 2.9999999999999987
    vertex -4.700000000000008 -13.6081967965397 1.4099832412739487e-15
  endloop
endfacet
facet normal 2.334451379584893e-16 1.0 4.4334155136508745e-16
  outer loop
    vertex -4.700000000000008 -13.6081967965397 1.4099832412739487e-15
    vertex -13.050000000000004 -13.6081967965397 2.9999999999999987
    vertex -4.700000000000008 -13.6081967965397 2.9999999999999987
  endloop
endfacet
facet normal -1.0 2.267516908481495e-16 -1.1749860343949583e-16
  outer loop
    vertex -4.700000000000005 3.491803203460314 3.0
    vertex -4.700000000000008 -13.6081967965397 1.4099832412739487e-15
    vertex -4.700000000000008 -13.6081967965397 2.9999999999999987
  endloop
endfacet
facet normal -1.0 2.267516908481495e-16 -1.1749860343949583e-16
  outer loop
    vertex -4.700000000000008 -13.6081967965397 1.4099832412739487e-15
    vertex -4.700000000000005 3.491803203460314 3.0
    vertex -4.700000000000004 3.491803203460314 1.4099832412739487e-15
  endloop
endfacet
facet normal 1.0 -0.0 -0.0
  outer loop
    vertex -11.050000000000008 -13.608196796539689 -6.000000000000002
    vertex -11.050000000000008 -21.608196796539698 -1.4099832412739487e-15
    vertex -11.050000000000008 -21.608196796539698 -6.000000000000002
  endloop
endfacet
facet normal 1.0 -0.0 -0.0
  outer loop
    vertex -11.050000000000008 -21.608196796539698 -1.4099832412739487e-15
    vertex -11.050000000000008 -13.608196796539689 -6.000000000000002
    vertex -11.050000000000008 -13.608196796539689 -1.4099832412739487e-15
  endloop
endfacet
facet normal -1.0 0.0 0.0
  outer loop
    vertex 148.74999999999983 -13.60819679653964 -1.4099832412739487e-15
    vertex 148.74999999999983 -21.60819679653967 -6.000000000000002
    vertex 148.74999999999983 -21.60819679653967 -1.4099832412739487e-15
  endloop
endfacet
facet normal -1.0 0.0 0.0
  outer loop
    vertex 148.74999999999983 -21.60819679653967 -6.000000000000002
    vertex 148.74999999999983 -13.60819679653964 -1.4099832412739487e-15
    vertex 148.74999999999983 -13.60819679653964 -6.000000000000002
  endloop
endfacet
facet normal 0.0 0.0 -1.0
  outer loop
    vertex 150.74999999999983 -13.608196796539685 -6.000000000000002
    vertex 148.74999999999983 -21.60819679653967 -6.000000000000002
    vertex 148.74999999999983 -13.60819679653964 -6.000000000000002
  endloop
endfacet
facet normal 0.0 0.0 -1.0
  outer loop
    vertex 148.74999999999983 -21.60819679653967 -6.000000000000002
    vertex 150.74999999999983 -13.608196796539685 -6.000000000000002
    vertex 150.74999999999983 -21.60819679653967 -6.000000000000002
  endloop
endfacet
facet normal 0.0 0.0 -1.0
  outer loop
    vertex 150.74999999999983 11.491803203460336 -6.000000000000002
    vertex 148.74999999999983 3.491803203460351 -6.000000000000002
    vertex 148.74999999999983 11.491803203460336 -6.000000000000002
  endloop
endfacet
facet normal 0.0 0.0 -1.0
  outer loop
    vertex 148.74999999999983 3.491803203460351 -6.000000000000002
    vertex 150.74999999999983 11.491803203460336 -6.000000000000002
    vertex 150.74999999999983 3.491803203460351 -6.000000000000002
  endloop
endfacet
facet normal 0.0 -1.0 0.0
  outer loop
    vertex 150.74999999999983 3.491803203460351 2.999999999999993
    vertex 148.74999999999983 3.491803203460351 -6.000000000000002
    vertex 150.74999999999983 3.491803203460351 -6.000000000000002
  endloop
endfacet
facet normal 0.0 -1.0 0.0
  outer loop
    vertex 148.74999999999983 3.491803203460351 -6.000000000000002
    vertex 150.74999999999983 3.491803203460351 2.999999999999993
    vertex 148.74999999999983 3.491803203460351 -1.4099832412739487e-15
  endloop
endfacet
facet normal 0.0 -1.0 0.0
  outer loop
    vertex 148.74999999999983 3.491803203460351 -1.4099832412739487e-15
    vertex 150.74999999999983 3.491803203460351 2.999999999999993
    vertex 142.39999999999984 3.491803203460351 -1.4099832412739487e-15
  endloop
endfacet
facet normal 0.0 -1.0 0.0
  outer loop
    vertex 142.39999999999984 3.491803203460351 -1.4099832412739487e-15
    vertex 150.74999999999983 3.491803203460351 2.999999999999993
    vertex 142.39999999999984 3.491803203460351 2.999999999999993
  endloop
endfacet
facet normal 1.0 -0.0 -0.0
  outer loop
    vertex 150.74999999999983 -13.608196796539685 -6.000000000000002
    vertex 150.74999999999983 -21.60819679653967 2.999999999999993
    vertex 150.74999999999983 -21.60819679653967 -6.000000000000002
  endloop
endfacet
facet normal 1.0 -0.0 -0.0
  outer loop
    vertex 150.74999999999983 -21.60819679653967 2.999999999999993
    vertex 150.74999999999983 -13.608196796539685 -6.000000000000002
    vertex 150.74999999999983 -13.608196796539685 2.999999999999993
  endloop
endfacet
facet normal -9.337805518339577e-16 1.0 1.7733662054603498e-15
  outer loop
    vertex 142.39999999999984 -13.608196796539685 2.999999999999993
    vertex 148.74999999999983 -13.60819679653964 -1.4099832412739487e-15
    vertex 142.39999999999984 -13.608196796539685 -1.4099832412739487e-15
  endloop
endfacet
facet normal -9.337805518339577e-16 1.0 1.7733662054603498e-15
  outer loop
    vertex 148.74999999999983 -13.60819679653964 -1.4099832412739487e-15
    vertex 150.74999999999983 -13.608196796539685 -6.000000000000002
    vertex 148.74999999999983 -13.60819679653964 -6.000000000000002
  endloop
endfacet
facet normal -9.337805518339577e-16 1.0 1.7733662054603498e-15
  outer loop
    vertex 150.74999999999983 -13.608196796539685 -6.000000000000002
    vertex 148.74999999999983 -13.60819679653964 -1.4099832412739487e-15
    vertex 150.74999999999983 -13.608196796539685 2.999999999999993
  endloop
endfacet
facet normal -9.337805518339577e-16 1.0 1.7733662054603498e-15
  outer loop
    vertex 150.74999999999983 -13.608196796539685 2.999999999999993
    vertex 148.74999999999983 -13.60819679653964 -1.4099832412739487e-15
    vertex 142.39999999999984 -13.608196796539685 2.999999999999993
  endloop
endfacet
facet normal 1.0 -0.0 -0.0
  outer loop
    vertex 150.74999999999983 11.491803203460336 -6.000000000000002
    vertex 150.74999999999983 3.491803203460351 2.999999999999993
    vertex 150.74999999999983 3.491803203460351 -6.000000000000002
  endloop
endfacet
facet normal 1.0 -0.0 -0.0
  outer loop
    vertex 150.74999999999983 3.491803203460351 2.999999999999993
    vertex 150.74999999999983 11.491803203460336 -6.000000000000002
    vertex 150.74999999999983 11.491803203460336 2.999999999999993
  endloop
endfacet
facet normal -0.0 1.0 -0.0
  outer loop
    vertex 142.39999999999984 11.491803203460336 2.999999999999993
    vertex 148.74999999999983 11.491803203460336 -1.4099832412739487e-15
    vertex 142.39999999999984 11.491803203460336 -1.4099832412739487e-15
  endloop
endfacet
facet normal -0.0 1.0 -0.0
  outer loop
    vertex 148.74999999999983 11.491803203460336 -1.4099832412739487e-15
    vertex 150.74999999999983 11.491803203460336 -6.000000000000002
    vertex 148.74999999999983 11.491803203460336 -6.000000000000002
  endloop
endfacet
facet normal -0.0 1.0 -0.0
  outer loop
    vertex 150.74999999999983 11.491803203460336 -6.000000000000002
    vertex 148.74999999999983 11.491803203460336 -1.4099832412739487e-15
    vertex 150.74999999999983 11.491803203460336 2.999999999999993
  endloop
endfacet
facet normal -0.0 1.0 -0.0
  outer loop
    vertex 150.74999999999983 11.491803203460336 2.999999999999993
    vertex 148.74999999999983 11.491803203460336 -1.4099832412739487e-15
    vertex 142.39999999999984 11.491803203460336 2.999999999999993
  endloop
endfacet
facet normal -1.0 0.0 0.0
  outer loop
    vertex 148.74999999999983 11.491803203460336 -1.4099832412739487e-15
    vertex 148.74999999999983 3.491803203460351 -6.000000000000002
    vertex 148.74999999999983 3.491803203460351 -1.4099832412739487e-15
  endloop
endfacet
facet normal -1.0 0.0 0.0
  outer loop
    vertex 148.74999999999983 3.491803203460351 -6.000000000000002
    vertex 148.74999999999983 11.491803203460336 -1.4099832412739487e-15
    vertex 148.74999999999983 11.491803203460336 -6.000000000000002
  endloop
endfacet
facet normal 3.1652935884724284e-15 -1.0 -2.3892658456801754e-16
  outer loop
    vertex 150.74999999999983 -21.60819679653967 2.999999999999993
    vertex 148.74999999999983 -21.60819679653967 -6.000000000000002
    vertex 150.74999999999983 -21.60819679653967 -6.000000000000002
  endloop
endfacet
facet normal 3.1652935884724284e-15 -1.0 -2.3892658456801754e-16
  outer loop
    vertex 148.74999999999983 -21.60819679653967 -6.000000000000002
    vertex 150.74999999999983 -21.60819679653967 2.999999999999993
    vertex 148.74999999999983 -21.60819679653967 -1.4099832412739487e-15
  endloop
endfacet
facet normal 3.1652935884724284e-15 -1.0 -2.3892658456801754e-16
  outer loop
    vertex 148.74999999999983 -21.60819679653967 -1.4099832412739487e-15
    vertex 150.74999999999983 -21.60819679653967 2.999999999999993
    vertex 142.39999999999998 -21.608196796539698 1.4099832412739487e-15
  endloop
endfacet
facet normal 3.1652935884724284e-15 -1.0 -2.3892658456801754e-16
  outer loop
    vertex 142.39999999999998 -21.608196796539698 1.4099832412739487e-15
    vertex 150.74999999999983 -21.60819679653967 2.999999999999993
    vertex 142.39999999999998 -21.608196796539698 3.0
  endloop
endfacet
facet normal -1.747559753925869e-18 2.130092726464237e-17 -1.0
  outer loop
    vertex -4.700000000000001 11.491803203460314 1.4099832412739487e-15
    vertex -11.05 3.491803203460314 8.503961423933505e-16
    vertex -11.05 11.491803203460316 1.0369251753535497e-15
  endloop
endfacet
facet normal -1.747559753925869e-18 2.130092726464237e-17 -1.0
  outer loop
    vertex -11.05 3.491803203460314 8.503961423933505e-16
    vertex -4.700000000000001 11.491803203460314 1.4099832412739487e-15
    vertex -4.700000000000004 3.491803203460314 1.4099832412739487e-15
  endloop
endfacet
facet normal -1.747559753925869e-18 2.130092726464237e-17 -1.0
  outer loop
    vertex 142.39999999999998 15.741803203460314 1.4099832412739487e-15
    vertex 134.39999999999998 11.491803203460314 1.4099832412739487e-15
    vertex 134.39999999999998 15.741803203460314 1.4099832412739487e-15
  endloop
endfacet
facet normal -1.747559753925869e-18 2.130092726464237e-17 -1.0
  outer loop
    vertex 134.39999999999998 11.491803203460314 1.4099832412739487e-15
    vertex 142.39999999999998 15.741803203460314 1.4099832412739487e-15
    vertex 140.39999999999998 9.49180320346031 1.4099832412739487e-15
  endloop
endfacet
facet normal -1.747559753925869e-18 2.130092726464237e-17 -1.0
  outer loop
    vertex 140.39999999999998 9.49180320346031 1.4099832412739487e-15
    vertex 142.39999999999998 15.741803203460314 1.4099832412739487e-15
    vertex 140.39999999999998 -19.608196796539705 1.4099832412739487e-15
  endloop
endfacet
facet normal -1.747559753925869e-18 2.130092726464237e-17 -1.0
  outer loop
    vertex 140.39999999999998 -19.608196796539705 1.4099832412739487e-15
    vertex 142.39999999999998 15.741803203460314 1.4099832412739487e-15
    vertex 142.39999999999984 11.491803203460336 -1.4099832412739487e-15
  endloop
endfacet
facet normal -1.747559753925869e-18 2.130092726464237e-17 -1.0
  outer loop
    vertex 148.74999999999983 11.491803203460336 -1.4099832412739487e-15
    vertex 142.39999999999984 3.491803203460351 -1.4099832412739487e-15
    vertex 142.39999999999984 11.491803203460336 -1.4099832412739487e-15
  endloop
endfacet
facet normal -1.747559753925869e-18 2.130092726464237e-17 -1.0
  outer loop
    vertex 142.39999999999984 3.491803203460351 -1.4099832412739487e-15
    vertex 148.74999999999983 11.491803203460336 -1.4099832412739487e-15
    vertex 148.74999999999983 3.491803203460351 -1.4099832412739487e-15
  endloop
endfacet
facet normal -1.747559753925869e-18 2.130092726464237e-17 -1.0
  outer loop
    vertex -4.700000000000008 -13.6081967965397 1.4099832412739487e-15
    vertex -11.050000000000008 -21.608196796539698 -1.4099832412739487e-15
    vertex -11.050000000000008 -13.608196796539689 -1.4099832412739487e-15
  endloop
endfacet
facet normal -1.747559753925869e-18 2.130092726464237e-17 -1.0
  outer loop
    vertex -11.050000000000008 -21.608196796539698 -1.4099832412739487e-15
    vertex -4.700000000000008 -13.6081967965397 1.4099832412739487e-15
    vertex -4.700000000000046 -21.60819679653967 -1.4099832412739487e-15
  endloop
endfacet
facet normal -1.747559753925869e-18 2.130092726464237e-17 -1.0
  outer loop
    vertex -4.700000000000046 -21.60819679653967 -1.4099832412739487e-15
    vertex -4.700000000000008 -13.6081967965397 1.4099832412739487e-15
    vertex -2.7000000000000135 -19.608196796539705 1.4099832412739487e-15
  endloop
endfacet
facet normal -1.747559753925869e-18 2.130092726464237e-17 -1.0
  outer loop
    vertex -4.700000000000046 -21.60819679653967 -1.4099832412739487e-15
    vertex -2.7000000000000135 -19.608196796539705 1.4099832412739487e-15
    vertex 142.39999999999998 -21.608196796539698 1.4099832412739487e-15
  endloop
endfacet
facet normal -1.747559753925869e-18 2.130092726464237e-17 -1.0
  outer loop
    vertex -2.7000000000000135 -19.608196796539705 1.4099832412739487e-15
    vertex -4.700000000000008 -13.6081967965397 1.4099832412739487e-15
    vertex -4.700000000000004 3.491803203460314 1.4099832412739487e-15
  endloop
endfacet
facet normal -1.747559753925869e-18 2.130092726464237e-17 -1.0
  outer loop
    vertex -2.7000000000000135 -19.608196796539705 1.4099832412739487e-15
    vertex -4.700000000000004 3.491803203460314 1.4099832412739487e-15
    vertex -4.700000000000001 11.491803203460314 1.4099832412739487e-15
  endloop
endfacet
facet normal -1.747559753925869e-18 2.130092726464237e-17 -1.0
  outer loop
    vertex 142.39999999999998 -21.608196796539698 1.4099832412739487e-15
    vertex -2.7000000000000135 -19.608196796539705 1.4099832412739487e-15
    vertex 140.39999999999998 -19.608196796539705 1.4099832412739487e-15
  endloop
endfacet
facet normal -1.747559753925869e-18 2.130092726464237e-17 -1.0
  outer loop
    vertex 142.39999999999998 -21.608196796539698 1.4099832412739487e-15
    vertex 140.39999999999998 -19.608196796539705 1.4099832412739487e-15
    vertex 142.39999999999984 -13.608196796539685 -1.4099832412739487e-15
  endloop
endfacet
facet normal -1.747559753925869e-18 2.130092726464237e-17 -1.0
  outer loop
    vertex 142.39999999999984 -13.608196796539685 -1.4099832412739487e-15
    vertex 140.39999999999998 -19.608196796539705 1.4099832412739487e-15
    vertex 142.39999999999984 11.491803203460336 -1.4099832412739487e-15
  endloop
endfacet
facet normal -1.747559753925869e-18 2.130092726464237e-17 -1.0
  outer loop
    vertex 142.39999999999984 -13.608196796539685 -1.4099832412739487e-15
    vertex 142.39999999999984 11.491803203460336 -1.4099832412739487e-15
    vertex 142.39999999999984 3.491803203460351 -1.4099832412739487e-15
  endloop
endfacet
facet normal -1.747559753925869e-18 2.130092726464237e-17 -1.0
  outer loop
    vertex 142.39999999999998 -21.608196796539698 1.4099832412739487e-15
    vertex 142.39999999999984 -13.608196796539685 -1.4099832412739487e-15
    vertex 148.74999999999983 -13.60819679653964 -1.4099832412739487e-15
  endloop
endfacet
facet normal -1.747559753925869e-18 2.130092726464237e-17 -1.0
  outer loop
    vertex 142.39999999999998 -21.608196796539698 1.4099832412739487e-15
    vertex 148.74999999999983 -13.60819679653964 -1.4099832412739487e-15
    vertex 148.74999999999983 -21.60819679653967 -1.4099832412739487e-15
  endloop
endfacet
facet normal -1.747559753925869e-18 2.130092726464237e-17 -1.0
  outer loop
    vertex 3.2999999999999843 15.741803203460316 -1.4099832412739487e-15
    vertex -4.700000000000001 11.491803203460314 1.4099832412739487e-15
    vertex -4.700000000000001 15.741803203460316 -1.4099832412739487e-15
  endloop
endfacet
facet normal -1.747559753925869e-18 2.130092726464237e-17 -1.0
  outer loop
    vertex -4.700000000000001 11.491803203460314 1.4099832412739487e-15
    vertex 3.2999999999999843 15.741803203460316 -1.4099832412739487e-15
    vertex -2.700000000000002 9.49180320346031 1.4099832412739487e-15
  endloop
endfacet
facet normal -1.747559753925869e-18 2.130092726464237e-17 -1.0
  outer loop
    vertex -4.700000000000001 11.491803203460314 1.4099832412739487e-15
    vertex -2.700000000000002 9.49180320346031 1.4099832412739487e-15
    vertex -2.7000000000000135 -19.608196796539705 1.4099832412739487e-15
  endloop
endfacet
facet normal -1.747559753925869e-18 2.130092726464237e-17 -1.0
  outer loop
    vertex -2.700000000000002 9.49180320346031 1.4099832412739487e-15
    vertex 3.2999999999999843 15.741803203460316 -1.4099832412739487e-15
    vertex 3.2999999999999843 11.491803203460291 -1.4099832412739487e-15
  endloop
endfacet
facet normal -1.747559753925869e-18 2.130092726464237e-17 -1.0
  outer loop
    vertex -2.700000000000002 9.49180320346031 1.4099832412739487e-15
    vertex 3.2999999999999843 11.491803203460291 -1.4099832412739487e-15
    vertex 140.39999999999998 9.49180320346031 1.4099832412739487e-15
  endloop
endfacet
facet normal -1.747559753925869e-18 2.130092726464237e-17 -1.0
  outer loop
    vertex 140.39999999999998 9.49180320346031 1.4099832412739487e-15
    vertex 3.2999999999999843 11.491803203460291 -1.4099832412739487e-15
    vertex 134.39999999999998 11.491803203460314 1.4099832412739487e-15
  endloop
endfacet
facet normal 1.0 -0.0 -0.0
  outer loop
    vertex 142.39999999999984 3.491803203460351 -1.4099832412739487e-15
    vertex 142.39999999999984 -13.608196796539685 2.999999999999993
    vertex 142.39999999999984 -13.608196796539685 -1.4099832412739487e-15
  endloop
endfacet
facet normal 1.0 -0.0 -0.0
  outer loop
    vertex 142.39999999999984 -13.608196796539685 2.999999999999993
    vertex 142.39999999999984 3.491803203460351 -1.4099832412739487e-15
    vertex 142.39999999999984 3.491803203460351 2.999999999999993
  endloop
endfacet
facet normal 3.1652935884723815e-15 -1.0 2.389265845680133e-16
  outer loop
    vertex -4.700000000000046 -21.60819679653967 2.999999999999993
    vertex -11.050000000000008 -21.608196796539698 -1.4099832412739487e-15
    vertex -4.700000000000046 -21.60819679653967 -1.4099832412739487e-15
  endloop
endfacet
facet normal 3.1652935884723815e-15 -1.0 2.389265845680133e-16
  outer loop
    vertex -11.050000000000008 -21.608196796539698 -1.4099832412739487e-15
    vertex -13.05000000000001 -21.608196796539698 -6.000000000000002
    vertex -11.050000000000008 -21.608196796539698 -6.000000000000002
  endloop
endfacet
facet normal 3.1652935884723815e-15 -1.0 2.389265845680133e-16
  outer loop
    vertex -13.05000000000001 -21.608196796539698 -6.000000000000002
    vertex -11.050000000000008 -21.608196796539698 -1.4099832412739487e-15
    vertex -13.05000000000001 -21.608196796539698 2.9999999999999987
  endloop
endfacet
facet normal 3.1652935884723815e-15 -1.0 2.389265845680133e-16
  outer loop
    vertex -13.05000000000001 -21.608196796539698 2.9999999999999987
    vertex -11.050000000000008 -21.608196796539698 -1.4099832412739487e-15
    vertex -4.700000000000046 -21.60819679653967 2.999999999999993
  endloop
endfacet
endsolid label plaque template
