solid OLED Harness
facet normal 0.0 1.0 0.0
  outer loop
    vertex -1.15 26.549999999999997 14.0
    vertex 6.23 26.549999999999997 0.0
    vertex -1.15 26.549999999999997 0.0
  endloop
endfacet
facet normal 0.0 1.0 0.0
  outer loop
    vertex 6.23 26.549999999999997 0.0
    vertex -1.15 26.549999999999997 14.0
    vertex 6.23 26.549999999999997 14.0
  endloop
endfacet
facet normal -1.0 0.0 0.0
  outer loop
    vertex -1.15 26.549999999999997 14.0
    vertex -1.15 -1.15 0.0
    vertex -1.15 -1.15 14.0
  endloop
endfacet
facet normal -1.0 0.0 0.0
  outer loop
    vertex -1.15 -1.15 0.0
    vertex -1.15 26.549999999999997 14.0
    vertex -1.15 26.549999999999997 0.0
  endloop
endfacet
facet normal -0.0 -1.0 0.0
  outer loop
    vertex 6.23 -1.15 14.0
    vertex -1.15 -1.15 0.0
    vertex 6.23 -1.15 0.0
  endloop
endfacet
facet normal -0.0 -1.0 0.0
  outer loop
    vertex -1.15 -1.15 0.0
    vertex 6.23 -1.15 14.0
    vertex -1.15 -1.15 14.0
  endloop
endfacet
facet normal 0.0 0.0 -1.0
  outer loop
    vertex -1.15 26.549999999999997 0.0
    vertex -0.15000000000000183 25.549999999999997 0.0
    vertex -1.15 -1.15 0.0
  endloop
endfacet
facet normal 0.0 0.0 -1.0
  outer loop
    vertex -0.15000000000000183 25.549999999999997 0.0
    vertex -1.15 26.549999999999997 0.0
    vertex 6.23 26.549999999999997 0.0
  endloop
endfacet
facet normal 0.0 0.0 -1.0
  outer loop
    vertex -0.15000000000000183 25.549999999999997 0.0
    vertex 6.23 26.549999999999997 0.0
    vertex 2.6900000000000004 25.549999999999997 0.0
  endloop
endfacet
facet normal 0.0 0.0 -1.0
  outer loop
    vertex 2.6900000000000004 25.549999999999997 0.0
    vertex 6.23 26.549999999999997 0.0
    vertex 5.2299999999999995 25.549999999999997 0.0
  endloop
endfacet
facet normal 0.0 0.0 -1.0
  outer loop
    vertex 5.2299999999999995 25.549999999999997 0.0
    vertex 6.23 26.549999999999997 0.0
    vertex 5.2299999999999995 10.310000000000002 0.0
  endloop
endfacet
facet normal 0.0 0.0 -1.0
  outer loop
    vertex 5.2299999999999995 10.310000000000002 0.0
    vertex 6.23 26.549999999999997 0.0
    vertex 5.2299999999999995 7.470000000000001 0.0
  endloop
endfacet
facet normal 0.0 0.0 -1.0
  outer loop
    vertex 5.2299999999999995 7.470000000000001 0.0
    vertex 6.23 26.549999999999997 0.0
    vertex 5.2299999999999995 5.2299999999999995 0.0
  endloop
endfacet
facet normal 0.0 0.0 -1.0
  outer loop
    vertex 5.2299999999999995 5.2299999999999995 0.0
    vertex 6.23 26.549999999999997 0.0
    vertex 5.2299999999999995 2.39 0.0
  endloop
endfacet
facet normal 0.0 0.0 -1.0
  outer loop
    vertex 5.2299999999999995 2.39 0.0
    vertex 6.23 26.549999999999997 0.0
    vertex 5.2299999999999995 -0.1499999999999999 0.0
  endloop
endfacet
facet normal 0.0 0.0 -1.0
  outer loop
    vertex -1.15 -1.15 0.0
    vertex -0.15000000000000044 -0.1499999999999999 0.0
    vertex 6.23 -1.15 0.0
  endloop
endfacet
facet normal 0.0 0.0 -1.0
  outer loop
    vertex -0.15000000000000044 -0.1499999999999999 0.0
    vertex -1.15 -1.15 0.0
    vertex -0.15000000000000097 7.7700000000000005 0.0
  endloop
endfacet
facet normal 0.0 0.0 -1.0
  outer loop
    vertex -0.15000000000000097 7.7700000000000005 0.0
    vertex -1.15 -1.15 0.0
    vertex -0.15000000000000183 22.709999999999997 0.0
  endloop
endfacet
facet normal 0.0 0.0 -1.0
  outer loop
    vertex -0.15000000000000183 22.709999999999997 0.0
    vertex -1.15 -1.15 0.0
    vertex -0.15000000000000183 25.549999999999997 0.0
  endloop
endfacet
facet normal 0.0 0.0 -1.0
  outer loop
    vertex -0.15000000000000044 -0.1499999999999999 0.0
    vertex -0.15000000000000097 7.7700000000000005 0.0
    vertex -0.15000000000000058 4.93 0.0
  endloop
endfacet
facet normal 0.0 0.0 -1.0
  outer loop
    vertex 6.23 -1.15 0.0
    vertex -0.15000000000000044 -0.1499999999999999 0.0
    vertex 5.2299999999999995 -0.1499999999999999 0.0
  endloop
endfacet
facet normal 0.0 0.0 -1.0
  outer loop
    vertex 6.23 -1.15 0.0
    vertex 5.2299999999999995 -0.1499999999999999 0.0
    vertex 6.23 26.549999999999997 0.0
  endloop
endfacet
facet normal 1.0 -4.508379697217166e-33 3.4222894205678366e-17
  outer loop
    vertex 2.39 2.39 3.0
    vertex 2.3899999999999997 4.929999999999999 14.000000000000002
    vertex 2.3899999999999997 2.389999999999999 14.000000000000002
  endloop
endfacet
facet normal 1.0 -4.508379697217166e-33 3.4222894205678366e-17
  outer loop
    vertex 2.3899999999999997 4.929999999999999 14.000000000000002
    vertex 2.39 2.39 3.0
    vertex 2.39 4.930000000000001 3.0
  endloop
endfacet
facet normal 0.0 -1.0 0.0
  outer loop
    vertex 5.2299999999999995 5.2299999999999995 11.999999999999998
    vertex 2.6899999999999995 5.2299999999999995 3.0
    vertex 5.2299999999999995 5.2299999999999995 3.0
  endloop
endfacet
facet normal 0.0 -1.0 0.0
  outer loop
    vertex 2.6899999999999995 5.2299999999999995 3.0
    vertex 5.2299999999999995 5.2299999999999995 11.999999999999998
    vertex 2.6899999999999995 5.2299999999999995 14.000000000000002
  endloop
endfacet
facet normal 0.0 -1.0 0.0
  outer loop
    vertex 2.6899999999999995 5.2299999999999995 14.000000000000002
    vertex 5.2299999999999995 5.2299999999999995 11.999999999999998
    vertex 5.2299999999999995 5.2299999999999995 14.000000000000002
  endloop
endfacet
facet normal -1.2411824306988984e-16 1.0 1.0266868261703509e-16
  outer loop
    vertex 2.3899999999999997 2.389999999999999 14.000000000000002
    vertex 5.2299999999999995 2.39 3.0
    vertex 2.39 2.39 3.0
  endloop
endfacet
facet normal -1.2411824306988984e-16 1.0 1.0266868261703509e-16
  outer loop
    vertex 5.2299999999999995 2.39 3.0
    vertex 2.3899999999999997 2.389999999999999 14.000000000000002
    vertex 5.2299999999999995 2.3899999999999992 11.999999999999998
  endloop
endfacet
facet normal -1.2411824306988984e-16 1.0 1.0266868261703509e-16
  outer loop
    vertex 5.2299999999999995 2.3899999999999992 11.999999999999998
    vertex 2.3899999999999997 2.389999999999999 14.000000000000002
    vertex 5.2299999999999995 2.3899999999999992 14.000000000000002
  endloop
endfacet
facet normal 0.0 -1.0 0.0
  outer loop
    vertex 2.3899999999999992 7.7700000000000005 14.000000000000002
    vertex -0.15000000000000097 7.7700000000000005 3.0
    vertex 2.3899999999999997 7.7700000000000005 3.0
  endloop
endfacet
facet normal 0.0 -1.0 0.0
  outer loop
    vertex -0.15000000000000097 7.7700000000000005 3.0
    vertex 2.3899999999999992 7.7700000000000005 14.000000000000002
    vertex -0.15000000000000113 7.7700000000000005 11.999999999999998
  endloop
endfacet
facet normal 0.0 -1.0 0.0
  outer loop
    vertex -0.15000000000000113 7.7700000000000005 11.999999999999998
    vertex 2.3899999999999992 7.7700000000000005 14.000000000000002
    vertex -0.1500000000000011 7.7700000000000005 14.000000000000002
  endloop
endfacet
facet normal -1.0 0.0 0.0
  outer loop
    vertex 2.6899999999999995 7.470000000000001 14.000000000000002
    vertex 2.6899999999999995 5.2299999999999995 3.0
    vertex 2.6899999999999995 5.2299999999999995 14.000000000000002
  endloop
endfacet
facet normal -1.0 0.0 0.0
  outer loop
    vertex 2.6899999999999995 5.2299999999999995 3.0
    vertex 2.6899999999999995 7.470000000000001 14.000000000000002
    vertex 2.6899999999999995 7.470000000000001 3.0
  endloop
endfacet
facet normal -2.775557561562891e-16 1.0 1.3689157682271346e-16
  outer loop
    vertex -0.15000000000000088 4.929999999999998 11.999999999999998
    vertex 2.39 4.930000000000001 3.0
    vertex -0.15000000000000058 4.93 3.0
  endloop
endfacet
facet normal -2.775557561562891e-16 1.0 1.3689157682271346e-16
  outer loop
    vertex 2.39 4.930000000000001 3.0
    vertex -0.15000000000000088 4.929999999999998 11.999999999999998
    vertex 2.3899999999999997 4.929999999999999 14.000000000000002
  endloop
endfacet
facet normal -2.775557561562891e-16 1.0 1.3689157682271346e-16
  outer loop
    vertex 2.3899999999999997 4.929999999999999 14.000000000000002
    vertex -0.15000000000000088 4.929999999999998 11.999999999999998
    vertex -0.15000000000000088 4.929999999999998 14.000000000000002
  endloop
endfacet
facet normal 1.0 -1.3499459019992998e-16 3.275983367272185e-17
  outer loop
    vertex 2.39 10.31 3.0
    vertex 2.3899999999999992 7.7700000000000005 14.000000000000002
    vertex 2.3899999999999997 7.7700000000000005 3.0
  endloop
endfacet
facet normal 1.0 -1.3499459019992998e-16 3.275983367272185e-17
  outer loop
    vertex 2.3899999999999992 7.7700000000000005 14.000000000000002
    vertex 2.39 10.31 3.0
    vertex 2.3899999999999997 10.31 14.000000000000002
  endloop
endfacet
facet normal -0.0 1.0 -0.0
  outer loop
    vertex 2.6899999999999995 7.470000000000001 14.000000000000002
    vertex 5.2299999999999995 7.470000000000001 3.0
    vertex 2.6899999999999995 7.470000000000001 3.0
  endloop
endfacet
facet normal -0.0 1.0 -0.0
  outer loop
    vertex 5.2299999999999995 7.470000000000001 3.0
    vertex 2.6899999999999995 7.470000000000001 14.000000000000002
    vertex 5.2299999999999995 7.470000000000001 11.999999999999998
  endloop
endfacet
facet normal -0.0 1.0 -0.0
  outer loop
    vertex 5.2299999999999995 7.470000000000001 11.999999999999998
    vertex 2.6899999999999995 7.470000000000001 14.000000000000002
    vertex 5.2299999999999995 7.470000000000001 14.000000000000002
  endloop
endfacet
facet normal 1.0 0.0 0.0
  outer loop
    vertex 6.23 26.549999999999997 0.0
    vertex 6.23 -1.15 14.0
    vertex 6.23 -1.15 0.0
  endloop
endfacet
facet normal 1.0 0.0 0.0
  outer loop
    vertex 6.23 -1.15 14.0
    vertex 6.23 26.549999999999997 0.0
    vertex 6.23 26.549999999999997 14.0
  endloop
endfacet
facet normal -1.0 2.777045593331469e-16 -2.137716527092761e-17
  outer loop
    vertex 2.6900000000000004 25.549999999999997 14.0
    vertex 2.6899999999999995 22.709999999999997 3.0
    vertex 2.6899999999999995 22.709999999999997 14.0
  endloop
endfacet
facet normal -1.0 2.777045593331469e-16 -2.137716527092761e-17
  outer loop
    vertex 2.6899999999999995 22.709999999999997 3.0
    vertex 2.6900000000000004 25.549999999999997 14.0
    vertex 2.6900000000000004 25.549999999999997 3.0
  endloop
endfacet
facet normal -1.0 2.777045593331469e-16 -2.137716527092761e-17
  outer loop
    vertex 2.6900000000000004 25.549999999999997 3.0
    vertex 2.6900000000000004 25.549999999999997 14.0
    vertex 2.69 25.549999999999997 12.0
  endloop
endfacet
facet normal 0.0 -1.0 0.0
  outer loop
    vertex 4.359999999999999 24.679999999999993 12.0
    vertex 3.2736999999999994 24.679999999999993 3.0
    vertex 4.359999999999999 24.679999999999993 3.0
  endloop
endfacet
facet normal 0.0 -1.0 0.0
  outer loop
    vertex 3.2736999999999994 24.679999999999993 3.0
    vertex 4.359999999999999 24.679999999999993 12.0
    vertex 3.2736999999999994 24.679999999999993 12.0
  endloop
endfacet
facet normal -1.0 0.0 0.0
  outer loop
    vertex 4.359999999999999 24.679999999999993 12.0
    vertex 4.359999999999999 23.579999999999995 3.0
    vertex 4.359999999999999 23.579999999999995 12.0
  endloop
endfacet
facet normal -1.0 0.0 0.0
  outer loop
    vertex 4.359999999999999 23.579999999999995 3.0
    vertex 4.359999999999999 24.679999999999993 12.0
    vertex 4.359999999999999 24.679999999999993 3.0
  endloop
endfacet
facet normal -0.0 1.0 -0.0
  outer loop
    vertex 3.2736999999999985 23.579999999999995 12.0
    vertex 4.359999999999999 23.579999999999995 3.0
    vertex 3.2736999999999985 23.579999999999995 3.0
  endloop
endfacet
facet normal -0.0 1.0 -0.0
  outer loop
    vertex 4.359999999999999 23.579999999999995 3.0
    vertex 3.2736999999999985 23.579999999999995 12.0
    vertex 4.359999999999999 23.579999999999995 12.0
  endloop
endfacet
facet normal 1.0 -6.409014733063432e-16 -0.0
  outer loop
    vertex 3.2736999999999994 24.679999999999993 3.0
    vertex 3.2736999999999985 23.579999999999995 12.0
    vertex 3.2736999999999985 23.579999999999995 3.0
  endloop
endfacet
facet normal 1.0 -6.409014733063432e-16 -0.0
  outer loop
    vertex 3.2736999999999985 23.579999999999995 12.0
    vertex 3.2736999999999994 24.679999999999993 3.0
    vertex 3.2736999999999994 24.679999999999993 12.0
  endloop
endfacet
facet normal 0.0 -1.0 0.0
  outer loop
    vertex 1.82 22.13999999999999 12.0
    vertex 0.733699999999999 22.13999999999999 3.0
    vertex 1.8200000000000005 22.13999999999999 3.0
  endloop
endfacet
facet normal 0.0 -1.0 0.0
  outer loop
    vertex 0.733699999999999 22.13999999999999 3.0
    vertex 1.82 22.13999999999999 12.0
    vertex 0.7336999999999989 22.13999999999999 12.0
  endloop
endfacet
facet normal -1.0 3.2045073665317323e-16 0.0
  outer loop
    vertex 1.82 22.13999999999999 12.0
    vertex 1.82 21.04 3.0
    vertex 1.8199999999999996 21.04 12.0
  endloop
endfacet
facet normal -1.0 3.2045073665317323e-16 0.0
  outer loop
    vertex 1.82 21.04 3.0
    vertex 1.82 22.13999999999999 12.0
    vertex 1.8200000000000005 22.13999999999999 3.0
  endloop
endfacet
facet normal -0.0 1.0 -0.0
  outer loop
    vertex 0.7336999999999989 21.04 12.0
    vertex 1.82 21.04 3.0
    vertex 0.733699999999999 21.04 3.0
  endloop
endfacet
facet normal -0.0 1.0 -0.0
  outer loop
    vertex 1.82 21.04 3.0
    vertex 0.7336999999999989 21.04 12.0
    vertex 1.8199999999999996 21.04 12.0
  endloop
endfacet
facet normal 1.0 -0.0 -0.0
  outer loop
    vertex 0.733699999999999 22.13999999999999 3.0
    vertex 0.7336999999999989 21.04 12.0
    vertex 0.733699999999999 21.04 3.0
  endloop
endfacet
facet normal 1.0 -0.0 -0.0
  outer loop
    vertex 0.7336999999999989 21.04 12.0
    vertex 0.733699999999999 22.13999999999999 3.0
    vertex 0.7336999999999989 22.13999999999999 12.0
  endloop
endfacet
facet normal 0.0 -1.0 0.0
  outer loop
    vertex 1.820000000000002 19.59999999999999 11.999999999999998
    vertex 0.7337000000000016 19.59999999999999 3.0
    vertex 1.8200000000000025 19.59999999999999 3.0
  endloop
endfacet
facet normal 0.0 -1.0 0.0
  outer loop
    vertex 0.7337000000000016 19.59999999999999 3.0
    vertex 1.820000000000002 19.59999999999999 11.999999999999998
    vertex 0.7337000000000014 19.59999999999999 11.999999999999998
  endloop
endfacet
facet normal -1.0 3.204507366531716e-16 0.0
  outer loop
    vertex 1.820000000000002 19.59999999999999 11.999999999999998
    vertex 1.820000000000002 18.499999999999996 3.0
    vertex 1.8200000000000018 18.499999999999996 11.999999999999998
  endloop
endfacet
facet normal -1.0 3.204507366531716e-16 0.0
  outer loop
    vertex 1.820000000000002 18.499999999999996 3.0
    vertex 1.820000000000002 19.59999999999999 11.999999999999998
    vertex 1.8200000000000025 19.59999999999999 3.0
  endloop
endfacet
facet normal -0.0 1.0 -0.0
  outer loop
    vertex 0.7337000000000014 18.499999999999996 11.999999999999998
    vertex 1.820000000000002 18.499999999999996 3.0
    vertex 0.7337000000000016 18.499999999999996 3.0
  endloop
endfacet
facet normal -0.0 1.0 -0.0
  outer loop
    vertex 1.820000000000002 18.499999999999996 3.0
    vertex 0.7337000000000014 18.499999999999996 11.999999999999998
    vertex 1.8200000000000018 18.499999999999996 11.999999999999998
  endloop
endfacet
facet normal 1.0 -0.0 -0.0
  outer loop
    vertex 0.7337000000000016 19.59999999999999 3.0
    vertex 0.7337000000000014 18.499999999999996 11.999999999999998
    vertex 0.7337000000000016 18.499999999999996 3.0
  endloop
endfacet
facet normal 1.0 -0.0 -0.0
  outer loop
    vertex 0.7337000000000014 18.499999999999996 11.999999999999998
    vertex 0.7337000000000016 19.59999999999999 3.0
    vertex 0.7337000000000014 19.59999999999999 11.999999999999998
  endloop
endfacet
facet normal 0.0 -1.0 0.0
  outer loop
    vertex 4.3599999999999985 22.13999999999999 12.0
    vertex 3.2736999999999994 22.13999999999999 3.0
    vertex 4.3599999999999985 22.13999999999999 3.0
  endloop
endfacet
facet normal 0.0 -1.0 0.0
  outer loop
    vertex 3.2736999999999994 22.13999999999999 3.0
    vertex 4.3599999999999985 22.13999999999999 12.0
    vertex 3.2736999999999994 22.13999999999999 12.0
  endloop
endfacet
facet normal -1.0 6.409014733063449e-16 0.0
  outer loop
    vertex 4.3599999999999985 22.13999999999999 12.0
    vertex 4.359999999999998 21.039999999999996 3.0
    vertex 4.359999999999998 21.039999999999996 12.0
  endloop
endfacet
facet normal -1.0 6.409014733063449e-16 0.0
  outer loop
    vertex 4.359999999999998 21.039999999999996 3.0
    vertex 4.3599999999999985 22.13999999999999 12.0
    vertex 4.3599999999999985 22.13999999999999 3.0
  endloop
endfacet
facet normal -0.0 1.0 -0.0
  outer loop
    vertex 3.2736999999999985 21.039999999999996 12.0
    vertex 4.359999999999998 21.039999999999996 3.0
    vertex 3.2736999999999985 21.039999999999996 3.0
  endloop
endfacet
facet normal -0.0 1.0 -0.0
  outer loop
    vertex 4.359999999999998 21.039999999999996 3.0
    vertex 3.2736999999999985 21.039999999999996 12.0
    vertex 4.359999999999998 21.039999999999996 12.0
  endloop
endfacet
facet normal 1.0 -6.409014733063449e-16 -0.0
  outer loop
    vertex 3.2736999999999994 22.13999999999999 3.0
    vertex 3.2736999999999985 21.039999999999996 12.0
    vertex 3.2736999999999985 21.039999999999996 3.0
  endloop
endfacet
facet normal 1.0 -6.409014733063449e-16 -0.0
  outer loop
    vertex 3.2736999999999985 21.039999999999996 12.0
    vertex 3.2736999999999994 22.13999999999999 3.0
    vertex 3.2736999999999994 22.13999999999999 12.0
  endloop
endfacet
facet normal 0.0 -1.0 0.0
  outer loop
    vertex 4.379820422227879 19.59999999999999 12.0
    vertex 3.293520422227879 19.59999999999999 3.0
    vertex 4.379820422227879 19.59999999999999 3.0
  endloop
endfacet
facet normal 0.0 -1.0 0.0
  outer loop
    vertex 3.293520422227879 19.59999999999999 3.0
    vertex 4.379820422227879 19.59999999999999 12.0
    vertex 3.293520422227879 19.59999999999999 12.0
  endloop
endfacet
facet normal -1.0 0.0 0.0
  outer loop
    vertex 4.379820422227879 19.59999999999999 12.0
    vertex 4.379820422227879 18.500000000000004 3.0
    vertex 4.379820422227879 18.500000000000004 12.0
  endloop
endfacet
facet normal -1.0 0.0 0.0
  outer loop
    vertex 4.379820422227879 18.500000000000004 3.0
    vertex 4.379820422227879 19.59999999999999 12.0
    vertex 4.379820422227879 19.59999999999999 3.0
  endloop
endfacet
facet normal -0.0 1.0 -0.0
  outer loop
    vertex 3.293520422227878 18.500000000000004 12.0
    vertex 4.379820422227879 18.500000000000004 3.0
    vertex 3.293520422227878 18.500000000000004 3.0
  endloop
endfacet
facet normal -0.0 1.0 -0.0
  outer loop
    vertex 4.379820422227879 18.500000000000004 3.0
    vertex 3.293520422227878 18.500000000000004 12.0
    vertex 4.379820422227879 18.500000000000004 12.0
  endloop
endfacet
facet normal 1.0 -6.409014733063465e-16 -0.0
  outer loop
    vertex 3.293520422227879 19.59999999999999 3.0
    vertex 3.293520422227878 18.500000000000004 12.0
    vertex 3.293520422227878 18.500000000000004 3.0
  endloop
endfacet
facet normal 1.0 -6.409014733063465e-16 -0.0
  outer loop
    vertex 3.293520422227878 18.500000000000004 12.0
    vertex 3.293520422227879 19.59999999999999 3.0
    vertex 3.293520422227879 19.59999999999999 12.0
  endloop
endfacet
facet normal 0.0 -1.0 0.0
  outer loop
    vertex 1.8199999999999996 17.05999999999999 11.999999999999998
    vertex 0.7337000000000008 17.05999999999999 3.0
    vertex 1.82 17.05999999999999 3.0
  endloop
endfacet
facet normal 0.0 -1.0 0.0
  outer loop
    vertex 0.7337000000000008 17.05999999999999 3.0
    vertex 1.8199999999999996 17.05999999999999 11.999999999999998
    vertex 0.7337000000000007 17.05999999999999 11.999999999999998
  endloop
endfacet
facet normal -1.0 0.0 0.0
  outer loop
    vertex 1.8199999999999996 17.05999999999999 11.999999999999998
    vertex 1.82 15.959999999999997 3.0
    vertex 1.8199999999999996 15.959999999999997 11.999999999999998
  endloop
endfacet
facet normal -1.0 0.0 0.0
  outer loop
    vertex 1.82 15.959999999999997 3.0
    vertex 1.8199999999999996 17.05999999999999 11.999999999999998
    vertex 1.82 17.05999999999999 3.0
  endloop
endfacet
facet normal -0.0 1.0 -0.0
  outer loop
    vertex 0.7337000000000007 15.959999999999997 11.999999999999998
    vertex 1.82 15.959999999999997 3.0
    vertex 0.7337000000000008 15.959999999999997 3.0
  endloop
endfacet
facet normal -0.0 1.0 -0.0
  outer loop
    vertex 1.82 15.959999999999997 3.0
    vertex 0.7337000000000007 15.959999999999997 11.999999999999998
    vertex 1.8199999999999996 15.959999999999997 11.999999999999998
  endloop
endfacet
facet normal 1.0 -0.0 -0.0
  outer loop
    vertex 0.7337000000000008 17.05999999999999 3.0
    vertex 0.7337000000000007 15.959999999999997 11.999999999999998
    vertex 0.7337000000000008 15.959999999999997 3.0
  endloop
endfacet
facet normal 1.0 -0.0 -0.0
  outer loop
    vertex 0.7337000000000007 15.959999999999997 11.999999999999998
    vertex 0.7337000000000008 17.05999999999999 3.0
    vertex 0.7337000000000007 17.05999999999999 11.999999999999998
  endloop
endfacet
facet normal 0.0 -1.0 0.0
  outer loop
    vertex 1.8200000000000012 14.519999999999994 12.0
    vertex 0.7337000000000019 14.519999999999994 3.0
    vertex 1.8200000000000014 14.519999999999994 3.0
  endloop
endfacet
facet normal 0.0 -1.0 0.0
  outer loop
    vertex 0.7337000000000019 14.519999999999994 3.0
    vertex 1.8200000000000012 14.519999999999994 12.0
    vertex 0.7337000000000017 14.519999999999994 12.0
  endloop
endfacet
facet normal -1.0 0.0 0.0
  outer loop
    vertex 1.8200000000000012 14.519999999999994 12.0
    vertex 1.8200000000000014 13.419999999999998 3.0
    vertex 1.8200000000000012 13.419999999999998 12.0
  endloop
endfacet
facet normal -1.0 0.0 0.0
  outer loop
    vertex 1.8200000000000014 13.419999999999998 3.0
    vertex 1.8200000000000012 14.519999999999994 12.0
    vertex 1.8200000000000014 14.519999999999994 3.0
  endloop
endfacet
facet normal -0.0 1.0 -0.0
  outer loop
    vertex 0.7337000000000017 13.419999999999998 12.0
    vertex 1.8200000000000014 13.419999999999998 3.0
    vertex 0.7337000000000019 13.419999999999998 3.0
  endloop
endfacet
facet normal -0.0 1.0 -0.0
  outer loop
    vertex 1.8200000000000014 13.419999999999998 3.0
    vertex 0.7337000000000017 13.419999999999998 12.0
    vertex 1.8200000000000012 13.419999999999998 12.0
  endloop
endfacet
facet normal 1.0 -0.0 -0.0
  outer loop
    vertex 0.7337000000000019 14.519999999999994 3.0
    vertex 0.7337000000000017 13.419999999999998 12.0
    vertex 0.7337000000000019 13.419999999999998 3.0
  endloop
endfacet
facet normal 1.0 -0.0 -0.0
  outer loop
    vertex 0.7337000000000017 13.419999999999998 12.0
    vertex 0.7337000000000019 14.519999999999994 3.0
    vertex 0.7337000000000017 14.519999999999994 12.0
  endloop
endfacet
facet normal 0.0 -1.0 0.0
  outer loop
    vertex 4.3599999999999985 17.05999999999999 12.0
    vertex 3.2736999999999994 17.05999999999999 3.0
    vertex 4.3599999999999985 17.05999999999999 3.0
  endloop
endfacet
facet normal 0.0 -1.0 0.0
  outer loop
    vertex 3.2736999999999994 17.05999999999999 3.0
    vertex 4.3599999999999985 17.05999999999999 12.0
    vertex 3.2736999999999994 17.05999999999999 12.0
  endloop
endfacet
facet normal -1.0 6.409014733063449e-16 0.0
  outer loop
    vertex 4.3599999999999985 17.05999999999999 12.0
    vertex 4.359999999999998 15.959999999999997 3.0
    vertex 4.359999999999998 15.959999999999997 12.0
  endloop
endfacet
facet normal -1.0 6.409014733063449e-16 0.0
  outer loop
    vertex 4.359999999999998 15.959999999999997 3.0
    vertex 4.3599999999999985 17.05999999999999 12.0
    vertex 4.3599999999999985 17.05999999999999 3.0
  endloop
endfacet
facet normal -0.0 1.0 -0.0
  outer loop
    vertex 3.2736999999999985 15.959999999999997 12.0
    vertex 4.359999999999998 15.959999999999997 3.0
    vertex 3.2736999999999985 15.959999999999997 3.0
  endloop
endfacet
facet normal -0.0 1.0 -0.0
  outer loop
    vertex 4.359999999999998 15.959999999999997 3.0
    vertex 3.2736999999999985 15.959999999999997 12.0
    vertex 4.359999999999998 15.959999999999997 12.0
  endloop
endfacet
facet normal 1.0 -6.409014733063449e-16 -0.0
  outer loop
    vertex 3.2736999999999994 17.05999999999999 3.0
    vertex 3.2736999999999985 15.959999999999997 12.0
    vertex 3.2736999999999985 15.959999999999997 3.0
  endloop
endfacet
facet normal 1.0 -6.409014733063449e-16 -0.0
  outer loop
    vertex 3.2736999999999985 15.959999999999997 12.0
    vertex 3.2736999999999994 17.05999999999999 3.0
    vertex 3.2736999999999994 17.05999999999999 12.0
  endloop
endfacet
facet normal 0.0 -1.0 0.0
  outer loop
    vertex 4.359999999999999 14.519999999999996 12.0
    vertex 3.2736999999999994 14.519999999999996 3.0
    vertex 4.359999999999999 14.519999999999996 3.0
  endloop
endfacet
facet normal 0.0 -1.0 0.0
  outer loop
    vertex 3.2736999999999994 14.519999999999996 3.0
    vertex 4.359999999999999 14.519999999999996 12.0
    vertex 3.2736999999999994 14.519999999999996 12.0
  endloop
endfacet
facet normal -1.0 0.0 0.0
  outer loop
    vertex 4.359999999999999 14.519999999999996 12.0
    vertex 4.359999999999999 13.420000000000003 3.0
    vertex 4.359999999999999 13.420000000000003 12.0
  endloop
endfacet
facet normal -1.0 0.0 0.0
  outer loop
    vertex 4.359999999999999 13.420000000000003 3.0
    vertex 4.359999999999999 14.519999999999996 12.0
    vertex 4.359999999999999 14.519999999999996 3.0
  endloop
endfacet
facet normal -0.0 1.0 -0.0
  outer loop
    vertex 3.2736999999999985 13.420000000000003 12.0
    vertex 4.359999999999999 13.420000000000003 3.0
    vertex 3.2736999999999985 13.420000000000003 3.0
  endloop
endfacet
facet normal -0.0 1.0 -0.0
  outer loop
    vertex 4.359999999999999 13.420000000000003 3.0
    vertex 3.2736999999999985 13.420000000000003 12.0
    vertex 4.359999999999999 13.420000000000003 12.0
  endloop
endfacet
facet normal 1.0 -6.409014733063449e-16 -0.0
  outer loop
    vertex 3.2736999999999994 14.519999999999996 3.0
    vertex 3.2736999999999985 13.420000000000003 12.0
    vertex 3.2736999999999985 13.420000000000003 3.0
  endloop
endfacet
facet normal 1.0 -6.409014733063449e-16 -0.0
  outer loop
    vertex 3.2736999999999985 13.420000000000003 12.0
    vertex 3.2736999999999994 14.519999999999996 3.0
    vertex 3.2736999999999994 14.519999999999996 12.0
  endloop
endfacet
facet normal 0.0 -1.0 0.0
  outer loop
    vertex 1.8199999999999983 11.979999999999995 12.0
    vertex 0.733699999999999 11.979999999999995 3.0
    vertex 1.8199999999999987 11.979999999999995 3.0
  endloop
endfacet
facet normal 0.0 -1.0 0.0
  outer loop
    vertex 0.733699999999999 11.979999999999995 3.0
    vertex 1.8199999999999983 11.979999999999995 12.0
    vertex 0.7336999999999989 11.979999999999995 12.0
  endloop
endfacet
facet normal -1.0 0.0 0.0
  outer loop
    vertex 1.8199999999999983 11.979999999999995 12.0
    vertex 1.8199999999999987 10.880000000000004 3.0
    vertex 1.8199999999999983 10.880000000000004 12.0
  endloop
endfacet
facet normal -1.0 0.0 0.0
  outer loop
    vertex 1.8199999999999987 10.880000000000004 3.0
    vertex 1.8199999999999983 11.979999999999995 12.0
    vertex 1.8199999999999987 11.979999999999995 3.0
  endloop
endfacet
facet normal -0.0 1.0 -0.0
  outer loop
    vertex 0.7336999999999989 10.880000000000004 12.0
    vertex 1.8199999999999987 10.880000000000004 3.0
    vertex 0.733699999999999 10.880000000000004 3.0
  endloop
endfacet
facet normal -0.0 1.0 -0.0
  outer loop
    vertex 1.8199999999999987 10.880000000000004 3.0
    vertex 0.7336999999999989 10.880000000000004 12.0
    vertex 1.8199999999999983 10.880000000000004 12.0
  endloop
endfacet
facet normal 1.0 -0.0 -0.0
  outer loop
    vertex 0.733699999999999 11.979999999999995 3.0
    vertex 0.7336999999999989 10.880000000000004 12.0
    vertex 0.733699999999999 10.880000000000004 3.0
  endloop
endfacet
facet normal 1.0 -0.0 -0.0
  outer loop
    vertex 0.7336999999999989 10.880000000000004 12.0
    vertex 0.733699999999999 11.979999999999995 3.0
    vertex 0.7336999999999989 11.979999999999995 12.0
  endloop
endfacet
facet normal 0.0 -1.0 0.0
  outer loop
    vertex 1.8200000000000018 9.439999999999998 12.0
    vertex 0.7337000000000001 9.439999999999998 3.0
    vertex 1.820000000000002 9.439999999999998 3.0
  endloop
endfacet
facet normal 0.0 -1.0 0.0
  outer loop
    vertex 0.7337000000000001 9.439999999999998 3.0
    vertex 1.8200000000000018 9.439999999999998 12.0
    vertex 0.7336999999999999 9.439999999999998 12.0
  endloop
endfacet
facet normal -1.0 0.0 0.0
  outer loop
    vertex 1.8200000000000018 9.439999999999998 12.0
    vertex 1.820000000000002 8.340000000000005 3.0
    vertex 1.8200000000000018 8.340000000000005 12.0
  endloop
endfacet
facet normal -1.0 0.0 0.0
  outer loop
    vertex 1.820000000000002 8.340000000000005 3.0
    vertex 1.8200000000000018 9.439999999999998 12.0
    vertex 1.820000000000002 9.439999999999998 3.0
  endloop
endfacet
facet normal -0.0 1.0 -0.0
  outer loop
    vertex 0.7336999999999999 8.340000000000005 12.0
    vertex 1.820000000000002 8.340000000000005 3.0
    vertex 0.7337000000000001 8.340000000000005 3.0
  endloop
endfacet
facet normal -0.0 1.0 -0.0
  outer loop
    vertex 1.820000000000002 8.340000000000005 3.0
    vertex 0.7336999999999999 8.340000000000005 12.0
    vertex 1.8200000000000018 8.340000000000005 12.0
  endloop
endfacet
facet normal 1.0 -0.0 -0.0
  outer loop
    vertex 0.7337000000000001 9.439999999999998 3.0
    vertex 0.7336999999999999 8.340000000000005 12.0
    vertex 0.7337000000000001 8.340000000000005 3.0
  endloop
endfacet
facet normal 1.0 -0.0 -0.0
  outer loop
    vertex 0.7336999999999999 8.340000000000005 12.0
    vertex 0.7337000000000001 9.439999999999998 3.0
    vertex 0.7336999999999999 9.439999999999998 12.0
  endloop
endfacet
facet normal 0.0 -1.0 0.0
  outer loop
    vertex 4.3598842805636 11.979999999999986 12.0
    vertex 3.2735842805636 11.979999999999986 3.0
    vertex 4.3598842805636 11.979999999999986 3.0
  endloop
endfacet
facet normal 0.0 -1.0 0.0
  outer loop
    vertex 3.2735842805636 11.979999999999986 3.0
    vertex 4.3598842805636 11.979999999999986 12.0
    vertex 3.2735842805636 11.979999999999986 12.0
  endloop
endfacet
facet normal -1.0 0.0 0.0
  outer loop
    vertex 4.3598842805636 11.979999999999986 12.0
    vertex 4.3598842805636 10.880000000000004 3.0
    vertex 4.3598842805636 10.880000000000004 12.0
  endloop
endfacet
facet normal -1.0 0.0 0.0
  outer loop
    vertex 4.3598842805636 10.880000000000004 3.0
    vertex 4.3598842805636 11.979999999999986 12.0
    vertex 4.3598842805636 11.979999999999986 3.0
  endloop
endfacet
facet normal -0.0 1.0 -0.0
  outer loop
    vertex 3.273584280563599 10.880000000000004 12.0
    vertex 4.3598842805636 10.880000000000004 3.0
    vertex 3.273584280563599 10.880000000000004 3.0
  endloop
endfacet
facet normal -0.0 1.0 -0.0
  outer loop
    vertex 4.3598842805636 10.880000000000004 3.0
    vertex 3.273584280563599 10.880000000000004 12.0
    vertex 4.3598842805636 10.880000000000004 12.0
  endloop
endfacet
facet normal 1.0 -6.409014733063515e-16 -0.0
  outer loop
    vertex 3.2735842805636 11.979999999999986 3.0
    vertex 3.273584280563599 10.880000000000004 12.0
    vertex 3.273584280563599 10.880000000000004 3.0
  endloop
endfacet
facet normal 1.0 -6.409014733063515e-16 -0.0
  outer loop
    vertex 3.273584280563599 10.880000000000004 12.0
    vertex 3.2735842805636 11.979999999999986 3.0
    vertex 3.2735842805636 11.979999999999986 12.0
  endloop
endfacet
facet normal 0.0 -1.0 0.0
  outer loop
    vertex 1.8199999999999983 4.36 12.0
    vertex 0.7336999999999987 4.360000000000002 3.0
    vertex 1.8199999999999987 4.360000000000002 3.0
  endloop
endfacet
facet normal 0.0 -1.0 0.0
  outer loop
    vertex 0.7336999999999987 4.360000000000002 3.0
    vertex 1.8199999999999983 4.36 12.0
    vertex 0.7336999999999985 4.36 12.0
  endloop
endfacet
facet normal -1.0 0.0 0.0
  outer loop
    vertex 1.8199999999999983 4.36 12.0
    vertex 1.8199999999999987 3.2600000000000016 3.0
    vertex 1.8199999999999983 3.26 12.0
  endloop
endfacet
facet normal -1.0 0.0 0.0
  outer loop
    vertex 1.8199999999999987 3.2600000000000016 3.0
    vertex 1.8199999999999983 4.36 12.0
    vertex 1.8199999999999987 4.360000000000002 3.0
  endloop
endfacet
facet normal -0.0 1.0 -0.0
  outer loop
    vertex 0.7336999999999985 3.26 12.0
    vertex 1.8199999999999987 3.2600000000000016 3.0
    vertex 0.7336999999999987 3.2600000000000016 3.0
  endloop
endfacet
facet normal -0.0 1.0 -0.0
  outer loop
    vertex 1.8199999999999987 3.2600000000000016 3.0
    vertex 0.7336999999999985 3.26 12.0
    vertex 1.8199999999999983 3.26 12.0
  endloop
endfacet
facet normal 1.0 -0.0 -0.0
  outer loop
    vertex 0.7336999999999987 3.2600000000000016 3.0
    vertex 0.7336999999999985 4.36 12.0
    vertex 0.7336999999999985 3.26 12.0
  endloop
endfacet
facet normal 1.0 -0.0 -0.0
  outer loop
    vertex 0.7336999999999985 4.36 12.0
    vertex 0.7336999999999987 3.2600000000000016 3.0
    vertex 0.7336999999999987 4.360000000000002 3.0
  endloop
endfacet
facet normal 0.0 -1.0 0.0
  outer loop
    vertex 4.359884280563597 6.899999999999993 12.0
    vertex 3.2735842805636 6.899999999999993 3.0
    vertex 4.359884280563597 6.899999999999993 3.0
  endloop
endfacet
facet normal 0.0 -1.0 0.0
  outer loop
    vertex 3.2735842805636 6.899999999999993 3.0
    vertex 4.359884280563597 6.899999999999993 12.0
    vertex 3.2735842805636 6.899999999999993 12.0
  endloop
endfacet
facet normal -1.0 6.409014733063481e-16 0.0
  outer loop
    vertex 4.359884280563597 6.899999999999993 12.0
    vertex 4.3598842805635964 5.800000000000006 3.0
    vertex 4.3598842805635964 5.800000000000006 12.0
  endloop
endfacet
facet normal -1.0 6.409014733063481e-16 0.0
  outer loop
    vertex 4.3598842805635964 5.800000000000006 3.0
    vertex 4.359884280563597 6.899999999999993 12.0
    vertex 4.359884280563597 6.899999999999993 3.0
  endloop
endfacet
facet normal -0.0 1.0 -0.0
  outer loop
    vertex 3.273584280563599 5.800000000000006 12.0
    vertex 4.3598842805635964 5.800000000000006 3.0
    vertex 3.273584280563599 5.800000000000006 3.0
  endloop
endfacet
facet normal -0.0 1.0 -0.0
  outer loop
    vertex 4.3598842805635964 5.800000000000006 3.0
    vertex 3.273584280563599 5.800000000000006 12.0
    vertex 4.3598842805635964 5.800000000000006 12.0
  endloop
endfacet
facet normal 1.0 -6.409014733063481e-16 -0.0
  outer loop
    vertex 3.2735842805636 6.899999999999993 3.0
    vertex 3.273584280563599 5.800000000000006 12.0
    vertex 3.273584280563599 5.800000000000006 3.0
  endloop
endfacet
facet normal 1.0 -6.409014733063481e-16 -0.0
  outer loop
    vertex 3.273584280563599 5.800000000000006 12.0
    vertex 3.2735842805636 6.899999999999993 3.0
    vertex 3.2735842805636 6.899999999999993 12.0
  endloop
endfacet
facet normal 0.0 -1.0 0.0
  outer loop
    vertex 1.8199999999999976 1.8199999999999994 12.0
    vertex 0.7336999999999987 1.8200000000000005 3.0
    vertex 1.8199999999999978 1.8200000000000005 3.0
  endloop
endfacet
facet normal 0.0 -1.0 0.0
  outer loop
    vertex 0.7336999999999987 1.8200000000000005 3.0
    vertex 1.8199999999999976 1.8199999999999994 12.0
    vertex 0.7336999999999985 1.8199999999999994 12.0
  endloop
endfacet
facet normal -1.0 0.0 0.0
  outer loop
    vertex 1.8199999999999976 1.8199999999999994 12.0
    vertex 1.8199999999999978 0.7200000000000021 3.0
    vertex 1.8199999999999976 0.720000000000001 12.0
  endloop
endfacet
facet normal -1.0 0.0 0.0
  outer loop
    vertex 1.8199999999999978 0.7200000000000021 3.0
    vertex 1.8199999999999976 1.8199999999999994 12.0
    vertex 1.8199999999999978 1.8200000000000005 3.0
  endloop
endfacet
facet normal -0.0 1.0 -0.0
  outer loop
    vertex 0.7336999999999985 0.720000000000001 12.0
    vertex 1.8199999999999978 0.7200000000000021 3.0
    vertex 0.7336999999999987 0.7200000000000021 3.0
  endloop
endfacet
facet normal -0.0 1.0 -0.0
  outer loop
    vertex 1.8199999999999978 0.7200000000000021 3.0
    vertex 0.7336999999999985 0.720000000000001 12.0
    vertex 1.8199999999999976 0.720000000000001 12.0
  endloop
endfacet
facet normal 1.0 -0.0 -0.0
  outer loop
    vertex 0.7336999999999987 0.7200000000000021 3.0
    vertex 0.7336999999999985 1.8199999999999994 12.0
    vertex 0.7336999999999985 0.720000000000001 12.0
  endloop
endfacet
facet normal 1.0 -0.0 -0.0
  outer loop
    vertex 0.7336999999999985 1.8199999999999994 12.0
    vertex 0.7336999999999987 0.7200000000000021 3.0
    vertex 0.7336999999999987 1.8200000000000005 3.0
  endloop
endfacet
facet normal 0.0 -1.0 0.0
  outer loop
    vertex 4.360000000000001 1.8199999999999994 12.0
    vertex 3.2736999999999994 1.8200000000000005 2.9999999999999996
    vertex 4.360000000000001 1.8200000000000005 2.9999999999999996
  endloop
endfacet
facet normal 0.0 -1.0 0.0
  outer loop
    vertex 3.2736999999999994 1.8200000000000005 2.9999999999999996
    vertex 4.360000000000001 1.8199999999999994 12.0
    vertex 3.2736999999999994 1.8199999999999994 12.0
  endloop
endfacet
facet normal -1.0 6.409014733063413e-16 0.0
  outer loop
    vertex 4.360000000000001 1.8199999999999994 12.0
    vertex 4.36 0.7200000000000021 2.9999999999999996
    vertex 4.36 0.720000000000001 12.0
  endloop
endfacet
facet normal -1.0 6.409014733063413e-16 0.0
  outer loop
    vertex 4.36 0.7200000000000021 2.9999999999999996
    vertex 4.360000000000001 1.8199999999999994 12.0
    vertex 4.360000000000001 1.8200000000000005 2.9999999999999996
  endloop
endfacet
facet normal -0.0 1.0 -0.0
  outer loop
    vertex 3.2736999999999985 0.720000000000001 12.0
    vertex 4.36 0.7200000000000021 2.9999999999999996
    vertex 3.2736999999999985 0.7200000000000021 2.9999999999999996
  endloop
endfacet
facet normal -0.0 1.0 -0.0
  outer loop
    vertex 4.36 0.7200000000000021 2.9999999999999996
    vertex 3.2736999999999985 0.720000000000001 12.0
    vertex 4.36 0.720000000000001 12.0
  endloop
endfacet
facet normal 1.0 -6.409014733063412e-16 -0.0
  outer loop
    vertex 3.2736999999999985 0.7200000000000021 2.9999999999999996
    vertex 3.2736999999999994 1.8199999999999994 12.0
    vertex 3.2736999999999985 0.720000000000001 12.0
  endloop
endfacet
facet normal 1.0 -6.409014733063412e-16 -0.0
  outer loop
    vertex 3.2736999999999994 1.8199999999999994 12.0
    vertex 3.2736999999999985 0.7200000000000021 2.9999999999999996
    vertex 3.2736999999999994 1.8200000000000005 2.9999999999999996
  endloop
endfacet
facet normal 0.0 0.0 -1.0
  outer loop
    vertex 1.8199999999999987 3.2600000000000016 3.0
    vertex 0.7336999999999987 1.8200000000000005 3.0
    vertex 0.7336999999999987 3.2600000000000016 3.0
  endloop
endfacet
facet normal 0.0 0.0 -1.0
  outer loop
    vertex 0.7336999999999987 1.8200000000000005 3.0
    vertex 1.8199999999999987 3.2600000000000016 3.0
    vertex 1.8199999999999978 1.8200000000000005 3.0
  endloop
endfacet
facet normal 0.0 0.0 -1.0
  outer loop
    vertex 1.8199999999999978 1.8200000000000005 3.0
    vertex 1.8199999999999987 3.2600000000000016 3.0
    vertex 1.8199999999999978 0.7200000000000021 3.0
  endloop
endfacet
facet normal 0.0 0.0 -1.0
  outer loop
    vertex -0.15000000000000058 4.93 3.0
    vertex 0.7336999999999987 4.360000000000002 3.0
    vertex -0.15000000000000044 -0.1499999999999999 3.0
  endloop
endfacet
facet normal 0.0 0.0 -1.0
  outer loop
    vertex 0.7336999999999987 4.360000000000002 3.0
    vertex -0.15000000000000058 4.93 3.0
    vertex 2.39 4.930000000000001 3.0
  endloop
endfacet
facet normal 0.0 0.0 -1.0
  outer loop
    vertex 0.7336999999999987 4.360000000000002 3.0
    vertex 2.39 4.930000000000001 3.0
    vertex 1.8199999999999987 4.360000000000002 3.0
  endloop
endfacet
facet normal 0.0 0.0 -1.0
  outer loop
    vertex 1.8199999999999987 4.360000000000002 3.0
    vertex 2.39 4.930000000000001 3.0
    vertex 1.8199999999999987 3.2600000000000016 3.0
  endloop
endfacet
facet normal 0.0 0.0 -1.0
  outer loop
    vertex 2.39 2.39 3.0
    vertex 3.2736999999999994 1.8200000000000005 2.9999999999999996
    vertex 3.2736999999999985 0.7200000000000021 2.9999999999999996
  endloop
endfacet
facet normal 0.0 0.0 -1.0
  outer loop
    vertex 3.2736999999999994 1.8200000000000005 2.9999999999999996
    vertex 2.39 2.39 3.0
    vertex 5.2299999999999995 2.39 3.0
  endloop
endfacet
facet normal 0.0 0.0 -1.0
  outer loop
    vertex 3.2736999999999994 1.8200000000000005 2.9999999999999996
    vertex 5.2299999999999995 2.39 3.0
    vertex 4.360000000000001 1.8200000000000005 2.9999999999999996
  endloop
endfacet
facet normal 0.0 0.0 -1.0
  outer loop
    vertex -0.15000000000000044 -0.1499999999999999 3.0
    vertex 0.7336999999999987 0.7200000000000021 3.0
    vertex 5.2299999999999995 -0.1499999999999999 3.0
  endloop
endfacet
facet normal 0.0 0.0 -1.0
  outer loop
    vertex 0.7336999999999987 0.7200000000000021 3.0
    vertex -0.15000000000000044 -0.1499999999999999 3.0
    vertex 0.7336999999999987 4.360000000000002 3.0
  endloop
endfacet
facet normal 0.0 0.0 -1.0
  outer loop
    vertex 0.7336999999999987 0.7200000000000021 3.0
    vertex 0.7336999999999987 4.360000000000002 3.0
    vertex 0.7336999999999987 3.2600000000000016 3.0
  endloop
endfacet
facet normal 0.0 0.0 -1.0
  outer loop
    vertex 0.7336999999999987 0.7200000000000021 3.0
    vertex 0.7336999999999987 3.2600000000000016 3.0
    vertex 0.7336999999999987 1.8200000000000005 3.0
  endloop
endfacet
facet normal 0.0 0.0 -1.0
  outer loop
    vertex 5.2299999999999995 -0.1499999999999999 3.0
    vertex 0.7336999999999987 0.7200000000000021 3.0
    vertex 1.8199999999999978 0.7200000000000021 3.0
  endloop
endfacet
facet normal 0.0 0.0 -1.0
  outer loop
    vertex 5.2299999999999995 -0.1499999999999999 3.0
    vertex 1.8199999999999978 0.7200000000000021 3.0
    vertex 3.2736999999999985 0.7200000000000021 2.9999999999999996
  endloop
endfacet
facet normal 0.0 0.0 -1.0
  outer loop
    vertex 3.2736999999999985 0.7200000000000021 2.9999999999999996
    vertex 1.8199999999999978 0.7200000000000021 3.0
    vertex 1.8199999999999987 3.2600000000000016 3.0
  endloop
endfacet
facet normal 0.0 0.0 -1.0
  outer loop
    vertex 3.2736999999999985 0.7200000000000021 2.9999999999999996
    vertex 1.8199999999999987 3.2600000000000016 3.0
    vertex 2.39 2.39 3.0
  endloop
endfacet
facet normal 0.0 0.0 -1.0
  outer loop
    vertex 2.39 2.39 3.0
    vertex 1.8199999999999987 3.2600000000000016 3.0
    vertex 2.39 4.930000000000001 3.0
  endloop
endfacet
facet normal 0.0 0.0 -1.0
  outer loop
    vertex 5.2299999999999995 -0.1499999999999999 3.0
    vertex 3.2736999999999985 0.7200000000000021 2.9999999999999996
    vertex 4.36 0.7200000000000021 2.9999999999999996
  endloop
endfacet
facet normal 0.0 0.0 -1.0
  outer loop
    vertex 5.2299999999999995 -0.1499999999999999 3.0
    vertex 4.36 0.7200000000000021 2.9999999999999996
    vertex 4.360000000000001 1.8200000000000005 2.9999999999999996
  endloop
endfacet
facet normal 0.0 0.0 -1.0
  outer loop
    vertex 5.2299999999999995 -0.1499999999999999 3.0
    vertex 4.360000000000001 1.8200000000000005 2.9999999999999996
    vertex 5.2299999999999995 2.39 3.0
  endloop
endfacet
facet normal 1.0 3.035766082959413e-17 0.0
  outer loop
    vertex -0.15000000000000058 4.93 0.0
    vertex -0.15000000000000044 -0.1499999999999999 3.0
    vertex -0.15000000000000044 -0.1499999999999999 0.0
  endloop
endfacet
facet normal 1.0 3.035766082959413e-17 0.0
  outer loop
    vertex -0.15000000000000044 -0.1499999999999999 3.0
    vertex -0.15000000000000058 4.93 0.0
    vertex -0.15000000000000058 4.93 3.0
  endloop
endfacet
facet normal -1.0 -0.0 -0.0
  outer loop
    vertex 5.2299999999999995 2.39 3.0
    vertex 5.2299999999999995 -0.1499999999999999 0.0
    vertex 5.2299999999999995 -0.1499999999999999 3.0
  endloop
endfacet
facet normal -1.0 -0.0 -0.0
  outer loop
    vertex 5.2299999999999995 -0.1499999999999999 0.0
    vertex 5.2299999999999995 2.39 3.0
    vertex 5.2299999999999995 2.39 0.0
  endloop
endfacet
facet normal 0.0 1.0 0.0
  outer loop
    vertex -0.15000000000000044 -0.1499999999999999 3.0
    vertex 5.2299999999999995 -0.1499999999999999 0.0
    vertex -0.15000000000000044 -0.1499999999999999 0.0
  endloop
endfacet
facet normal 0.0 1.0 0.0
  outer loop
    vertex 5.2299999999999995 -0.1499999999999999 0.0
    vertex -0.15000000000000044 -0.1499999999999999 3.0
    vertex 5.2299999999999995 -0.1499999999999999 3.0
  endloop
endfacet
facet normal 0.0 0.0 -1.0
  outer loop
    vertex 2.6899999999999995 7.470000000000001 3.0
    vertex 3.2735842805636 6.899999999999993 3.0
    vertex 2.6899999999999995 5.2299999999999995 3.0
  endloop
endfacet
facet normal 0.0 0.0 -1.0
  outer loop
    vertex 3.2735842805636 6.899999999999993 3.0
    vertex 2.6899999999999995 7.470000000000001 3.0
    vertex 5.2299999999999995 7.470000000000001 3.0
  endloop
endfacet
facet normal 0.0 0.0 -1.0
  outer loop
    vertex 2.6899999999999995 5.2299999999999995 3.0
    vertex 3.2735842805636 6.899999999999993 3.0
    vertex 3.273584280563599 5.800000000000006 3.0
  endloop
endfacet
facet normal 0.0 0.0 -1.0
  outer loop
    vertex 3.2735842805636 6.899999999999993 3.0
    vertex 5.2299999999999995 7.470000000000001 3.0
    vertex 4.359884280563597 6.899999999999993 3.0
  endloop
endfacet
facet normal 0.0 0.0 -1.0
  outer loop
    vertex 3.273584280563599 5.800000000000006 3.0
    vertex 5.2299999999999995 5.2299999999999995 3.0
    vertex 2.6899999999999995 5.2299999999999995 3.0
  endloop
endfacet
facet normal 0.0 0.0 -1.0
  outer loop
    vertex 5.2299999999999995 5.2299999999999995 3.0
    vertex 3.273584280563599 5.800000000000006 3.0
    vertex 4.3598842805635964 5.800000000000006 3.0
  endloop
endfacet
facet normal 0.0 0.0 -1.0
  outer loop
    vertex 5.2299999999999995 5.2299999999999995 3.0
    vertex 4.3598842805635964 5.800000000000006 3.0
    vertex 4.359884280563597 6.899999999999993 3.0
  endloop
endfacet
facet normal 0.0 0.0 -1.0
  outer loop
    vertex 5.2299999999999995 5.2299999999999995 3.0
    vertex 4.359884280563597 6.899999999999993 3.0
    vertex 5.2299999999999995 7.470000000000001 3.0
  endloop
endfacet
facet normal -1.0 -0.0 -0.0
  outer loop
    vertex 5.2299999999999995 7.470000000000001 3.0
    vertex 5.2299999999999995 5.2299999999999995 0.0
    vertex 5.2299999999999995 5.2299999999999995 3.0
  endloop
endfacet
facet normal -1.0 -0.0 -0.0
  outer loop
    vertex 5.2299999999999995 5.2299999999999995 0.0
    vertex 5.2299999999999995 7.470000000000001 3.0
    vertex 5.2299999999999995 7.470000000000001 0.0
  endloop
endfacet
facet normal 0.0 0.0 -1.0
  outer loop
    vertex 0.733699999999999 11.979999999999995 3.0
    vertex 0.7337000000000019 13.419999999999998 3.0
    vertex 1.8199999999999987 11.979999999999995 3.0
  endloop
endfacet
facet normal 0.0 0.0 -1.0
  outer loop
    vertex 0.7337000000000019 13.419999999999998 3.0
    vertex 0.733699999999999 11.979999999999995 3.0
    vertex 0.7337000000000008 15.959999999999997 3.0
  endloop
endfacet
facet normal 0.0 0.0 -1.0
  outer loop
    vertex 0.7337000000000008 15.959999999999997 3.0
    vertex 0.733699999999999 11.979999999999995 3.0
    vertex 0.7337000000000008 17.05999999999999 3.0
  endloop
endfacet
facet normal 0.0 0.0 -1.0
  outer loop
    vertex 0.7337000000000019 13.419999999999998 3.0
    vertex 0.7337000000000008 15.959999999999997 3.0
    vertex 0.7337000000000019 14.519999999999994 3.0
  endloop
endfacet
facet normal 0.0 0.0 -1.0
  outer loop
    vertex 1.8199999999999987 11.979999999999995 3.0
    vertex 0.7337000000000019 13.419999999999998 3.0
    vertex 1.8200000000000014 13.419999999999998 3.0
  endloop
endfacet
facet normal 0.0 0.0 -1.0
  outer loop
    vertex 1.8199999999999987 11.979999999999995 3.0
    vertex 1.8200000000000014 13.419999999999998 3.0
    vertex 1.8199999999999987 10.880000000000004 3.0
  endloop
endfacet
facet normal 0.0 0.0 -1.0
  outer loop
    vertex 0.7337000000000008 17.05999999999999 3.0
    vertex 0.7337000000000016 18.499999999999996 3.0
    vertex 1.82 17.05999999999999 3.0
  endloop
endfacet
facet normal 0.0 0.0 -1.0
  outer loop
    vertex 0.7337000000000016 18.499999999999996 3.0
    vertex 0.7337000000000008 17.05999999999999 3.0
    vertex 0.7337000000000016 19.59999999999999 3.0
  endloop
endfacet
facet normal 0.0 0.0 -1.0
  outer loop
    vertex 1.82 17.05999999999999 3.0
    vertex 0.7337000000000016 18.499999999999996 3.0
    vertex 1.820000000000002 18.499999999999996 3.0
  endloop
endfacet
facet normal 0.0 0.0 -1.0
  outer loop
    vertex 1.82 17.05999999999999 3.0
    vertex 1.820000000000002 18.499999999999996 3.0
    vertex 1.82 15.959999999999997 3.0
  endloop
endfacet
facet normal 0.0 0.0 -1.0
  outer loop
    vertex 1.82 15.959999999999997 3.0
    vertex 1.820000000000002 18.499999999999996 3.0
    vertex 1.8200000000000014 14.519999999999994 3.0
  endloop
endfacet
facet normal 0.0 0.0 -1.0
  outer loop
    vertex 1.8200000000000014 14.519999999999994 3.0
    vertex 1.820000000000002 18.499999999999996 3.0
    vertex 1.8200000000000014 13.419999999999998 3.0
  endloop
endfacet
facet normal 0.0 0.0 -1.0
  outer loop
    vertex 1.8199999999999987 10.880000000000004 3.0
    vertex 0.7337000000000001 9.439999999999998 3.0
    vertex 0.733699999999999 10.880000000000004 3.0
  endloop
endfacet
facet normal 0.0 0.0 -1.0
  outer loop
    vertex 0.7337000000000001 9.439999999999998 3.0
    vertex 1.8199999999999987 10.880000000000004 3.0
    vertex 1.820000000000002 9.439999999999998 3.0
  endloop
endfacet
facet normal 0.0 0.0 -1.0
  outer loop
    vertex 1.820000000000002 9.439999999999998 3.0
    vertex 1.8199999999999987 10.880000000000004 3.0
    vertex 1.8200000000000014 13.419999999999998 3.0
  endloop
endfacet
facet normal 0.0 0.0 -1.0
  outer loop
    vertex 1.820000000000002 9.439999999999998 3.0
    vertex 1.8200000000000014 13.419999999999998 3.0
    vertex 1.820000000000002 18.499999999999996 3.0
  endloop
endfacet
facet normal 0.0 0.0 -1.0
  outer loop
    vertex 1.820000000000002 9.439999999999998 3.0
    vertex 1.820000000000002 18.499999999999996 3.0
    vertex 1.8200000000000025 19.59999999999999 3.0
  endloop
endfacet
facet normal 0.0 0.0 -1.0
  outer loop
    vertex 1.820000000000002 9.439999999999998 3.0
    vertex 1.8200000000000025 19.59999999999999 3.0
    vertex 1.820000000000002 8.340000000000005 3.0
  endloop
endfacet
facet normal 0.0 0.0 -1.0
  outer loop
    vertex -0.15000000000000097 7.7700000000000005 3.0
    vertex 0.7337000000000001 8.340000000000005 3.0
    vertex 2.3899999999999997 7.7700000000000005 3.0
  endloop
endfacet
facet normal 0.0 0.0 -1.0
  outer loop
    vertex 0.7337000000000001 8.340000000000005 3.0
    vertex -0.15000000000000097 7.7700000000000005 3.0
    vertex 0.733699999999999 10.880000000000004 3.0
  endloop
endfacet
facet normal 0.0 0.0 -1.0
  outer loop
    vertex 0.733699999999999 10.880000000000004 3.0
    vertex -0.15000000000000097 7.7700000000000005 3.0
    vertex 0.733699999999999 22.13999999999999 3.0
  endloop
endfacet
facet normal 0.0 0.0 -1.0
  outer loop
    vertex 0.733699999999999 10.880000000000004 3.0
    vertex 0.733699999999999 22.13999999999999 3.0
    vertex 0.733699999999999 21.04 3.0
  endloop
endfacet
facet normal 0.0 0.0 -1.0
  outer loop
    vertex 0.733699999999999 10.880000000000004 3.0
    vertex 0.733699999999999 21.04 3.0
    vertex 0.733699999999999 11.979999999999995 3.0
  endloop
endfacet
facet normal 0.0 0.0 -1.0
  outer loop
    vertex 0.7337000000000001 8.340000000000005 3.0
    vertex 0.733699999999999 10.880000000000004 3.0
    vertex 0.7337000000000001 9.439999999999998 3.0
  endloop
endfacet
facet normal 0.0 0.0 -1.0
  outer loop
    vertex 2.3899999999999997 7.7700000000000005 3.0
    vertex 0.7337000000000001 8.340000000000005 3.0
    vertex 1.820000000000002 8.340000000000005 3.0
  endloop
endfacet
facet normal 0.0 0.0 -1.0
  outer loop
    vertex 2.3899999999999997 7.7700000000000005 3.0
    vertex 1.820000000000002 8.340000000000005 3.0
    vertex 1.8200000000000025 19.59999999999999 3.0
  endloop
endfacet
facet normal 0.0 0.0 -1.0
  outer loop
    vertex 0.733699999999999 21.04 3.0
    vertex 0.7337000000000016 19.59999999999999 3.0
    vertex 0.733699999999999 11.979999999999995 3.0
  endloop
endfacet
facet normal 0.0 0.0 -1.0
  outer loop
    vertex 0.7337000000000016 19.59999999999999 3.0
    vertex 0.733699999999999 21.04 3.0
    vertex 1.82 21.04 3.0
  endloop
endfacet
facet normal 0.0 0.0 -1.0
  outer loop
    vertex 0.733699999999999 11.979999999999995 3.0
    vertex 0.7337000000000016 19.59999999999999 3.0
    vertex 0.7337000000000008 17.05999999999999 3.0
  endloop
endfacet
facet normal 0.0 0.0 -1.0
  outer loop
    vertex 0.7337000000000016 19.59999999999999 3.0
    vertex 1.82 21.04 3.0
    vertex 1.8200000000000025 19.59999999999999 3.0
  endloop
endfacet
facet normal 0.0 0.0 -1.0
  outer loop
    vertex 1.8200000000000025 19.59999999999999 3.0
    vertex 1.82 21.04 3.0
    vertex 1.8200000000000005 22.13999999999999 3.0
  endloop
endfacet
facet normal 0.0 0.0 -1.0
  outer loop
    vertex 1.82 15.959999999999997 3.0
    vertex 0.7337000000000019 14.519999999999994 3.0
    vertex 0.7337000000000008 15.959999999999997 3.0
  endloop
endfacet
facet normal 0.0 0.0 -1.0
  outer loop
    vertex 0.7337000000000019 14.519999999999994 3.0
    vertex 1.82 15.959999999999997 3.0
    vertex 1.8200000000000014 14.519999999999994 3.0
  endloop
endfacet
facet normal 0.0 0.0 -1.0
  outer loop
    vertex 3.2735842805636 11.979999999999986 3.0
    vertex 3.2736999999999985 13.420000000000003 3.0
    vertex 4.3598842805636 11.979999999999986 3.0
  endloop
endfacet
facet normal 0.0 0.0 -1.0
  outer loop
    vertex 3.2736999999999985 13.420000000000003 3.0
    vertex 3.2735842805636 11.979999999999986 3.0
    vertex 3.2736999999999985 23.579999999999995 3.0
  endloop
endfacet
facet normal 0.0 0.0 -1.0
  outer loop
    vertex 3.2736999999999985 13.420000000000003 3.0
    vertex 3.2736999999999985 23.579999999999995 3.0
    vertex 3.2736999999999985 21.039999999999996 3.0
  endloop
endfacet
facet normal 0.0 0.0 -1.0
  outer loop
    vertex 3.2736999999999985 13.420000000000003 3.0
    vertex 3.2736999999999985 21.039999999999996 3.0
    vertex 3.2736999999999985 15.959999999999997 3.0
  endloop
endfacet
facet normal 0.0 0.0 -1.0
  outer loop
    vertex 4.3598842805636 11.979999999999986 3.0
    vertex 3.2736999999999985 13.420000000000003 3.0
    vertex 4.359999999999999 13.420000000000003 3.0
  endloop
endfacet
facet normal 0.0 0.0 -1.0
  outer loop
    vertex 4.3598842805636 11.979999999999986 3.0
    vertex 4.359999999999999 13.420000000000003 3.0
    vertex 4.3598842805636 10.880000000000004 3.0
  endloop
endfacet
facet normal 0.0 0.0 -1.0
  outer loop
    vertex 3.2736999999999985 23.579999999999995 3.0
    vertex 3.2736999999999994 22.13999999999999 3.0
    vertex 3.2736999999999985 21.039999999999996 3.0
  endloop
endfacet
facet normal 0.0 0.0 -1.0
  outer loop
    vertex 3.2736999999999994 22.13999999999999 3.0
    vertex 3.2736999999999985 23.579999999999995 3.0
    vertex 4.359999999999999 23.579999999999995 3.0
  endloop
endfacet
facet normal 0.0 0.0 -1.0
  outer loop
    vertex 3.2736999999999994 22.13999999999999 3.0
    vertex 4.359999999999999 23.579999999999995 3.0
    vertex 4.3599999999999985 22.13999999999999 3.0
  endloop
endfacet
facet normal 0.0 0.0 -1.0
  outer loop
    vertex 3.293520422227878 18.500000000000004 3.0
    vertex 4.3599999999999985 17.05999999999999 3.0
    vertex 3.2736999999999994 17.05999999999999 3.0
  endloop
endfacet
facet normal 0.0 0.0 -1.0
  outer loop
    vertex 4.3599999999999985 17.05999999999999 3.0
    vertex 3.293520422227878 18.500000000000004 3.0
    vertex 4.379820422227879 18.500000000000004 3.0
  endloop
endfacet
facet normal 0.0 0.0 -1.0
  outer loop
    vertex 4.3599999999999985 17.05999999999999 3.0
    vertex 4.379820422227879 18.500000000000004 3.0
    vertex 4.359999999999999 14.519999999999996 3.0
  endloop
endfacet
facet normal 0.0 0.0 -1.0
  outer loop
    vertex 4.359999999999999 14.519999999999996 3.0
    vertex 4.379820422227879 18.500000000000004 3.0
    vertex 4.359999999999999 13.420000000000003 3.0
  endloop
endfacet
facet normal 0.0 0.0 -1.0
  outer loop
    vertex 2.6900000000000004 25.549999999999997 3.0
    vertex 3.2735842805636 11.979999999999986 3.0
    vertex 3.273584280563599 10.880000000000004 3.0
  endloop
endfacet
facet normal 0.0 0.0 -1.0
  outer loop
    vertex 3.2735842805636 11.979999999999986 3.0
    vertex 2.6900000000000004 25.549999999999997 3.0
    vertex 3.2736999999999994 24.679999999999993 3.0
  endloop
endfacet
facet normal 0.0 0.0 -1.0
  outer loop
    vertex 3.2736999999999994 24.679999999999993 3.0
    vertex 2.6900000000000004 25.549999999999997 3.0
    vertex 5.2299999999999995 25.549999999999997 3.0
  endloop
endfacet
facet normal 0.0 0.0 -1.0
  outer loop
    vertex 3.2735842805636 11.979999999999986 3.0
    vertex 3.2736999999999994 24.679999999999993 3.0
    vertex 3.2736999999999985 23.579999999999995 3.0
  endloop
endfacet
facet normal 0.0 0.0 -1.0
  outer loop
    vertex 3.2736999999999994 24.679999999999993 3.0
    vertex 5.2299999999999995 25.549999999999997 3.0
    vertex 4.359999999999999 24.679999999999993 3.0
  endloop
endfacet
facet normal 0.0 0.0 -1.0
  outer loop
    vertex 4.359999999999999 24.679999999999993 3.0
    vertex 5.2299999999999995 25.549999999999997 3.0
    vertex 4.359999999999999 23.579999999999995 3.0
  endloop
endfacet
facet normal 0.0 0.0 -1.0
  outer loop
    vertex 4.359999999999999 23.579999999999995 3.0
    vertex 5.2299999999999995 25.549999999999997 3.0
    vertex 4.379820422227879 19.59999999999999 3.0
  endloop
endfacet
facet normal 0.0 0.0 -1.0
  outer loop
    vertex 4.379820422227879 19.59999999999999 3.0
    vertex 5.2299999999999995 25.549999999999997 3.0
    vertex 4.379820422227879 18.500000000000004 3.0
  endloop
endfacet
facet normal 0.0 0.0 -1.0
  outer loop
    vertex -0.15000000000000183 22.709999999999997 3.0
    vertex 0.733699999999999 22.13999999999999 3.0
    vertex -0.15000000000000097 7.7700000000000005 3.0
  endloop
endfacet
facet normal 0.0 0.0 -1.0
  outer loop
    vertex 0.733699999999999 22.13999999999999 3.0
    vertex -0.15000000000000183 22.709999999999997 3.0
    vertex 2.6899999999999995 22.709999999999997 3.0
  endloop
endfacet
facet normal 0.0 0.0 -1.0
  outer loop
    vertex 0.733699999999999 22.13999999999999 3.0
    vertex 2.6899999999999995 22.709999999999997 3.0
    vertex 1.8200000000000005 22.13999999999999 3.0
  endloop
endfacet
facet normal 0.0 0.0 -1.0
  outer loop
    vertex 1.8200000000000005 22.13999999999999 3.0
    vertex 2.6899999999999995 22.709999999999997 3.0
    vertex 1.8200000000000025 19.59999999999999 3.0
  endloop
endfacet
facet normal 0.0 0.0 -1.0
  outer loop
    vertex 1.8200000000000025 19.59999999999999 3.0
    vertex 2.6899999999999995 22.709999999999997 3.0
    vertex 2.39 10.31 3.0
  endloop
endfacet
facet normal 0.0 0.0 -1.0
  outer loop
    vertex 1.8200000000000025 19.59999999999999 3.0
    vertex 2.39 10.31 3.0
    vertex 2.3899999999999997 7.7700000000000005 3.0
  endloop
endfacet
facet normal 0.0 0.0 -1.0
  outer loop
    vertex 2.39 10.31 3.0
    vertex 2.6899999999999995 22.709999999999997 3.0
    vertex 3.273584280563599 10.880000000000004 3.0
  endloop
endfacet
facet normal 0.0 0.0 -1.0
  outer loop
    vertex 2.39 10.31 3.0
    vertex 3.273584280563599 10.880000000000004 3.0
    vertex 5.2299999999999995 10.310000000000002 3.0
  endloop
endfacet
facet normal 0.0 0.0 -1.0
  outer loop
    vertex 3.273584280563599 10.880000000000004 3.0
    vertex 2.6899999999999995 22.709999999999997 3.0
    vertex 2.6900000000000004 25.549999999999997 3.0
  endloop
endfacet
facet normal 0.0 0.0 -1.0
  outer loop
    vertex 5.2299999999999995 10.310000000000002 3.0
    vertex 3.273584280563599 10.880000000000004 3.0
    vertex 4.3598842805636 10.880000000000004 3.0
  endloop
endfacet
facet normal 0.0 0.0 -1.0
  outer loop
    vertex 5.2299999999999995 10.310000000000002 3.0
    vertex 4.3598842805636 10.880000000000004 3.0
    vertex 4.359999999999999 13.420000000000003 3.0
  endloop
endfacet
facet normal 0.0 0.0 -1.0
  outer loop
    vertex 5.2299999999999995 10.310000000000002 3.0
    vertex 4.359999999999999 13.420000000000003 3.0
    vertex 4.379820422227879 18.500000000000004 3.0
  endloop
endfacet
facet normal 0.0 0.0 -1.0
  outer loop
    vertex 5.2299999999999995 10.310000000000002 3.0
    vertex 4.379820422227879 18.500000000000004 3.0
    vertex 5.2299999999999995 25.549999999999997 3.0
  endloop
endfacet
facet normal 0.0 0.0 -1.0
  outer loop
    vertex 3.2736999999999985 21.039999999999996 3.0
    vertex 3.2736999999999994 17.05999999999999 3.0
    vertex 3.2736999999999985 15.959999999999997 3.0
  endloop
endfacet
facet normal 0.0 0.0 -1.0
  outer loop
    vertex 3.2736999999999994 17.05999999999999 3.0
    vertex 3.2736999999999985 21.039999999999996 3.0
    vertex 3.293520422227879 19.59999999999999 3.0
  endloop
endfacet
facet normal 0.0 0.0 -1.0
  outer loop
    vertex 3.293520422227879 19.59999999999999 3.0
    vertex 3.2736999999999985 21.039999999999996 3.0
    vertex 4.359999999999998 21.039999999999996 3.0
  endloop
endfacet
facet normal 0.0 0.0 -1.0
  outer loop
    vertex 3.2736999999999994 17.05999999999999 3.0
    vertex 3.293520422227879 19.59999999999999 3.0
    vertex 3.293520422227878 18.500000000000004 3.0
  endloop
endfacet
facet normal 0.0 0.0 -1.0
  outer loop
    vertex 3.293520422227879 19.59999999999999 3.0
    vertex 4.359999999999998 21.039999999999996 3.0
    vertex 4.379820422227879 19.59999999999999 3.0
  endloop
endfacet
facet normal 0.0 0.0 -1.0
  outer loop
    vertex 4.379820422227879 19.59999999999999 3.0
    vertex 4.359999999999998 21.039999999999996 3.0
    vertex 4.3599999999999985 22.13999999999999 3.0
  endloop
endfacet
facet normal 0.0 0.0 -1.0
  outer loop
    vertex 4.379820422227879 19.59999999999999 3.0
    vertex 4.3599999999999985 22.13999999999999 3.0
    vertex 4.359999999999999 23.579999999999995 3.0
  endloop
endfacet
facet normal 0.0 0.0 -1.0
  outer loop
    vertex 3.2736999999999985 15.959999999999997 3.0
    vertex 3.2736999999999994 14.519999999999996 3.0
    vertex 3.2736999999999985 13.420000000000003 3.0
  endloop
endfacet
facet normal 0.0 0.0 -1.0
  outer loop
    vertex 3.2736999999999994 14.519999999999996 3.0
    vertex 3.2736999999999985 15.959999999999997 3.0
    vertex 4.359999999999998 15.959999999999997 3.0
  endloop
endfacet
facet normal 0.0 0.0 -1.0
  outer loop
    vertex 3.2736999999999994 14.519999999999996 3.0
    vertex 4.359999999999998 15.959999999999997 3.0
    vertex 4.359999999999999 14.519999999999996 3.0
  endloop
endfacet
facet normal 0.0 0.0 -1.0
  outer loop
    vertex 4.359999999999999 14.519999999999996 3.0
    vertex 4.359999999999998 15.959999999999997 3.0
    vertex 4.3599999999999985 17.05999999999999 3.0
  endloop
endfacet
facet normal -1.0 -0.0 -0.0
  outer loop
    vertex 5.2299999999999995 25.549999999999997 3.0
    vertex 5.2299999999999995 10.310000000000002 0.0
    vertex 5.2299999999999995 10.310000000000002 3.0
  endloop
endfacet
facet normal -1.0 -0.0 -0.0
  outer loop
    vertex 5.2299999999999995 10.310000000000002 0.0
    vertex 5.2299999999999995 25.549999999999997 3.0
    vertex 5.2299999999999995 25.549999999999997 0.0
  endloop
endfacet
facet normal 1.0 5.898524269050991e-17 0.0
  outer loop
    vertex -0.15000000000000183 22.709999999999997 0.0
    vertex -0.15000000000000097 7.7700000000000005 3.0
    vertex -0.15000000000000097 7.7700000000000005 0.0
  endloop
endfacet
facet normal 1.0 5.898524269050991e-17 0.0
  outer loop
    vertex -0.15000000000000097 7.7700000000000005 3.0
    vertex -0.15000000000000183 22.709999999999997 0.0
    vertex -0.15000000000000183 22.709999999999997 3.0
  endloop
endfacet
facet normal 0.0 -1.0 -0.0
  outer loop
    vertex 5.2299999999999995 25.549999999999997 3.0
    vertex 2.6900000000000004 25.549999999999997 0.0
    vertex 5.2299999999999995 25.549999999999997 0.0
  endloop
endfacet
facet normal 0.0 -1.0 -0.0
  outer loop
    vertex 2.6900000000000004 25.549999999999997 0.0
    vertex 5.2299999999999995 25.549999999999997 3.0
    vertex 2.6900000000000004 25.549999999999997 3.0
  endloop
endfacet
facet normal 1.0096564889806337e-15 -1.0 -2.5605341412753233e-17
  outer loop
    vertex 5.2299999999999995 10.310000000000002 11.999999999999998
    vertex 2.39 10.31 3.0
    vertex 5.2299999999999995 10.310000000000002 3.0
  endloop
endfacet
facet normal 1.0096564889806337e-15 -1.0 -2.5605341412753233e-17
  outer loop
    vertex 2.39 10.31 3.0
    vertex 5.2299999999999995 10.310000000000002 11.999999999999998
    vertex 2.3899999999999997 10.31 14.000000000000002
  endloop
endfacet
facet normal 1.0096564889806337e-15 -1.0 -2.5605341412753233e-17
  outer loop
    vertex 2.3899999999999997 10.31 14.000000000000002
    vertex 5.2299999999999995 10.310000000000002 11.999999999999998
    vertex 5.2299999999999995 10.310000000000002 14.000000000000002
  endloop
endfacet
facet normal -1.0 0.0 0.0
  outer loop
    vertex 5.2299999999999995 10.310000000000002 14.000000000000002
    vertex 5.2299999999999995 7.470000000000001 11.999999999999998
    vertex 5.2299999999999995 7.470000000000001 14.000000000000002
  endloop
endfacet
facet normal -1.0 0.0 0.0
  outer loop
    vertex 5.2299999999999995 7.470000000000001 11.999999999999998
    vertex 5.2299999999999995 10.310000000000002 14.000000000000002
    vertex 5.2299999999999995 7.470000000000001 3.0
  endloop
endfacet
facet normal -1.0 0.0 0.0
  outer loop
    vertex 5.2299999999999995 7.470000000000001 3.0
    vertex 5.2299999999999995 10.310000000000002 14.000000000000002
    vertex 5.2299999999999995 7.470000000000001 0.0
  endloop
endfacet
facet normal -1.0 0.0 0.0
  outer loop
    vertex 5.2299999999999995 7.470000000000001 0.0
    vertex 5.2299999999999995 10.310000000000002 14.000000000000002
    vertex 5.2299999999999995 10.310000000000002 0.0
  endloop
endfacet
facet normal -1.0 0.0 0.0
  outer loop
    vertex 5.2299999999999995 10.310000000000002 0.0
    vertex 5.2299999999999995 10.310000000000002 14.000000000000002
    vertex 5.2299999999999995 10.310000000000002 11.999999999999998
  endloop
endfacet
facet normal -1.0 0.0 0.0
  outer loop
    vertex 5.2299999999999995 10.310000000000002 0.0
    vertex 5.2299999999999995 10.310000000000002 11.999999999999998
    vertex 5.2299999999999995 10.310000000000002 3.0
  endloop
endfacet
facet normal -1.0 0.0 0.0
  outer loop
    vertex 5.2299999999999995 5.2299999999999995 14.000000000000002
    vertex 5.2299999999999995 2.3899999999999992 11.999999999999998
    vertex 5.2299999999999995 2.3899999999999992 14.000000000000002
  endloop
endfacet
facet normal -1.0 0.0 0.0
  outer loop
    vertex 5.2299999999999995 2.3899999999999992 11.999999999999998
    vertex 5.2299999999999995 5.2299999999999995 14.000000000000002
    vertex 5.2299999999999995 2.39 3.0
  endloop
endfacet
facet normal -1.0 0.0 0.0
  outer loop
    vertex 5.2299999999999995 2.39 3.0
    vertex 5.2299999999999995 5.2299999999999995 14.000000000000002
    vertex 5.2299999999999995 2.39 0.0
  endloop
endfacet
facet normal -1.0 0.0 0.0
  outer loop
    vertex 5.2299999999999995 2.39 0.0
    vertex 5.2299999999999995 5.2299999999999995 14.000000000000002
    vertex 5.2299999999999995 5.2299999999999995 0.0
  endloop
endfacet
facet normal -1.0 0.0 0.0
  outer loop
    vertex 5.2299999999999995 5.2299999999999995 0.0
    vertex 5.2299999999999995 5.2299999999999995 14.000000000000002
    vertex 5.2299999999999995 5.2299999999999995 11.999999999999998
  endloop
endfacet
facet normal -1.0 0.0 0.0
  outer loop
    vertex 5.2299999999999995 5.2299999999999995 0.0
    vertex 5.2299999999999995 5.2299999999999995 11.999999999999998
    vertex 5.2299999999999995 5.2299999999999995 3.0
  endloop
endfacet
facet normal -0.0 -0.0 1.0
  outer loop
    vertex 5.2299999999999995 5.2299999999999995 14.000000000000002
    vertex 2.6899999999999995 7.470000000000001 14.000000000000002
    vertex 2.6899999999999995 5.2299999999999995 14.000000000000002
  endloop
endfacet
facet normal -0.0 -0.0 1.0
  outer loop
    vertex 2.6899999999999995 7.470000000000001 14.000000000000002
    vertex 5.2299999999999995 5.2299999999999995 14.000000000000002
    vertex 5.2299999999999995 7.470000000000001 14.000000000000002
  endloop
endfacet
facet normal -1.3807981886502053e-16 -5.937086270346906e-16 1.0
  outer loop
    vertex 5.2299999999999995 -0.1499999999999999 14.0
    vertex 2.3899999999999997 2.389999999999999 14.000000000000002
    vertex -0.15000000000000044 -0.1499999999999999 14.0
  endloop
endfacet
facet normal -1.3807981886502053e-16 -5.937086270346906e-16 1.0
  outer loop
    vertex 2.3899999999999997 2.389999999999999 14.000000000000002
    vertex 5.2299999999999995 -0.1499999999999999 14.0
    vertex 5.2299999999999995 2.3899999999999992 14.000000000000002
  endloop
endfacet
facet normal -1.3807981886502053e-16 -5.937086270346906e-16 1.0
  outer loop
    vertex -0.15000000000000044 -0.1499999999999999 14.0
    vertex 2.3899999999999997 4.929999999999999 14.000000000000002
    vertex -0.15000000000000088 4.929999999999998 14.000000000000002
  endloop
endfacet
facet normal -1.3807981886502053e-16 -5.937086270346906e-16 1.0
  outer loop
    vertex 2.3899999999999997 4.929999999999999 14.000000000000002
    vertex -0.15000000000000044 -0.1499999999999999 14.0
    vertex 2.3899999999999997 2.389999999999999 14.000000000000002
  endloop
endfacet
facet normal 1.0 -9.551337870874572e-18 1.651742511392067e-18
  outer loop
    vertex -0.15000000000000183 25.549999999999997 0.0
    vertex -0.15000000000000183 22.709999999999997 3.0
    vertex -0.15000000000000183 22.709999999999997 0.0
  endloop
endfacet
facet normal 1.0 -9.551337870874572e-18 1.651742511392067e-18
  outer loop
    vertex -0.15000000000000183 22.709999999999997 3.0
    vertex -0.15000000000000183 25.549999999999997 0.0
    vertex -0.15000000000000202 22.709999999999997 12.0
  endloop
endfacet
facet normal 1.0 -9.551337870874572e-18 1.651742511392067e-18
  outer loop
    vertex -0.15000000000000202 22.709999999999997 12.0
    vertex -0.15000000000000183 25.549999999999997 0.0
    vertex -0.15000000000000177 22.709999999999997 14.0
  endloop
endfacet
facet normal 1.0 -9.551337870874572e-18 1.651742511392067e-18
  outer loop
    vertex -0.15000000000000177 22.709999999999997 14.0
    vertex -0.15000000000000183 25.549999999999997 0.0
    vertex -0.15000000000000183 25.549999999999997 14.0
  endloop
endfacet
facet normal 0.0 -1.0 0.0
  outer loop
    vertex 2.6900000000000004 25.549999999999997 3.0
    vertex -0.15000000000000183 25.549999999999997 0.0
    vertex 2.6900000000000004 25.549999999999997 0.0
  endloop
endfacet
facet normal 0.0 -1.0 0.0
  outer loop
    vertex -0.15000000000000183 25.549999999999997 0.0
    vertex 2.6900000000000004 25.549999999999997 3.0
    vertex -0.15000000000000183 25.549999999999997 14.0
  endloop
endfacet
facet normal 0.0 -1.0 0.0
  outer loop
    vertex -0.15000000000000183 25.549999999999997 14.0
    vertex 2.6900000000000004 25.549999999999997 3.0
    vertex 2.69 25.549999999999997 12.0
  endloop
endfacet
facet normal 0.0 -1.0 0.0
  outer loop
    vertex -0.15000000000000183 25.549999999999997 14.0
    vertex 2.69 25.549999999999997 12.0
    vertex 2.6900000000000004 25.549999999999997 14.0
  endloop
endfacet
facet normal -0.0 1.0 -0.0
  outer loop
    vertex 3.5399999999999996 18.21 14.000000000000002
    vertex 5.2299999999999995 18.21 12.999999999999998
    vertex 3.5399999999999996 18.21 12.999999999999998
  endloop
endfacet
facet normal -0.0 1.0 -0.0
  outer loop
    vertex 5.2299999999999995 18.21 12.999999999999998
    vertex 3.5399999999999996 18.21 14.000000000000002
    vertex 5.2299999999999995 18.21 14.000000000000002
  endloop
endfacet
facet normal -0.8298094434344625 -0.5580468507096762 0.0
  outer loop
    vertex 2.54 22.209999999999997 14.000000000000002
    vertex 5.2299999999999995 18.21 12.999999999999998
    vertex 5.2299999999999995 18.21 14.000000000000002
  endloop
endfacet
facet normal -0.8298094434344625 -0.5580468507096762 0.0
  outer loop
    vertex 5.2299999999999995 18.21 12.999999999999998
    vertex 2.54 22.209999999999997 14.000000000000002
    vertex 2.54 22.209999999999997 12.999999999999998
  endloop
endfacet
facet normal 0.8298094434344624 -0.5580468507096764 -0.0
  outer loop
    vertex 2.54 22.209999999999997 12.999999999999998
    vertex -0.1500000000000006 18.21 14.000000000000002
    vertex -0.1500000000000006 18.21 12.999999999999998
  endloop
endfacet
facet normal 0.8298094434344624 -0.5580468507096764 -0.0
  outer loop
    vertex -0.1500000000000006 18.21 14.000000000000002
    vertex 2.54 22.209999999999997 12.999999999999998
    vertex 2.54 22.209999999999997 14.000000000000002
  endloop
endfacet
facet normal -0.0 1.0 -0.0
  outer loop
    vertex -0.1500000000000006 18.21 14.000000000000002
    vertex 1.5399999999999998 18.21 12.999999999999998
    vertex -0.1500000000000006 18.21 12.999999999999998
  endloop
endfacet
facet normal -0.0 1.0 -0.0
  outer loop
    vertex 1.5399999999999998 18.21 12.999999999999998
    vertex -0.1500000000000006 18.21 14.000000000000002
    vertex 1.5399999999999998 18.21 14.000000000000002
  endloop
endfacet
facet normal 1.0 1.0860346268615356e-16 1.8101136205543944e-17
  outer loop
    vertex -0.15000000000000097 7.7700000000000005 0.0
    vertex -0.15000000000000058 4.93 3.0
    vertex -0.15000000000000058 4.93 0.0
  endloop
endfacet
facet normal 1.0 1.0860346268615356e-16 1.8101136205543944e-17
  outer loop
    vertex -0.15000000000000058 4.93 3.0
    vertex -0.15000000000000088 4.929999999999998 14.000000000000002
    vertex -0.15000000000000088 4.929999999999998 11.999999999999998
  endloop
endfacet
facet normal 1.0 1.0860346268615356e-16 1.8101136205543944e-17
  outer loop
    vertex -0.15000000000000088 4.929999999999998 14.000000000000002
    vertex -0.15000000000000058 4.93 3.0
    vertex -0.1500000000000011 7.7700000000000005 14.000000000000002
  endloop
endfacet
facet normal 1.0 1.0860346268615356e-16 1.8101136205543944e-17
  outer loop
    vertex -0.1500000000000011 7.7700000000000005 14.000000000000002
    vertex -0.15000000000000058 4.93 3.0
    vertex -0.15000000000000097 7.7700000000000005 0.0
  endloop
endfacet
facet normal 1.0 1.0860346268615356e-16 1.8101136205543944e-17
  outer loop
    vertex -0.1500000000000011 7.7700000000000005 14.000000000000002
    vertex -0.15000000000000097 7.7700000000000005 0.0
    vertex -0.15000000000000097 7.7700000000000005 3.0
  endloop
endfacet
facet normal 1.0 1.0860346268615356e-16 1.8101136205543944e-17
  outer loop
    vertex -0.1500000000000011 7.7700000000000005 14.000000000000002
    vertex -0.15000000000000097 7.7700000000000005 3.0
    vertex -0.15000000000000113 7.7700000000000005 11.999999999999998
  endloop
endfacet
facet normal -1.0696782050497696e-16 4.207063473553861e-16 1.0
  outer loop
    vertex -0.1500000000000006 18.21 14.000000000000002
    vertex 2.6899999999999995 22.709999999999997 14.0
    vertex -0.15000000000000177 22.709999999999997 14.0
  endloop
endfacet
facet normal -1.0696782050497696e-16 4.207063473553861e-16 1.0
  outer loop
    vertex 2.6899999999999995 22.709999999999997 14.0
    vertex -0.1500000000000006 18.21 14.000000000000002
    vertex 2.54 22.209999999999997 14.000000000000002
  endloop
endfacet
facet normal -1.0696782050497696e-16 4.207063473553861e-16 1.0
  outer loop
    vertex 2.6899999999999995 22.709999999999997 14.0
    vertex 2.54 22.209999999999997 14.000000000000002
    vertex 5.2299999999999995 18.21 14.000000000000002
  endloop
endfacet
facet normal -1.0696782050497696e-16 4.207063473553861e-16 1.0
  outer loop
    vertex 2.6899999999999995 22.709999999999997 14.0
    vertex 5.2299999999999995 18.21 14.000000000000002
    vertex 2.6900000000000004 25.549999999999997 14.0
  endloop
endfacet
facet normal -1.0696782050497696e-16 4.207063473553861e-16 1.0
  outer loop
    vertex 2.6900000000000004 25.549999999999997 14.0
    vertex 5.2299999999999995 18.21 14.000000000000002
    vertex 5.2299999999999995 25.549999999999997 14.0
  endloop
endfacet
facet normal 0.0 0.0 -1.0
  outer loop
    vertex 1.8199999999999983 4.36 12.0
    vertex 0.7336999999999985 3.26 12.0
    vertex 0.7336999999999985 4.36 12.0
  endloop
endfacet
facet normal 0.0 0.0 -1.0
  outer loop
    vertex 0.7336999999999985 3.26 12.0
    vertex 1.8199999999999983 4.36 12.0
    vertex 1.8199999999999983 3.26 12.0
  endloop
endfacet
facet normal 0.0 0.0 -1.0
  outer loop
    vertex 1.8199999999999976 1.8199999999999994 12.0
    vertex 0.7336999999999985 0.720000000000001 12.0
    vertex 0.7336999999999985 1.8199999999999994 12.0
  endloop
endfacet
facet normal 0.0 0.0 -1.0
  outer loop
    vertex 0.7336999999999985 0.720000000000001 12.0
    vertex 1.8199999999999976 1.8199999999999994 12.0
    vertex 1.8199999999999976 0.720000000000001 12.0
  endloop
endfacet
facet normal 0.0 0.0 -1.0
  outer loop
    vertex 3.2736999999999994 1.8199999999999994 12.0
    vertex 4.36 0.720000000000001 12.0
    vertex 3.2736999999999985 0.720000000000001 12.0
  endloop
endfacet
facet normal 0.0 0.0 -1.0
  outer loop
    vertex 4.36 0.720000000000001 12.0
    vertex 3.2736999999999994 1.8199999999999994 12.0
    vertex 4.360000000000001 1.8199999999999994 12.0
  endloop
endfacet
facet normal 0.0 0.0 -1.0
  outer loop
    vertex 3.2735842805636 6.899999999999993 12.0
    vertex 4.3598842805635964 5.800000000000006 12.0
    vertex 3.273584280563599 5.800000000000006 12.0
  endloop
endfacet
facet normal 0.0 0.0 -1.0
  outer loop
    vertex 4.3598842805635964 5.800000000000006 12.0
    vertex 3.2735842805636 6.899999999999993 12.0
    vertex 4.359884280563597 6.899999999999993 12.0
  endloop
endfacet
facet normal 0.0 0.0 -1.0
  outer loop
    vertex 1.8200000000000018 9.439999999999998 12.0
    vertex 0.7336999999999999 8.340000000000005 12.0
    vertex 0.7336999999999999 9.439999999999998 12.0
  endloop
endfacet
facet normal 0.0 0.0 -1.0
  outer loop
    vertex 0.7336999999999999 8.340000000000005 12.0
    vertex 1.8200000000000018 9.439999999999998 12.0
    vertex 1.8200000000000018 8.340000000000005 12.0
  endloop
endfacet
facet normal 0.0 0.0 -1.0
  outer loop
    vertex 1.8199999999999983 11.979999999999995 12.0
    vertex 0.7336999999999989 10.880000000000004 12.0
    vertex 0.7336999999999989 11.979999999999995 12.0
  endloop
endfacet
facet normal 0.0 0.0 -1.0
  outer loop
    vertex 0.7336999999999989 10.880000000000004 12.0
    vertex 1.8199999999999983 11.979999999999995 12.0
    vertex 1.8199999999999983 10.880000000000004 12.0
  endloop
endfacet
facet normal 0.0 0.0 -1.0
  outer loop
    vertex 1.8200000000000012 14.519999999999994 12.0
    vertex 0.7337000000000017 13.419999999999998 12.0
    vertex 0.7337000000000017 14.519999999999994 12.0
  endloop
endfacet
facet normal 0.0 0.0 -1.0
  outer loop
    vertex 0.7337000000000017 13.419999999999998 12.0
    vertex 1.8200000000000012 14.519999999999994 12.0
    vertex 1.8200000000000012 13.419999999999998 12.0
  endloop
endfacet
facet normal 0.0 0.0 -1.0
  outer loop
    vertex 1.8199999999999996 17.05999999999999 11.999999999999998
    vertex 0.7337000000000007 15.959999999999997 11.999999999999998
    vertex 0.7337000000000007 17.05999999999999 11.999999999999998
  endloop
endfacet
facet normal 0.0 0.0 -1.0
  outer loop
    vertex 0.7337000000000007 15.959999999999997 11.999999999999998
    vertex 1.8199999999999996 17.05999999999999 11.999999999999998
    vertex 1.8199999999999996 15.959999999999997 11.999999999999998
  endloop
endfacet
facet normal 0.0 0.0 -1.0
  outer loop
    vertex 1.820000000000002 19.59999999999999 11.999999999999998
    vertex 0.7337000000000014 18.499999999999996 11.999999999999998
    vertex 0.7337000000000014 19.59999999999999 11.999999999999998
  endloop
endfacet
facet normal 0.0 0.0 -1.0
  outer loop
    vertex 0.7337000000000014 18.499999999999996 11.999999999999998
    vertex 1.820000000000002 19.59999999999999 11.999999999999998
    vertex 1.8200000000000018 18.499999999999996 11.999999999999998
  endloop
endfacet
facet normal 0.0 0.0 -1.0
  outer loop
    vertex 3.2735842805636 11.979999999999986 12.0
    vertex 4.3598842805636 10.880000000000004 12.0
    vertex 3.273584280563599 10.880000000000004 12.0
  endloop
endfacet
facet normal 0.0 0.0 -1.0
  outer loop
    vertex 4.3598842805636 10.880000000000004 12.0
    vertex 3.2735842805636 11.979999999999986 12.0
    vertex 4.3598842805636 11.979999999999986 12.0
  endloop
endfacet
facet normal 0.0 0.0 -1.0
  outer loop
    vertex 3.2736999999999994 14.519999999999996 12.0
    vertex 4.359999999999999 13.420000000000003 12.0
    vertex 3.2736999999999985 13.420000000000003 12.0
  endloop
endfacet
facet normal 0.0 0.0 -1.0
  outer loop
    vertex 4.359999999999999 13.420000000000003 12.0
    vertex 3.2736999999999994 14.519999999999996 12.0
    vertex 4.359999999999999 14.519999999999996 12.0
  endloop
endfacet
facet normal 0.0 0.0 -1.0
  outer loop
    vertex 3.2736999999999994 17.05999999999999 12.0
    vertex 4.359999999999998 15.959999999999997 12.0
    vertex 3.2736999999999985 15.959999999999997 12.0
  endloop
endfacet
facet normal 0.0 0.0 -1.0
  outer loop
    vertex 4.359999999999998 15.959999999999997 12.0
    vertex 3.2736999999999994 17.05999999999999 12.0
    vertex 4.3599999999999985 17.05999999999999 12.0
  endloop
endfacet
facet normal 0.0 0.0 -1.0
  outer loop
    vertex 3.293520422227879 19.59999999999999 12.0
    vertex 4.379820422227879 18.500000000000004 12.0
    vertex 3.293520422227878 18.500000000000004 12.0
  endloop
endfacet
facet normal 0.0 0.0 -1.0
  outer loop
    vertex 4.379820422227879 18.500000000000004 12.0
    vertex 3.293520422227879 19.59999999999999 12.0
    vertex 4.379820422227879 19.59999999999999 12.0
  endloop
endfacet
facet normal 0.0 0.0 -1.0
  outer loop
    vertex 3.2736999999999994 24.679999999999993 12.0
    vertex 4.359999999999999 23.579999999999995 12.0
    vertex 3.2736999999999985 23.579999999999995 12.0
  endloop
endfacet
facet normal 0.0 0.0 -1.0
  outer loop
    vertex 4.359999999999999 23.579999999999995 12.0
    vertex 3.2736999999999994 24.679999999999993 12.0
    vertex 4.359999999999999 24.679999999999993 12.0
  endloop
endfacet
facet normal 0.0 0.0 -1.0
  outer loop
    vertex 3.2736999999999994 22.13999999999999 12.0
    vertex 4.359999999999998 21.039999999999996 12.0
    vertex 3.2736999999999985 21.039999999999996 12.0
  endloop
endfacet
facet normal 0.0 0.0 -1.0
  outer loop
    vertex 4.359999999999998 21.039999999999996 12.0
    vertex 3.2736999999999994 22.13999999999999 12.0
    vertex 4.3599999999999985 22.13999999999999 12.0
  endloop
endfacet
facet normal 0.0 0.0 -1.0
  outer loop
    vertex 1.82 22.13999999999999 12.0
    vertex 0.7336999999999989 21.04 12.0
    vertex 0.7336999999999989 22.13999999999999 12.0
  endloop
endfacet
facet normal 0.0 0.0 -1.0
  outer loop
    vertex 0.7336999999999989 21.04 12.0
    vertex 1.82 22.13999999999999 12.0
    vertex 1.8199999999999996 21.04 12.0
  endloop
endfacet
facet normal -0.0 1.0 -0.0
  outer loop
    vertex 1.5399999999999998 10.81 14.000000000000002
    vertex 3.5399999999999996 10.81 13.006113095238097
    vertex 1.5399999999999998 10.81 13.006113095238097
  endloop
endfacet
facet normal -0.0 1.0 -0.0
  outer loop
    vertex 3.5399999999999996 10.81 13.006113095238097
    vertex 1.5399999999999998 10.81 14.000000000000002
    vertex 3.5399999999999996 10.81 14.000000000000002
  endloop
endfacet
facet normal 1.0 -0.0 -0.0
  outer loop
    vertex 1.5399999999999998 18.21 12.999999999999998
    vertex 1.5399999999999998 10.81 14.000000000000002
    vertex 1.5399999999999998 10.81 13.006113095238097
  endloop
endfacet
facet normal 1.0 -0.0 -0.0
  outer loop
    vertex 1.5399999999999998 10.81 14.000000000000002
    vertex 1.5399999999999998 18.21 12.999999999999998
    vertex 1.5399999999999998 18.21 14.000000000000002
  endloop
endfacet
facet normal -0.0 -0.0 1.0
  outer loop
    vertex -0.1500000000000011 7.7700000000000005 14.000000000000002
    vertex 1.5399999999999998 10.81 14.000000000000002
    vertex -0.1500000000000006 18.21 14.000000000000002
  endloop
endfacet
facet normal -0.0 -0.0 1.0
  outer loop
    vertex 1.5399999999999998 10.81 14.000000000000002
    vertex -0.1500000000000011 7.7700000000000005 14.000000000000002
    vertex 2.3899999999999992 7.7700000000000005 14.000000000000002
  endloop
endfacet
facet normal -0.0 -0.0 1.0
  outer loop
    vertex 1.5399999999999998 10.81 14.000000000000002
    vertex 2.3899999999999992 7.7700000000000005 14.000000000000002
    vertex 2.3899999999999997 10.31 14.000000000000002
  endloop
endfacet
facet normal -0.0 -0.0 1.0
  outer loop
    vertex 1.5399999999999998 10.81 14.000000000000002
    vertex 2.3899999999999997 10.31 14.000000000000002
    vertex 3.5399999999999996 10.81 14.000000000000002
  endloop
endfacet
facet normal -0.0 -0.0 1.0
  outer loop
    vertex 3.5399999999999996 10.81 14.000000000000002
    vertex 2.3899999999999997 10.31 14.000000000000002
    vertex 5.2299999999999995 10.310000000000002 14.000000000000002
  endloop
endfacet
facet normal -0.0 -0.0 1.0
  outer loop
    vertex 3.5399999999999996 10.81 14.000000000000002
    vertex 5.2299999999999995 10.310000000000002 14.000000000000002
    vertex 3.5399999999999996 18.21 14.000000000000002
  endloop
endfacet
facet normal -0.0 -0.0 1.0
  outer loop
    vertex 3.5399999999999996 18.21 14.000000000000002
    vertex 5.2299999999999995 10.310000000000002 14.000000000000002
    vertex 5.2299999999999995 18.21 14.000000000000002
  endloop
endfacet
facet normal -0.0 -0.0 1.0
  outer loop
    vertex 1.5399999999999998 18.21 14.000000000000002
    vertex -0.1500000000000006 18.21 14.000000000000002
    vertex 1.5399999999999998 10.81 14.000000000000002
  endloop
endfacet
facet normal -1.0 0.0 0.0
  outer loop
    vertex 3.5399999999999996 18.21 14.000000000000002
    vertex 3.5399999999999996 10.81 13.006113095238097
    vertex 3.5399999999999996 10.81 14.000000000000002
  endloop
endfacet
facet normal -1.0 0.0 0.0
  outer loop
    vertex 3.5399999999999996 10.81 13.006113095238097
    vertex 3.5399999999999996 18.21 14.000000000000002
    vertex 3.5399999999999996 18.21 12.999999999999998
  endloop
endfacet
facet normal -1.6017118842404332e-17 2.900606956943053e-17 1.0
  outer loop
    vertex -1.15 -1.15 14.0
    vertex -0.15000000000000044 -0.1499999999999999 14.0
    vertex -1.15 26.549999999999997 14.0
  endloop
endfacet
facet normal -1.6017118842404332e-17 2.900606956943053e-17 1.0
  outer loop
    vertex -0.15000000000000044 -0.1499999999999999 14.0
    vertex -1.15 -1.15 14.0
    vertex 6.23 -1.15 14.0
  endloop
endfacet
facet normal -1.6017118842404332e-17 2.900606956943053e-17 1.0
  outer loop
    vertex -1.15 26.549999999999997 14.0
    vertex -0.15000000000000044 -0.1499999999999999 14.0
    vertex -0.15000000000000088 4.929999999999998 14.000000000000002
  endloop
endfacet
facet normal -1.6017118842404332e-17 2.900606956943053e-17 1.0
  outer loop
    vertex -1.15 26.549999999999997 14.0
    vertex -0.15000000000000088 4.929999999999998 14.000000000000002
    vertex -0.1500000000000011 7.7700000000000005 14.000000000000002
  endloop
endfacet
facet normal -1.6017118842404332e-17 2.900606956943053e-17 1.0
  outer loop
    vertex -1.15 26.549999999999997 14.0
    vertex -0.1500000000000011 7.7700000000000005 14.000000000000002
    vertex -0.15000000000000177 22.709999999999997 14.0
  endloop
endfacet
facet normal -1.6017118842404332e-17 2.900606956943053e-17 1.0
  outer loop
    vertex -1.15 26.549999999999997 14.0
    vertex -0.15000000000000177 22.709999999999997 14.0
    vertex -0.15000000000000183 25.549999999999997 14.0
  endloop
endfacet
facet normal -1.6017118842404332e-17 2.900606956943053e-17 1.0
  outer loop
    vertex -0.15000000000000044 -0.1499999999999999 14.0
    vertex 6.23 -1.15 14.0
    vertex 5.2299999999999995 -0.1499999999999999 14.0
  endloop
endfacet
facet normal -1.6017118842404332e-17 2.900606956943053e-17 1.0
  outer loop
    vertex 5.2299999999999995 -0.1499999999999999 14.0
    vertex 6.23 -1.15 14.0
    vertex 5.2299999999999995 2.3899999999999992 14.000000000000002
  endloop
endfacet
facet normal -1.6017118842404332e-17 2.900606956943053e-17 1.0
  outer loop
    vertex 5.2299999999999995 2.3899999999999992 14.000000000000002
    vertex 6.23 -1.15 14.0
    vertex 5.2299999999999995 5.2299999999999995 14.000000000000002
  endloop
endfacet
facet normal -1.6017118842404332e-17 2.900606956943053e-17 1.0
  outer loop
    vertex 5.2299999999999995 5.2299999999999995 14.000000000000002
    vertex 6.23 -1.15 14.0
    vertex 5.2299999999999995 7.470000000000001 14.000000000000002
  endloop
endfacet
facet normal -1.6017118842404332e-17 2.900606956943053e-17 1.0
  outer loop
    vertex 5.2299999999999995 7.470000000000001 14.000000000000002
    vertex 6.23 -1.15 14.0
    vertex 5.2299999999999995 10.310000000000002 14.000000000000002
  endloop
endfacet
facet normal -1.6017118842404332e-17 2.900606956943053e-17 1.0
  outer loop
    vertex 5.2299999999999995 10.310000000000002 14.000000000000002
    vertex 6.23 -1.15 14.0
    vertex 5.2299999999999995 18.21 14.000000000000002
  endloop
endfacet
facet normal -1.6017118842404332e-17 2.900606956943053e-17 1.0
  outer loop
    vertex 5.2299999999999995 18.21 14.000000000000002
    vertex 6.23 -1.15 14.0
    vertex 5.2299999999999995 25.549999999999997 14.0
  endloop
endfacet
facet normal -1.6017118842404332e-17 2.900606956943053e-17 1.0
  outer loop
    vertex -0.15000000000000183 25.549999999999997 14.0
    vertex 6.23 26.549999999999997 14.0
    vertex -1.15 26.549999999999997 14.0
  endloop
endfacet
facet normal -1.6017118842404332e-17 2.900606956943053e-17 1.0
  outer loop
    vertex 6.23 26.549999999999997 14.0
    vertex -0.15000000000000183 25.549999999999997 14.0
    vertex 2.6900000000000004 25.549999999999997 14.0
  endloop
endfacet
facet normal -1.6017118842404332e-17 2.900606956943053e-17 1.0
  outer loop
    vertex 6.23 26.549999999999997 14.0
    vertex 2.6900000000000004 25.549999999999997 14.0
    vertex 5.2299999999999995 25.549999999999997 14.0
  endloop
endfacet
facet normal -1.6017118842404332e-17 2.900606956943053e-17 1.0
  outer loop
    vertex 6.23 26.549999999999997 14.0
    vertex 5.2299999999999995 25.549999999999997 14.0
    vertex 6.23 -1.15 14.0
  endloop
endfacet
facet normal -1.6017118842404332e-17 2.900606956943053e-17 1.0
  outer loop
    vertex -0.1500000000000006 18.21 14.000000000000002
    vertex -0.15000000000000177 22.709999999999997 14.0
    vertex -0.1500000000000011 7.7700000000000005 14.000000000000002
  endloop
endfacet
facet normal -0.0 1.0 -0.0
  outer loop
    vertex -0.15000000000000202 22.709999999999997 12.0
    vertex 2.6899999999999995 22.709999999999997 3.0
    vertex -0.15000000000000183 22.709999999999997 3.0
  endloop
endfacet
facet normal -0.0 1.0 -0.0
  outer loop
    vertex 2.6899999999999995 22.709999999999997 3.0
    vertex -0.15000000000000202 22.709999999999997 12.0
    vertex 2.6899999999999995 22.709999999999997 14.0
  endloop
endfacet
facet normal -0.0 1.0 -0.0
  outer loop
    vertex 2.6899999999999995 22.709999999999997 14.0
    vertex -0.15000000000000202 22.709999999999997 12.0
    vertex -0.15000000000000177 22.709999999999997 14.0
  endloop
endfacet
facet normal -4.499299853497549e-20 0.0006578395027038214 0.999999783623571
  outer loop
    vertex 3.5399999999999996 10.81 13.006113095238097
    vertex 1.5399999999999998 18.21 12.999999999999998
    vertex 1.5399999999999998 10.81 13.006113095238097
  endloop
endfacet
facet normal -4.499299853497549e-20 0.0006578395027038214 0.999999783623571
  outer loop
    vertex 1.5399999999999998 18.21 12.999999999999998
    vertex 3.5399999999999996 10.81 13.006113095238097
    vertex 2.54 22.209999999999997 12.999999999999998
  endloop
endfacet
facet normal -4.499299853497549e-20 0.0006578395027038214 0.999999783623571
  outer loop
    vertex 2.54 22.209999999999997 12.999999999999998
    vertex 3.5399999999999996 10.81 13.006113095238097
    vertex 3.5399999999999996 18.21 12.999999999999998
  endloop
endfacet
facet normal -4.499299853497549e-20 0.0006578395027038214 0.999999783623571
  outer loop
    vertex 2.54 22.209999999999997 12.999999999999998
    vertex 3.5399999999999996 18.21 12.999999999999998
    vertex 5.2299999999999995 18.21 12.999999999999998
  endloop
endfacet
facet normal -4.499299853497549e-20 0.0006578395027038214 0.999999783623571
  outer loop
    vertex 2.54 22.209999999999997 12.999999999999998
    vertex -0.1500000000000006 18.21 12.999999999999998
    vertex 1.5399999999999998 18.21 12.999999999999998
  endloop
endfacet
endsolid OLED Harness
