solid serial mount
facet normal -1.0 -6.652468319185597e-19 1.2618253725168308e-34
  outer loop
    vertex -9.86988268891764e-15 -2.8422542166743954 3.088542723801877
    vertex -9.86988268891764e-15 -0.8422542166743956 0.8422542166743956
    vertex -9.86988268891764e-15 -2.8422542166743954 -3.0000000000000013
  endloop
endfacet
facet normal -1.0 -6.652468319185597e-19 1.2618253725168308e-34
  outer loop
    vertex -9.86988268891764e-15 -0.8422542166743956 0.8422542166743956
    vertex -9.86988268891764e-15 -2.8422542166743954 3.088542723801877
    vertex -9.86988268891764e-15 1.4999999999999944 3.088542723801877
  endloop
endfacet
facet normal -1.0 -6.652468319185597e-19 1.2618253725168308e-34
  outer loop
    vertex -9.882628695634578e-15 18.492254216674397 0.8422542166743935
    vertex -9.882628695634578e-15 16.150000000000006 -2.0000000000000018
    vertex -9.882628695634578e-15 16.150000000000006 -1.4999999999999944
  endloop
endfacet
facet normal -1.0 -6.652468319185597e-19 1.2618253725168308e-34
  outer loop
    vertex -9.882628695634578e-15 20.492254216674393 3.088542723801878
    vertex -9.882628695634578e-15 18.492254216674397 0.8422542166743935
    vertex -9.882628695634578e-15 16.150000000000006 3.088542723801878
  endloop
endfacet
facet normal -1.0 -6.652468319185597e-19 1.2618253725168308e-34
  outer loop
    vertex -9.86988268891764e-15 -2.8422542166743954 -3.0000000000000013
    vertex -9.86988268891764e-15 1.4999999999999944 -2.0000000000000013
    vertex -9.882628695634578e-15 20.492254216674393 -3.0000000000000013
  endloop
endfacet
facet normal -1.0 -6.652468319185597e-19 1.2618253725168308e-34
  outer loop
    vertex -9.86988268891764e-15 1.4999999999999944 -2.0000000000000013
    vertex -9.86988268891764e-15 -2.8422542166743954 -3.0000000000000013
    vertex -9.86988268891764e-15 -0.8422542166743956 0.8422542166743956
  endloop
endfacet
facet normal -1.0 -6.652468319185597e-19 1.2618253725168308e-34
  outer loop
    vertex -9.86988268891764e-15 1.4999999999999944 -2.0000000000000013
    vertex -9.86988268891764e-15 -0.8422542166743956 0.8422542166743956
    vertex -9.86988268891764e-15 1.4999999999999944 -1.4999999999999944
  endloop
endfacet
facet normal -1.0 -6.652468319185597e-19 1.2618253725168308e-34
  outer loop
    vertex -9.882628695634578e-15 20.492254216674393 -3.0000000000000013
    vertex -9.86988268891764e-15 1.4999999999999944 -2.0000000000000013
    vertex -9.882628695634578e-15 16.150000000000006 -2.0000000000000018
  endloop
endfacet
facet normal -1.0 -6.652468319185597e-19 1.2618253725168308e-34
  outer loop
    vertex -9.882628695634578e-15 20.492254216674393 -3.0000000000000013
    vertex -9.882628695634578e-15 16.150000000000006 -2.0000000000000018
    vertex -9.882628695634578e-15 18.492254216674397 0.8422542166743935
  endloop
endfacet
facet normal -1.0 -6.652468319185597e-19 1.2618253725168308e-34
  outer loop
    vertex -9.882628695634578e-15 20.492254216674393 -3.0000000000000013
    vertex -9.882628695634578e-15 18.492254216674397 0.8422542166743935
    vertex -9.882628695634578e-15 20.492254216674393 3.088542723801878
  endloop
endfacet
facet normal 1.065460205905208e-34 -5.2913960704483944e-17 1.0
  outer loop
    vertex 27.0 -2.8422542166743954 3.088542723801877
    vertex -9.86988268891764e-15 1.4999999999999944 3.088542723801877
    vertex -9.86988268891764e-15 -2.8422542166743954 3.088542723801877
  endloop
endfacet
facet normal 1.065460205905208e-34 -5.2913960704483944e-17 1.0
  outer loop
    vertex -9.86988268891764e-15 1.4999999999999944 3.088542723801877
    vertex 27.0 -2.8422542166743954 3.088542723801877
    vertex 24.0 1.4999999999999944 3.088542723801877
  endloop
endfacet
facet normal 1.065460205905208e-34 -5.2913960704483944e-17 1.0
  outer loop
    vertex 24.0 1.4999999999999944 3.088542723801877
    vertex 27.0 -2.8422542166743954 3.088542723801877
    vertex 24.0 16.150000000000006 3.088542723801878
  endloop
endfacet
facet normal 1.065460205905208e-34 -5.2913960704483944e-17 1.0
  outer loop
    vertex 24.0 16.150000000000006 3.088542723801878
    vertex -9.882628695634578e-15 20.492254216674393 3.088542723801878
    vertex -9.882628695634578e-15 16.150000000000006 3.088542723801878
  endloop
endfacet
facet normal 1.065460205905208e-34 -5.2913960704483944e-17 1.0
  outer loop
    vertex -9.882628695634578e-15 20.492254216674393 3.088542723801878
    vertex 24.0 16.150000000000006 3.088542723801878
    vertex 27.0 20.492254216674393 3.088542723801878
  endloop
endfacet
facet normal 1.065460205905208e-34 -5.2913960704483944e-17 1.0
  outer loop
    vertex 27.0 20.492254216674393 3.088542723801878
    vertex 24.0 16.150000000000006 3.088542723801878
    vertex 27.0 -2.8422542166743954 3.088542723801877
  endloop
endfacet
facet normal 0.0 -0.6921668454377485 -0.7217375271362546
  outer loop
    vertex 24.0 18.492254216674397 0.8422542166743935
    vertex -9.882628695634578e-15 16.150000000000006 3.088542723801878
    vertex -9.882628695634578e-15 18.492254216674397 0.8422542166743935
  endloop
endfacet
facet normal 0.0 -0.6921668454377485 -0.7217375271362546
  outer loop
    vertex -9.882628695634578e-15 16.150000000000006 3.088542723801878
    vertex 24.0 18.492254216674397 0.8422542166743935
    vertex 24.0 16.150000000000006 3.088542723801878
  endloop
endfacet
facet normal 0.0 -1.0 0.0
  outer loop
    vertex 24.0 16.150000000000006 -1.4999999999999944
    vertex -9.882628695634578e-15 16.150000000000006 -2.0000000000000018
    vertex 24.0 16.150000000000006 -2.0000000000000018
  endloop
endfacet
facet normal 0.0 -1.0 0.0
  outer loop
    vertex -9.882628695634578e-15 16.150000000000006 -2.0000000000000018
    vertex 24.0 16.150000000000006 -1.4999999999999944
    vertex -9.882628695634578e-15 16.150000000000006 -1.4999999999999944
  endloop
endfacet
facet normal -0.0 0.7071067811865476 0.7071067811865476
  outer loop
    vertex -9.86988268891764e-15 -0.8422542166743956 0.8422542166743956
    vertex 24.0 1.4999999999999944 -1.4999999999999944
    vertex -9.86988268891764e-15 1.4999999999999944 -1.4999999999999944
  endloop
endfacet
facet normal -0.0 0.7071067811865476 0.7071067811865476
  outer loop
    vertex 24.0 1.4999999999999944 -1.4999999999999944
    vertex -9.86988268891764e-15 -0.8422542166743956 0.8422542166743956
    vertex 24.0 -0.8422542166743956 0.8422542166743956
  endloop
endfacet
facet normal 0.0 -1.0 0.0
  outer loop
    vertex 27.0 -2.8422542166743954 3.088542723801877
    vertex -9.86988268891764e-15 -2.8422542166743954 -3.0000000000000013
    vertex 27.0 -2.8422542166743954 -3.0000000000000013
  endloop
endfacet
facet normal 0.0 -1.0 0.0
  outer loop
    vertex -9.86988268891764e-15 -2.8422542166743954 -3.0000000000000013
    vertex 27.0 -2.8422542166743954 3.088542723801877
    vertex -9.86988268891764e-15 -2.8422542166743954 3.088542723801877
  endloop
endfacet
facet normal -0.0 1.0 -0.0
  outer loop
    vertex -9.882628695634578e-15 20.492254216674393 3.088542723801878
    vertex 27.0 20.492254216674393 -3.0000000000000013
    vertex -9.882628695634578e-15 20.492254216674393 -3.0000000000000013
  endloop
endfacet
facet normal -0.0 1.0 -0.0
  outer loop
    vertex 27.0 20.492254216674393 -3.0000000000000013
    vertex -9.882628695634578e-15 20.492254216674393 3.088542723801878
    vertex 27.0 20.492254216674393 3.088542723801878
  endloop
endfacet
facet normal -1.0 0.0 0.0
  outer loop
    vertex 24.0 18.492254216674397 0.8422542166743935
    vertex 24.0 16.150000000000006 -1.4999999999999944
    vertex 24.0 16.150000000000006 3.088542723801878
  endloop
endfacet
facet normal -1.0 0.0 0.0
  outer loop
    vertex 24.0 1.4999999999999944 3.088542723801877
    vertex 24.0 1.4999999999999944 -1.4999999999999944
    vertex 24.0 -0.8422542166743956 0.8422542166743956
  endloop
endfacet
facet normal -1.0 0.0 0.0
  outer loop
    vertex 24.0 1.4999999999999944 -1.4999999999999944
    vertex 24.0 1.4999999999999944 3.088542723801877
    vertex 24.0 16.150000000000006 3.088542723801878
  endloop
endfacet
facet normal -1.0 0.0 0.0
  outer loop
    vertex 24.0 1.4999999999999944 -1.4999999999999944
    vertex 24.0 16.150000000000006 3.088542723801878
    vertex 24.0 1.4999999999999944 -2.0000000000000013
  endloop
endfacet
facet normal -1.0 0.0 0.0
  outer loop
    vertex 24.0 1.4999999999999944 -2.0000000000000013
    vertex 24.0 16.150000000000006 3.088542723801878
    vertex 24.0 16.150000000000006 -2.0000000000000018
  endloop
endfacet
facet normal -1.0 0.0 0.0
  outer loop
    vertex 24.0 16.150000000000006 -2.0000000000000018
    vertex 24.0 16.150000000000006 3.088542723801878
    vertex 24.0 16.150000000000006 -1.4999999999999944
  endloop
endfacet
facet normal 1.0 -0.0 -0.0
  outer loop
    vertex 27.0 20.492254216674393 -3.0000000000000013
    vertex 27.0 -2.8422542166743954 3.088542723801877
    vertex 27.0 -2.8422542166743954 -3.0000000000000013
  endloop
endfacet
facet normal 1.0 -0.0 -0.0
  outer loop
    vertex 27.0 -2.8422542166743954 3.088542723801877
    vertex 27.0 20.492254216674393 -3.0000000000000013
    vertex 27.0 20.492254216674393 3.088542723801878
  endloop
endfacet
facet normal -6.227657416970769e-34 0.6921668454377485 -0.7217375271362546
  outer loop
    vertex 24.0 1.4999999999999944 3.088542723801877
    vertex -9.86988268891764e-15 -0.8422542166743956 0.8422542166743956
    vertex -9.86988268891764e-15 1.4999999999999944 3.088542723801877
  endloop
endfacet
facet normal -6.227657416970769e-34 0.6921668454377485 -0.7217375271362546
  outer loop
    vertex -9.86988268891764e-15 -0.8422542166743956 0.8422542166743956
    vertex 24.0 1.4999999999999944 3.088542723801877
    vertex 24.0 -0.8422542166743956 0.8422542166743956
  endloop
endfacet
facet normal -0.0 1.0 -0.0
  outer loop
    vertex -9.86988268891764e-15 1.4999999999999944 -1.4999999999999944
    vertex 24.0 1.4999999999999944 -2.0000000000000013
    vertex -9.86988268891764e-15 1.4999999999999944 -2.0000000000000013
  endloop
endfacet
facet normal -0.0 1.0 -0.0
  outer loop
    vertex 24.0 1.4999999999999944 -2.0000000000000013
    vertex -9.86988268891764e-15 1.4999999999999944 -1.4999999999999944
    vertex 24.0 1.4999999999999944 -1.4999999999999944
  endloop
endfacet
facet normal -0.0 -0.7071067811865467 0.7071067811865483
  outer loop
    vertex 24.0 16.150000000000006 -1.4999999999999944
    vertex -9.882628695634578e-15 18.492254216674397 0.8422542166743935
    vertex -9.882628695634578e-15 16.150000000000006 -1.4999999999999944
  endloop
endfacet
facet normal -0.0 -0.7071067811865467 0.7071067811865483
  outer loop
    vertex -9.882628695634578e-15 18.492254216674397 0.8422542166743935
    vertex 24.0 16.150000000000006 -1.4999999999999944
    vertex 24.0 18.492254216674397 0.8422542166743935
  endloop
endfacet
facet normal -3.3218632052500702e-49 4.812229492402552e-17 1.0
  outer loop
    vertex -9.86988268891764e-15 1.4999999999999944 -2.0000000000000013
    vertex 24.0 16.150000000000006 -2.0000000000000018
    vertex -9.882628695634578e-15 16.150000000000006 -2.0000000000000018
  endloop
endfacet
facet normal -3.3218632052500702e-49 4.812229492402552e-17 1.0
  outer loop
    vertex 24.0 16.150000000000006 -2.0000000000000018
    vertex -9.86988268891764e-15 1.4999999999999944 -2.0000000000000013
    vertex 24.0 1.4999999999999944 -2.0000000000000013
  endloop
endfacet
facet normal 0.0 0.0 -1.0
  outer loop
    vertex 27.0 20.492254216674393 -3.0000000000000013
    vertex -9.86988268891764e-15 -2.8422542166743954 -3.0000000000000013
    vertex -9.882628695634578e-15 20.492254216674393 -3.0000000000000013
  endloop
endfacet
facet normal 0.0 0.0 -1.0
  outer loop
    vertex -9.86988268891764e-15 -2.8422542166743954 -3.0000000000000013
    vertex 27.0 20.492254216674393 -3.0000000000000013
    vertex 27.0 -2.8422542166743954 -3.0000000000000013
  endloop
endfacet
endsolid serial mount
