solid serial esp harness
facet normal -0.0 1.0 -0.0
  outer loop
    vertex -1.15 26.549999999999997 14.0
    vertex 3.6900000000000013 26.549999999999997 0.0
    vertex -1.15 26.549999999999997 0.0
  endloop
endfacet
facet normal -0.0 1.0 -0.0
  outer loop
    vertex 3.6900000000000013 26.549999999999997 0.0
    vertex -1.15 26.549999999999997 14.0
    vertex 3.6900000000000013 26.549999999999997 14.0
  endloop
endfacet
facet normal 0.0 -1.0 0.0
  outer loop
    vertex 2.6900000000000004 25.549999999999997 3.0
    vertex -0.15000000000000183 25.549999999999997 0.0
    vertex 2.6900000000000004 25.549999999999997 0.0
  endloop
endfacet
facet normal 0.0 -1.0 0.0
  outer loop
    vertex -0.15000000000000183 25.549999999999997 0.0
    vertex 2.6900000000000004 25.549999999999997 3.0
    vertex -0.15000000000000183 25.549999999999997 3.0
  endloop
endfacet
facet normal 1.1652754060115273e-15 -1.0 0.0
  outer loop
    vertex 3.7037000000000138 9.01000000000001 14.0
    vertex -1.1362999999999892 9.010000000000005 0.0
    vertex 3.7037000000000138 9.01000000000001 0.0
  endloop
endfacet
facet normal 1.1652754060115273e-15 -1.0 0.0
  outer loop
    vertex -1.1362999999999892 9.010000000000005 0.0
    vertex 3.7037000000000138 9.01000000000001 14.0
    vertex -1.1362999999999892 9.010000000000005 14.0
  endloop
endfacet
facet normal 0.0 -1.0 0.0
  outer loop
    vertex 1.8200000000000007 24.679999999999993 11.999999999999998
    vertex 0.7336999999999999 24.679999999999993 3.0
    vertex 1.8200000000000007 24.679999999999993 3.0
  endloop
endfacet
facet normal 0.0 -1.0 0.0
  outer loop
    vertex 0.7336999999999999 24.679999999999993 3.0
    vertex 1.8200000000000007 24.679999999999993 11.999999999999998
    vertex 0.7336999999999998 24.679999999999993 11.999999999999998
  endloop
endfacet
facet normal -0.0 1.0 -0.0
  outer loop
    vertex 0.7336999999999998 23.58 11.999999999999998
    vertex 1.8200000000000007 23.58 3.0
    vertex 0.7336999999999999 23.58 3.0
  endloop
endfacet
facet normal -0.0 1.0 -0.0
  outer loop
    vertex 1.8200000000000007 23.58 3.0
    vertex 0.7336999999999998 23.58 11.999999999999998
    vertex 1.82 23.58 11.999999999999998
  endloop
endfacet
facet normal 0.0 -1.0 0.0
  outer loop
    vertex 1.8200000000000012 11.979999999999995 11.999999999999998
    vertex 0.7337000000000026 11.979999999999995 3.0
    vertex 1.8200000000000012 11.979999999999995 3.0
  endloop
endfacet
facet normal 0.0 -1.0 0.0
  outer loop
    vertex 0.7337000000000026 11.979999999999995 3.0
    vertex 1.8200000000000012 11.979999999999995 11.999999999999998
    vertex 0.7337000000000026 11.979999999999995 11.999999999999998
  endloop
endfacet
facet normal 1.0 -0.0 -0.0
  outer loop
    vertex 0.7337000000000026 11.979999999999995 3.0
    vertex 0.7337000000000026 10.879999999999997 11.999999999999998
    vertex 0.7337000000000026 10.879999999999997 3.0
  endloop
endfacet
facet normal 1.0 -0.0 -0.0
  outer loop
    vertex 0.7337000000000026 10.879999999999997 11.999999999999998
    vertex 0.7337000000000026 11.979999999999995 3.0
    vertex 0.7337000000000026 11.979999999999995 11.999999999999998
  endloop
endfacet
facet normal -1.0 3.2045073665317155e-16 -3.9166201146498587e-17
  outer loop
    vertex 1.8200000000000007 24.679999999999993 11.999999999999998
    vertex 1.8200000000000007 23.58 3.0
    vertex 1.82 23.58 11.999999999999998
  endloop
endfacet
facet normal -1.0 3.2045073665317155e-16 -3.9166201146498587e-17
  outer loop
    vertex 1.8200000000000007 23.58 3.0
    vertex 1.8200000000000007 24.679999999999993 11.999999999999998
    vertex 1.8200000000000007 24.679999999999993 3.0
  endloop
endfacet
facet normal -0.0 1.0 -0.0
  outer loop
    vertex 0.7337000000000026 10.879999999999997 11.999999999999998
    vertex 1.8200000000000012 10.879999999999997 3.0
    vertex 0.7337000000000026 10.879999999999997 3.0
  endloop
endfacet
facet normal -0.0 1.0 -0.0
  outer loop
    vertex 1.8200000000000012 10.879999999999997 3.0
    vertex 0.7337000000000026 10.879999999999997 11.999999999999998
    vertex 1.8200000000000012 10.879999999999997 11.999999999999998
  endloop
endfacet
facet normal 1.0 -0.0 1.9583100573249293e-17
  outer loop
    vertex 0.7336999999999999 24.679999999999993 3.0
    vertex 0.7336999999999998 23.58 11.999999999999998
    vertex 0.7336999999999999 23.58 3.0
  endloop
endfacet
facet normal 1.0 -0.0 1.9583100573249293e-17
  outer loop
    vertex 0.7336999999999998 23.58 11.999999999999998
    vertex 0.7336999999999999 24.679999999999993 3.0
    vertex 0.7336999999999998 24.679999999999993 11.999999999999998
  endloop
endfacet
facet normal -1.0 0.0 0.0
  outer loop
    vertex 1.8200000000000012 11.979999999999995 11.999999999999998
    vertex 1.8200000000000012 10.879999999999997 3.0
    vertex 1.8200000000000012 10.879999999999997 11.999999999999998
  endloop
endfacet
facet normal -1.0 0.0 0.0
  outer loop
    vertex 1.8200000000000012 10.879999999999997 3.0
    vertex 1.8200000000000012 11.979999999999995 11.999999999999998
    vertex 1.8200000000000012 11.979999999999995 3.0
  endloop
endfacet
facet normal -0.0 1.0 -0.0
  outer loop
    vertex 0.7337000000000017 13.419999999999998 12.0
    vertex 1.8200000000000014 13.419999999999998 3.0
    vertex 0.7337000000000019 13.419999999999998 3.0
  endloop
endfacet
facet normal -0.0 1.0 -0.0
  outer loop
    vertex 1.8200000000000014 13.419999999999998 3.0
    vertex 0.7337000000000017 13.419999999999998 12.0
    vertex 1.8200000000000012 13.419999999999998 12.0
  endloop
endfacet
facet normal 1.0 -0.0 1.9583100573249287e-17
  outer loop
    vertex 0.7337000000000019 14.519999999999994 3.0
    vertex 0.7337000000000017 13.419999999999998 12.0
    vertex 0.7337000000000019 13.419999999999998 3.0
  endloop
endfacet
facet normal 1.0 -0.0 1.9583100573249287e-17
  outer loop
    vertex 0.7337000000000017 13.419999999999998 12.0
    vertex 0.7337000000000019 14.519999999999994 3.0
    vertex 0.7337000000000017 14.519999999999994 12.0
  endloop
endfacet
facet normal 0.0 -1.0 0.0
  outer loop
    vertex 1.8200000000000012 14.519999999999994 12.0
    vertex 0.7337000000000019 14.519999999999994 3.0
    vertex 1.8200000000000014 14.519999999999994 3.0
  endloop
endfacet
facet normal 0.0 -1.0 0.0
  outer loop
    vertex 0.7337000000000019 14.519999999999994 3.0
    vertex 1.8200000000000012 14.519999999999994 12.0
    vertex 0.7337000000000017 14.519999999999994 12.0
  endloop
endfacet
facet normal -1.0 0.0 -3.9166201146498574e-17
  outer loop
    vertex 1.8200000000000012 14.519999999999994 12.0
    vertex 1.8200000000000014 13.419999999999998 3.0
    vertex 1.8200000000000012 13.419999999999998 12.0
  endloop
endfacet
facet normal -1.0 0.0 -3.9166201146498574e-17
  outer loop
    vertex 1.8200000000000014 13.419999999999998 3.0
    vertex 1.8200000000000012 14.519999999999994 12.0
    vertex 1.8200000000000014 14.519999999999994 3.0
  endloop
endfacet
facet normal 0.9999996113945775 0.000881595539001184 3.544074833770342e-18
  outer loop
    vertex -0.15000000000000183 25.549999999999997 0.0
    vertex -0.13630000000002915 10.010000000000014 3.0
    vertex -0.13630000000002915 10.010000000000014 0.0
  endloop
endfacet
facet normal 0.9999996113945775 0.000881595539001184 3.544074833770342e-18
  outer loop
    vertex -0.13630000000002915 10.010000000000014 3.0
    vertex -0.15000000000000183 25.549999999999997 0.0
    vertex -0.14077850707852738 15.089999999999996 3.0
  endloop
endfacet
facet normal 0.9999996113945775 0.000881595539001184 3.544074833770342e-18
  outer loop
    vertex -0.14077850707852738 15.089999999999996 3.0
    vertex -0.15000000000000183 25.549999999999997 0.0
    vertex -0.14077850707852738 15.089999999999996 11.999999999999998
  endloop
endfacet
facet normal 0.9999996113945775 0.000881595539001184 3.544074833770342e-18
  outer loop
    vertex -0.14077850707852738 15.089999999999996 11.999999999999998
    vertex -0.15000000000000183 25.549999999999997 0.0
    vertex -0.14787476417652926 23.139331044027 3.0
  endloop
endfacet
facet normal 0.9999996113945775 0.000881595539001184 3.544074833770342e-18
  outer loop
    vertex -0.14787476417652926 23.139331044027 3.0
    vertex -0.15000000000000183 25.549999999999997 0.0
    vertex -0.15000000000000183 25.549999999999997 3.0
  endloop
endfacet
facet normal 0.9999996113945775 0.000881595539001184 3.544074833770342e-18
  outer loop
    vertex -0.14787476417652926 23.139331044027 11.999999999999998
    vertex -0.14077850707852738 15.089999999999996 11.999999999999998
    vertex -0.14787476417652926 23.139331044027 3.0
  endloop
endfacet
facet normal -0.9999995534840003 -0.0009422014152458221 -7.272065153069881e-05
  outer loop
    vertex 2.69 23.139331044027 11.999999999999998
    vertex 2.69922149292147 15.089999999999998 3.0
    vertex 2.69922149292147 15.089999999999998 11.999999999999998
  endloop
endfacet
facet normal -0.9999995534840003 -0.0009422014152458221 -7.272065153069881e-05
  outer loop
    vertex 2.69922149292147 15.089999999999998 3.0
    vertex 2.7036999999999654 10.009999999999998 0.0
    vertex 2.7036999999999654 10.009999999999998 3.0
  endloop
endfacet
facet normal -0.9999995534840003 -0.0009422014152458221 -7.272065153069881e-05
  outer loop
    vertex 2.7036999999999654 10.009999999999998 0.0
    vertex 2.69922149292147 15.089999999999998 3.0
    vertex 2.6900000000000004 25.549999999999997 0.0
  endloop
endfacet
facet normal -0.9999995534840003 -0.0009422014152458221 -7.272065153069881e-05
  outer loop
    vertex 2.6900000000000004 25.549999999999997 0.0
    vertex 2.69922149292147 15.089999999999998 3.0
    vertex 2.69 23.139331044027 3.0
  endloop
endfacet
facet normal -0.9999995534840003 -0.0009422014152458221 -7.272065153069881e-05
  outer loop
    vertex 2.69 23.139331044027 3.0
    vertex 2.69922149292147 15.089999999999998 3.0
    vertex 2.69 23.139331044027 11.999999999999998
  endloop
endfacet
facet normal -0.9999995534840003 -0.0009422014152458221 -7.272065153069881e-05
  outer loop
    vertex 2.6900000000000004 25.549999999999997 0.0
    vertex 2.69 23.139331044027 3.0
    vertex 2.6900000000000004 25.549999999999997 3.0
  endloop
endfacet
facet normal 0.0 0.0 -1.0
  outer loop
    vertex -1.15 26.549999999999997 0.0
    vertex -0.15000000000000183 25.549999999999997 0.0
    vertex -1.1362999999999892 9.010000000000005 0.0
  endloop
endfacet
facet normal 0.0 0.0 -1.0
  outer loop
    vertex -0.15000000000000183 25.549999999999997 0.0
    vertex -1.15 26.549999999999997 0.0
    vertex 3.6900000000000013 26.549999999999997 0.0
  endloop
endfacet
facet normal 0.0 0.0 -1.0
  outer loop
    vertex -0.15000000000000183 25.549999999999997 0.0
    vertex 3.6900000000000013 26.549999999999997 0.0
    vertex 2.6900000000000004 25.549999999999997 0.0
  endloop
endfacet
facet normal 0.0 0.0 -1.0
  outer loop
    vertex 2.6900000000000004 25.549999999999997 0.0
    vertex 3.6900000000000013 26.549999999999997 0.0
    vertex 2.7036999999999654 10.009999999999998 0.0
  endloop
endfacet
facet normal 0.0 0.0 -1.0
  outer loop
    vertex -1.1362999999999892 9.010000000000005 0.0
    vertex -0.13630000000002915 10.010000000000014 0.0
    vertex 3.7037000000000138 9.01000000000001 0.0
  endloop
endfacet
facet normal 0.0 0.0 -1.0
  outer loop
    vertex -0.13630000000002915 10.010000000000014 0.0
    vertex -1.1362999999999892 9.010000000000005 0.0
    vertex -0.15000000000000183 25.549999999999997 0.0
  endloop
endfacet
facet normal 0.0 0.0 -1.0
  outer loop
    vertex 3.7037000000000138 9.01000000000001 0.0
    vertex -0.13630000000002915 10.010000000000014 0.0
    vertex 2.7036999999999654 10.009999999999998 0.0
  endloop
endfacet
facet normal 0.0 0.0 -1.0
  outer loop
    vertex 3.7037000000000138 9.01000000000001 0.0
    vertex 2.7036999999999654 10.009999999999998 0.0
    vertex 3.6900000000000013 26.549999999999997 0.0
  endloop
endfacet
facet normal 0.9999996949635332 0.0007810715975491778 -0.0
  outer loop
    vertex 3.6900000000000013 26.549999999999997 0.0
    vertex 3.7037000000000138 9.01000000000001 14.0
    vertex 3.7037000000000138 9.01000000000001 0.0
  endloop
endfacet
facet normal 0.9999996949635332 0.0007810715975491778 -0.0
  outer loop
    vertex 3.7037000000000138 9.01000000000001 14.0
    vertex 3.6900000000000013 26.549999999999997 0.0
    vertex 3.6900000000000013 26.549999999999997 14.0
  endloop
endfacet
facet normal -0.9999993437754505 -0.001145621520553908 -8.804506270449063e-17
  outer loop
    vertex 2.6899999999999995 23.139331044027 13.999999999999995
    vertex 2.69922149292147 15.089999999999998 11.999999999999998
    vertex 2.69922149292147 15.089999999999998 13.999999999999996
  endloop
endfacet
facet normal -0.9999993437754505 -0.001145621520553908 -8.804506270449063e-17
  outer loop
    vertex 2.69922149292147 15.089999999999998 11.999999999999998
    vertex 2.6899999999999995 23.139331044027 13.999999999999995
    vertex 2.69 23.139331044027 11.999999999999998
  endloop
endfacet
facet normal -0.0 -0.0 1.0
  outer loop
    vertex 2.69922149292147 15.089999999999998 13.999999999999996
    vertex 2.6899999999999995 23.63933084972429 13.999999999999995
    vertex 2.6899999999999995 23.139331044027 13.999999999999995
  endloop
endfacet
facet normal -0.0 -0.0 1.0
  outer loop
    vertex 2.6899999999999995 23.63933084972429 13.999999999999995
    vertex 2.69922149292147 15.089999999999998 13.999999999999996
    vertex 2.6899999999999995 24.13933084972429 13.999999999999995
  endloop
endfacet
facet normal -0.0 -0.0 1.0
  outer loop
    vertex 2.6899999999999995 24.13933084972429 13.999999999999995
    vertex 2.69922149292147 15.089999999999998 13.999999999999996
    vertex 2.69 25.050000194302708 13.999999999999996
  endloop
endfacet
facet normal -0.0 -0.0 1.0
  outer loop
    vertex 2.69 25.050000194302708 13.999999999999996
    vertex 2.69922149292147 15.089999999999998 13.999999999999996
    vertex 2.6900000000000004 25.549999999999997 14.0
  endloop
endfacet
facet normal -0.0 -0.0 1.0
  outer loop
    vertex -1.1362999999999892 9.010000000000005 14.0
    vertex -0.14955920223050148 25.050000194302708 13.999999999999996
    vertex -0.15000000000000183 25.549999999999997 14.0
  endloop
endfacet
facet normal -0.0 -0.0 1.0
  outer loop
    vertex -0.14955920223050148 25.050000194302708 13.999999999999996
    vertex -1.1362999999999892 9.010000000000005 14.0
    vertex -0.1478747641765303 23.139331044027 13.999999999999995
  endloop
endfacet
facet normal -0.0 -0.0 1.0
  outer loop
    vertex -0.1478747641765303 23.139331044027 13.999999999999995
    vertex -1.1362999999999892 9.010000000000005 14.0
    vertex -0.13630000000002915 10.010000000000014 14.0
  endloop
endfacet
facet normal -0.0 -0.0 1.0
  outer loop
    vertex -0.13630000000002915 10.010000000000014 14.0
    vertex -1.1362999999999892 9.010000000000005 14.0
    vertex 3.7037000000000138 9.01000000000001 14.0
  endloop
endfacet
facet normal -0.0 -0.0 1.0
  outer loop
    vertex -0.14955920223050148 25.050000194302708 13.999999999999996
    vertex -0.1478747641765303 23.139331044027 13.999999999999995
    vertex -0.14831556194603066 23.63933084972429 13.999999999999995
  endloop
endfacet
facet normal -0.0 -0.0 1.0
  outer loop
    vertex -0.1478747641765303 23.139331044027 13.999999999999995
    vertex -0.13630000000002915 10.010000000000014 14.0
    vertex -0.13767804176831028 11.573121830593484 14.0
  endloop
endfacet
facet normal -0.0 -0.0 1.0
  outer loop
    vertex -0.1478747641765303 23.139331044027 13.999999999999995
    vertex -0.13767804176831028 11.573121830593484 14.0
    vertex -0.14077850707852738 15.089999999999996 14.0
  endloop
endfacet
facet normal -0.0 -0.0 1.0
  outer loop
    vertex -0.13767804176831028 11.573121830593484 14.0
    vertex -0.13630000000002915 10.010000000000014 14.0
    vertex -0.13679644622930903 10.573122219198908 14.0
  endloop
endfacet
facet normal -0.0 -0.0 1.0
  outer loop
    vertex -0.13630000000002915 10.010000000000014 14.0
    vertex 3.7037000000000138 9.01000000000001 14.0
    vertex 2.7036999999999654 10.009999999999998 14.0
  endloop
endfacet
facet normal -0.0 -0.0 1.0
  outer loop
    vertex 2.7036999999999654 10.009999999999998 14.0
    vertex 3.7037000000000138 9.01000000000001 14.0
    vertex 3.6900000000000013 26.549999999999997 14.0
  endloop
endfacet
facet normal -0.0 -0.0 1.0
  outer loop
    vertex -1.15 26.549999999999997 14.0
    vertex -0.15000000000000183 25.549999999999997 14.0
    vertex 3.6900000000000013 26.549999999999997 14.0
  endloop
endfacet
facet normal -0.0 -0.0 1.0
  outer loop
    vertex -0.15000000000000183 25.549999999999997 14.0
    vertex -1.15 26.549999999999997 14.0
    vertex -1.1362999999999892 9.010000000000005 14.0
  endloop
endfacet
facet normal -0.0 -0.0 1.0
  outer loop
    vertex 3.6900000000000013 26.549999999999997 14.0
    vertex -0.15000000000000183 25.549999999999997 14.0
    vertex 0.34999999999999815 25.549999999999997 14.0
  endloop
endfacet
facet normal -0.0 -0.0 1.0
  outer loop
    vertex 3.6900000000000013 26.549999999999997 14.0
    vertex 0.34999999999999815 25.549999999999997 14.0
    vertex 0.8499999999999981 25.549999999999997 14.0
  endloop
endfacet
facet normal -0.0 -0.0 1.0
  outer loop
    vertex 3.6900000000000013 26.549999999999997 14.0
    vertex 0.8499999999999981 25.549999999999997 14.0
    vertex 2.6900000000000004 25.549999999999997 14.0
  endloop
endfacet
facet normal -0.0 -0.0 1.0
  outer loop
    vertex 3.6900000000000013 26.549999999999997 14.0
    vertex 2.6900000000000004 25.549999999999997 14.0
    vertex 2.69922149292147 15.089999999999998 13.999999999999996
  endloop
endfacet
facet normal -0.0 -0.0 1.0
  outer loop
    vertex 3.6900000000000013 26.549999999999997 14.0
    vertex 2.69922149292147 15.089999999999998 13.999999999999996
    vertex 2.701878953183813 12.075625366648572 14.0
  endloop
endfacet
facet normal -0.0 -0.0 1.0
  outer loop
    vertex 3.6900000000000013 26.549999999999997 14.0
    vertex 2.701878953183813 12.075625366648572 14.0
    vertex 2.7032013464923144 10.575625949556706 14.0
  endloop
endfacet
facet normal -0.0 -0.0 1.0
  outer loop
    vertex 3.6900000000000013 26.549999999999997 14.0
    vertex 2.7032013464923144 10.575625949556706 14.0
    vertex 2.7036999999999654 10.009999999999998 14.0
  endloop
endfacet
facet normal -0.0 -0.0 1.0
  outer loop
    vertex -0.13679644622930903 11.073122219198908 14.0
    vertex -0.13767804176831028 11.573121830593484 14.0
    vertex -0.13679644622930903 10.573122219198908 14.0
  endloop
endfacet
facet normal -0.9999996949635332 -0.0007810715975490974 0.0
  outer loop
    vertex -1.15 26.549999999999997 14.0
    vertex -1.1362999999999892 9.010000000000005 0.0
    vertex -1.1362999999999892 9.010000000000005 14.0
  endloop
endfacet
facet normal -0.9999996949635332 -0.0007810715975490974 0.0
  outer loop
    vertex -1.1362999999999892 9.010000000000005 0.0
    vertex -1.15 26.549999999999997 14.0
    vertex -1.15 26.549999999999997 0.0
  endloop
endfacet
facet normal 5.957675667354725e-15 1.0 -0.0
  outer loop
    vertex -0.13630000000002915 10.010000000000014 3.0
    vertex 2.7036999999999654 10.009999999999998 0.0
    vertex -0.13630000000002915 10.010000000000014 0.0
  endloop
endfacet
facet normal 5.957675667354725e-15 1.0 -0.0
  outer loop
    vertex 2.7036999999999654 10.009999999999998 0.0
    vertex -0.13630000000002915 10.010000000000014 3.0
    vertex 2.7036999999999654 10.009999999999998 3.0
  endloop
endfacet
facet normal 0.0 0.0 -1.0
  outer loop
    vertex 1.8200000000000014 13.419999999999998 3.0
    vertex 0.7337000000000026 11.979999999999995 3.0
    vertex 0.7337000000000019 13.419999999999998 3.0
  endloop
endfacet
facet normal 0.0 0.0 -1.0
  outer loop
    vertex 0.7337000000000026 11.979999999999995 3.0
    vertex 1.8200000000000014 13.419999999999998 3.0
    vertex 1.8200000000000012 11.979999999999995 3.0
  endloop
endfacet
facet normal 0.0 0.0 -1.0
  outer loop
    vertex 1.8200000000000012 11.979999999999995 3.0
    vertex 1.8200000000000014 13.419999999999998 3.0
    vertex 1.8200000000000012 10.879999999999997 3.0
  endloop
endfacet
facet normal 0.0 0.0 -1.0
  outer loop
    vertex -0.14077850707852738 15.089999999999996 3.0
    vertex 0.7337000000000019 14.519999999999994 3.0
    vertex -0.13630000000002915 10.010000000000014 3.0
  endloop
endfacet
facet normal 0.0 0.0 -1.0
  outer loop
    vertex 0.7337000000000019 14.519999999999994 3.0
    vertex -0.14077850707852738 15.089999999999996 3.0
    vertex 2.69922149292147 15.089999999999998 3.0
  endloop
endfacet
facet normal 0.0 0.0 -1.0
  outer loop
    vertex 0.7337000000000019 14.519999999999994 3.0
    vertex 2.69922149292147 15.089999999999998 3.0
    vertex 1.8200000000000014 14.519999999999994 3.0
  endloop
endfacet
facet normal 0.0 0.0 -1.0
  outer loop
    vertex 1.8200000000000014 14.519999999999994 3.0
    vertex 2.69922149292147 15.089999999999998 3.0
    vertex 1.8200000000000014 13.419999999999998 3.0
  endloop
endfacet
facet normal 0.0 0.0 -1.0
  outer loop
    vertex -0.13630000000002915 10.010000000000014 3.0
    vertex 0.7337000000000026 10.879999999999997 3.0
    vertex 2.7036999999999654 10.009999999999998 3.0
  endloop
endfacet
facet normal 0.0 0.0 -1.0
  outer loop
    vertex 0.7337000000000026 10.879999999999997 3.0
    vertex -0.13630000000002915 10.010000000000014 3.0
    vertex 0.7337000000000019 13.419999999999998 3.0
  endloop
endfacet
facet normal 0.0 0.0 -1.0
  outer loop
    vertex 0.7337000000000019 13.419999999999998 3.0
    vertex -0.13630000000002915 10.010000000000014 3.0
    vertex 0.7337000000000019 14.519999999999994 3.0
  endloop
endfacet
facet normal 0.0 0.0 -1.0
  outer loop
    vertex 0.7337000000000026 10.879999999999997 3.0
    vertex 0.7337000000000019 13.419999999999998 3.0
    vertex 0.7337000000000026 11.979999999999995 3.0
  endloop
endfacet
facet normal 0.0 0.0 -1.0
  outer loop
    vertex 2.7036999999999654 10.009999999999998 3.0
    vertex 0.7337000000000026 10.879999999999997 3.0
    vertex 1.8200000000000012 10.879999999999997 3.0
  endloop
endfacet
facet normal 0.0 0.0 -1.0
  outer loop
    vertex 2.7036999999999654 10.009999999999998 3.0
    vertex 1.8200000000000012 10.879999999999997 3.0
    vertex 1.8200000000000014 13.419999999999998 3.0
  endloop
endfacet
facet normal 0.0 0.0 -1.0
  outer loop
    vertex 2.7036999999999654 10.009999999999998 3.0
    vertex 1.8200000000000014 13.419999999999998 3.0
    vertex 2.69922149292147 15.089999999999998 3.0
  endloop
endfacet
facet normal 0.0 0.0 -1.0
  outer loop
    vertex -0.15000000000000183 25.549999999999997 3.0
    vertex 0.7336999999999999 24.679999999999993 3.0
    vertex -0.14787476417652926 23.139331044027 3.0
  endloop
endfacet
facet normal 0.0 0.0 -1.0
  outer loop
    vertex 0.7336999999999999 24.679999999999993 3.0
    vertex -0.15000000000000183 25.549999999999997 3.0
    vertex 2.6900000000000004 25.549999999999997 3.0
  endloop
endfacet
facet normal 0.0 0.0 -1.0
  outer loop
    vertex 0.7336999999999999 24.679999999999993 3.0
    vertex 2.6900000000000004 25.549999999999997 3.0
    vertex 1.8200000000000007 24.679999999999993 3.0
  endloop
endfacet
facet normal 0.0 0.0 -1.0
  outer loop
    vertex 1.8200000000000007 24.679999999999993 3.0
    vertex 2.6900000000000004 25.549999999999997 3.0
    vertex 1.8200000000000007 23.58 3.0
  endloop
endfacet
facet normal 0.0 0.0 -1.0
  outer loop
    vertex 1.8200000000000007 23.58 3.0
    vertex 2.6900000000000004 25.549999999999997 3.0
    vertex 2.69 23.139331044027 3.0
  endloop
endfacet
facet normal 0.0 0.0 -1.0
  outer loop
    vertex -0.14787476417652926 23.139331044027 3.0
    vertex 0.7336999999999999 23.58 3.0
    vertex 2.69 23.139331044027 3.0
  endloop
endfacet
facet normal 0.0 0.0 -1.0
  outer loop
    vertex 0.7336999999999999 23.58 3.0
    vertex -0.14787476417652926 23.139331044027 3.0
    vertex 0.7336999999999999 24.679999999999993 3.0
  endloop
endfacet
facet normal 0.0 0.0 -1.0
  outer loop
    vertex 2.69 23.139331044027 3.0
    vertex 0.7336999999999999 23.58 3.0
    vertex 1.8200000000000007 23.58 3.0
  endloop
endfacet
facet normal 0.0 -1.0 0.0
  outer loop
    vertex 2.69 23.139331044027 11.999999999999998
    vertex -0.14787476417652926 23.139331044027 3.0
    vertex 2.69 23.139331044027 3.0
  endloop
endfacet
facet normal 0.0 -1.0 0.0
  outer loop
    vertex -0.14787476417652926 23.139331044027 3.0
    vertex 2.69 23.139331044027 11.999999999999998
    vertex -0.14787476417652926 23.139331044027 11.999999999999998
  endloop
endfacet
facet normal 0.0 -1.0 0.0
  outer loop
    vertex -0.14787476417652926 23.139331044027 11.999999999999998
    vertex 2.69 23.139331044027 11.999999999999998
    vertex 2.6899999999999995 23.139331044027 13.999999999999995
  endloop
endfacet
facet normal 0.0 -1.0 0.0
  outer loop
    vertex -0.14787476417652926 23.139331044027 11.999999999999998
    vertex 2.6899999999999995 23.139331044027 13.999999999999995
    vertex -0.1478747641765303 23.139331044027 13.999999999999995
  endloop
endfacet
facet normal -9.929459445591197e-16 1.0 4.676701737234622e-33
  outer loop
    vertex -0.14077850707852738 15.089999999999996 11.999999999999998
    vertex 2.69922149292147 15.089999999999998 3.0
    vertex -0.14077850707852738 15.089999999999996 3.0
  endloop
endfacet
facet normal -9.929459445591197e-16 1.0 4.676701737234622e-33
  outer loop
    vertex 2.69922149292147 15.089999999999998 3.0
    vertex -0.14077850707852738 15.089999999999996 11.999999999999998
    vertex 2.69922149292147 15.089999999999998 11.999999999999998
  endloop
endfacet
facet normal -9.929459445591197e-16 1.0 4.676701737234622e-33
  outer loop
    vertex 2.69922149292147 15.089999999999998 11.999999999999998
    vertex -0.14077850707852738 15.089999999999996 11.999999999999998
    vertex -0.14077850707852738 15.089999999999996 14.0
  endloop
endfacet
facet normal -9.929459445591197e-16 1.0 4.676701737234622e-33
  outer loop
    vertex 2.69922149292147 15.089999999999998 11.999999999999998
    vertex -0.14077850707852738 15.089999999999996 14.0
    vertex 2.69922149292147 15.089999999999998 13.999999999999996
  endloop
endfacet
facet normal 0.0 0.0 -1.0
  outer loop
    vertex 1.8200000000000007 24.679999999999993 11.999999999999998
    vertex 0.7336999999999998 23.58 11.999999999999998
    vertex 0.7336999999999998 24.679999999999993 11.999999999999998
  endloop
endfacet
facet normal 0.0 0.0 -1.0
  outer loop
    vertex 0.7336999999999998 23.58 11.999999999999998
    vertex 1.8200000000000007 24.679999999999993 11.999999999999998
    vertex 1.82 23.58 11.999999999999998
  endloop
endfacet
facet normal 0.0 0.0 -1.0
  outer loop
    vertex 1.8200000000000012 14.519999999999994 12.0
    vertex 0.7337000000000017 13.419999999999998 12.0
    vertex 0.7337000000000017 14.519999999999994 12.0
  endloop
endfacet
facet normal 0.0 0.0 -1.0
  outer loop
    vertex 0.7337000000000017 13.419999999999998 12.0
    vertex 1.8200000000000012 14.519999999999994 12.0
    vertex 1.8200000000000012 13.419999999999998 12.0
  endloop
endfacet
facet normal 0.0 0.0 -1.0
  outer loop
    vertex 1.8200000000000012 11.979999999999995 11.999999999999998
    vertex 0.7337000000000026 10.879999999999997 11.999999999999998
    vertex 0.7337000000000026 11.979999999999995 11.999999999999998
  endloop
endfacet
facet normal 0.0 0.0 -1.0
  outer loop
    vertex 0.7337000000000026 10.879999999999997 11.999999999999998
    vertex 1.8200000000000012 11.979999999999995 11.999999999999998
    vertex 1.8200000000000012 10.879999999999997 11.999999999999998
  endloop
endfacet
facet normal 0.9999996113945775 0.0008815955390012435 2.5876933632685397e-16
  outer loop
    vertex -0.14787476417652926 23.139331044027 11.999999999999998
    vertex -0.14077850707852738 15.089999999999996 14.0
    vertex -0.14077850707852738 15.089999999999996 11.999999999999998
  endloop
endfacet
facet normal 0.9999996113945775 0.0008815955390012435 2.5876933632685397e-16
  outer loop
    vertex -0.14077850707852738 15.089999999999996 14.0
    vertex -0.14787476417652926 23.139331044027 11.999999999999998
    vertex -0.1478747641765303 23.139331044027 13.999999999999995
  endloop
endfacet
facet normal 2.9542254465067416e-16 3.638042652361673e-16 1.0
  outer loop
    vertex -0.13767804176831028 11.573121830593484 14.0
    vertex 2.69922149292147 15.089999999999998 13.999999999999996
    vertex -0.14077850707852738 15.089999999999996 14.0
  endloop
endfacet
facet normal 2.9542254465067416e-16 3.638042652361673e-16 1.0
  outer loop
    vertex 2.69922149292147 15.089999999999998 13.999999999999996
    vertex -0.13767804176831028 11.573121830593484 14.0
    vertex -0.13679644622930903 11.073122219198908 14.0
  endloop
endfacet
facet normal 2.9542254465067416e-16 3.638042652361673e-16 1.0
  outer loop
    vertex 2.69922149292147 15.089999999999998 13.999999999999996
    vertex -0.13679644622930903 11.073122219198908 14.0
    vertex 2.2018789531838134 12.075625366648572 14.0
  endloop
endfacet
facet normal 2.9542254465067416e-16 3.638042652361673e-16 1.0
  outer loop
    vertex 2.2018789531838134 12.075625366648572 14.0
    vertex -0.13679644622930903 11.073122219198908 14.0
    vertex 2.2018789531838134 11.073122219198908 14.0
  endloop
endfacet
facet normal 2.9542254465067416e-16 3.638042652361673e-16 1.0
  outer loop
    vertex 2.69922149292147 15.089999999999998 13.999999999999996
    vertex 2.2018789531838134 12.075625366648572 14.0
    vertex 2.701878953183813 12.075625366648572 14.0
  endloop
endfacet
facet normal -0.0 -0.0 1.0
  outer loop
    vertex -0.13630000000002915 10.010000000000014 14.0
    vertex 2.7032013464923144 10.575625949556706 14.0
    vertex -0.13679644622930903 10.573122219198908 14.0
  endloop
endfacet
facet normal -0.0 -0.0 1.0
  outer loop
    vertex 2.7032013464923144 10.575625949556706 14.0
    vertex -0.13630000000002915 10.010000000000014 14.0
    vertex 2.7036999999999654 10.009999999999998 14.0
  endloop
endfacet
facet normal 0.0 0.0 1.0
  outer loop
    vertex 2.7032013464923144 10.575625949556706 13.5
    vertex -0.13679644622930903 11.073122219198908 13.5
    vertex -0.13679644622930903 10.573122219198908 13.5
  endloop
endfacet
facet normal 0.0 0.0 1.0
  outer loop
    vertex -0.13679644622930903 11.073122219198908 13.5
    vertex 2.7032013464923144 10.575625949556706 13.5
    vertex 2.2018789531838134 11.073122219198908 13.5
  endloop
endfacet
facet normal 0.0 0.0 1.0
  outer loop
    vertex 2.2018789531838134 11.073122219198908 13.5
    vertex 2.7032013464923144 10.575625949556706 13.5
    vertex 2.2018789531838134 12.075625366648572 13.5
  endloop
endfacet
facet normal 0.0 0.0 1.0
  outer loop
    vertex 2.2018789531838134 12.075625366648572 13.5
    vertex 2.7032013464923144 10.575625949556706 13.5
    vertex 2.701878953183813 12.075625366648572 13.5
  endloop
endfacet
facet normal -0.9999996113945775 -0.0008815955390007849 -0.0
  outer loop
    vertex 2.701878953183813 12.075625366648572 14.0
    vertex 2.7032013464923144 10.575625949556706 13.5
    vertex 2.7032013464923144 10.575625949556706 14.0
  endloop
endfacet
facet normal -0.9999996113945775 -0.0008815955390007849 -0.0
  outer loop
    vertex 2.7032013464923144 10.575625949556706 13.5
    vertex 2.701878953183813 12.075625366648572 14.0
    vertex 2.701878953183813 12.075625366648572 13.5
  endloop
endfacet
facet normal -0.0 -1.0 -0.0
  outer loop
    vertex 2.701878953183813 12.075625366648572 14.0
    vertex 2.2018789531838134 12.075625366648572 13.5
    vertex 2.701878953183813 12.075625366648572 13.5
  endloop
endfacet
facet normal -0.0 -1.0 -0.0
  outer loop
    vertex 2.2018789531838134 12.075625366648572 13.5
    vertex 2.701878953183813 12.075625366648572 14.0
    vertex 2.2018789531838134 12.075625366648572 14.0
  endloop
endfacet
facet normal 1.0 0.0 0.0
  outer loop
    vertex 2.2018789531838134 12.075625366648572 13.5
    vertex 2.2018789531838134 11.073122219198908 14.0
    vertex 2.2018789531838134 11.073122219198908 13.5
  endloop
endfacet
facet normal 1.0 0.0 0.0
  outer loop
    vertex 2.2018789531838134 11.073122219198908 14.0
    vertex 2.2018789531838134 12.075625366648572 13.5
    vertex 2.2018789531838134 12.075625366648572 14.0
  endloop
endfacet
facet normal -0.0 -1.0 -0.0
  outer loop
    vertex 2.2018789531838134 11.073122219198908 14.0
    vertex -0.13679644622930903 11.073122219198908 13.5
    vertex 2.2018789531838134 11.073122219198908 13.5
  endloop
endfacet
facet normal -0.0 -1.0 -0.0
  outer loop
    vertex -0.13679644622930903 11.073122219198908 13.5
    vertex 2.2018789531838134 11.073122219198908 14.0
    vertex -0.13679644622930903 11.073122219198908 14.0
  endloop
endfacet
facet normal 1.0 0.0 0.0
  outer loop
    vertex -0.13679644622930903 11.073122219198908 13.5
    vertex -0.13679644622930903 10.573122219198908 14.0
    vertex -0.13679644622930903 10.573122219198908 13.5
  endloop
endfacet
facet normal 1.0 0.0 0.0
  outer loop
    vertex -0.13679644622930903 10.573122219198908 14.0
    vertex -0.13679644622930903 11.073122219198908 13.5
    vertex -0.13679644622930903 11.073122219198908 14.0
  endloop
endfacet
facet normal -0.0008815955390010186 0.9999996113945775 -0.0
  outer loop
    vertex -0.13679644622930903 10.573122219198908 14.0
    vertex 2.7032013464923144 10.575625949556706 13.5
    vertex -0.13679644622930903 10.573122219198908 13.5
  endloop
endfacet
facet normal -0.0008815955390010186 0.9999996113945775 -0.0
  outer loop
    vertex 2.7032013464923144 10.575625949556706 13.5
    vertex -0.13679644622930903 10.573122219198908 14.0
    vertex 2.7032013464923144 10.575625949556706 14.0
  endloop
endfacet
facet normal -0.0 -0.0 1.0
  outer loop
    vertex -0.1478747641765303 23.139331044027 13.999999999999995
    vertex 2.6899999999999995 23.63933084972429 13.999999999999995
    vertex -0.14831556194603066 23.63933084972429 13.999999999999995
  endloop
endfacet
facet normal -0.0 -0.0 1.0
  outer loop
    vertex 2.6899999999999995 23.63933084972429 13.999999999999995
    vertex -0.1478747641765303 23.139331044027 13.999999999999995
    vertex 2.6899999999999995 23.139331044027 13.999999999999995
  endloop
endfacet
facet normal -0.0 -5.639935156805169e-15 1.0
  outer loop
    vertex 0.34999999999999815 25.549999999999997 14.0
    vertex -0.15000000000000183 25.549999999999997 14.0
    vertex -0.14955920223050148 25.050000194302708 13.999999999999996
  endloop
endfacet
facet normal -0.0 -0.0 1.0
  outer loop
    vertex 2.6900000000000004 25.549999999999997 14.0
    vertex 0.8499999999999981 25.549999999999997 14.0
    vertex 1.3499999999999979 25.050000194302708 14.0
  endloop
endfacet
facet normal -6.876298195697439e-16 -2.379331642355868e-15 1.0
  outer loop
    vertex 2.6899999999999995 24.13933084972429 13.999999999999995
    vertex 1.3499999999999979 24.63933084972429 13.999999999999995
    vertex 1.3499999999999979 24.13933084972429 13.999999999999995
  endloop
endfacet
facet normal -6.876298195697439e-16 -2.379331642355868e-15 1.0
  outer loop
    vertex 1.3499999999999979 24.63933084972429 13.999999999999995
    vertex 2.6899999999999995 24.13933084972429 13.999999999999995
    vertex 2.69 25.050000194302708 13.999999999999996
  endloop
endfacet
facet normal 5.0992194589343855e-15 -3.4551735065992588e-15 1.0
  outer loop
    vertex 0.3512438344159593 24.13933084972429 13.999999999999995
    vertex 0.557235899670428 25.05 13.999999999999996
    vertex 0.35062330171145734 24.843205172934773 13.999999999999996
  endloop
endfacet
facet normal 5.0992194589343855e-15 -3.4551735065992588e-15 1.0
  outer loop
    vertex 0.557235899670428 25.05 13.999999999999996
    vertex 0.3512438344159593 24.13933084972429 13.999999999999995
    vertex 0.8499999999999979 24.13933084972429 13.999999999999995
  endloop
endfacet
facet normal 5.0992194589343855e-15 -3.4551735065992588e-15 1.0
  outer loop
    vertex 0.557235899670428 25.05 13.999999999999996
    vertex 0.8499999999999979 24.13933084972429 13.999999999999995
    vertex 0.6428932757234055 25.05 14.0
  endloop
endfacet
facet normal 5.0992194589343855e-15 -3.4551735065992588e-15 1.0
  outer loop
    vertex 0.6428932757234055 25.05 14.0
    vertex 0.8499999999999979 24.13933084972429 13.999999999999995
    vertex 0.8499999999999979 24.8428933562062 13.999999999999991
  endloop
endfacet
facet normal 8.963406820429814e-17 -3.0891998504831586e-15 1.0
  outer loop
    vertex 0.3506233017114573 24.843205172934777 13.499999999999998
    vertex 0.8499999999999981 25.549999999999997 13.5
    vertex 0.3499999999999981 25.549999999999997 13.5
  endloop
endfacet
facet normal 8.963406820429814e-17 -3.0891998504831586e-15 1.0
  outer loop
    vertex 0.8499999999999981 25.549999999999997 13.5
    vertex 0.3506233017114573 24.843205172934777 13.499999999999998
    vertex 0.5572358996704279 25.05 13.499999999999998
  endloop
endfacet
facet normal 8.963406820429814e-17 -3.0891998504831586e-15 1.0
  outer loop
    vertex 0.8499999999999981 25.549999999999997 13.5
    vertex 0.5572358996704279 25.05 13.499999999999998
    vertex 0.6428932757234055 25.05 13.5
  endloop
endfacet
facet normal 8.963406820429814e-17 -3.0891998504831586e-15 1.0
  outer loop
    vertex 0.8499999999999981 25.549999999999997 13.5
    vertex 0.6428932757234055 25.05 13.5
    vertex 0.8499999999999979 24.842893356206204 13.499999999999993
  endloop
endfacet
facet normal 8.963406820429814e-17 -3.0891998504831586e-15 1.0
  outer loop
    vertex -0.1483155619460307 23.639330849724292 13.499999999999995
    vertex 0.3499999999999981 25.549999999999997 13.5
    vertex -0.1495592022305015 25.05000019430271 13.499999999999998
  endloop
endfacet
facet normal 8.963406820429814e-17 -3.0891998504831586e-15 1.0
  outer loop
    vertex 0.3499999999999981 25.549999999999997 13.5
    vertex -0.1483155619460307 23.639330849724292 13.499999999999995
    vertex 0.35124383441595924 24.139330849724292 13.499999999999995
  endloop
endfacet
facet normal 8.963406820429814e-17 -3.0891998504831586e-15 1.0
  outer loop
    vertex 0.35124383441595924 24.139330849724292 13.499999999999995
    vertex -0.1483155619460307 23.639330849724292 13.499999999999995
    vertex 2.6899999999999995 23.639330849724292 13.499999999999995
  endloop
endfacet
facet normal 8.963406820429814e-17 -3.0891998504831586e-15 1.0
  outer loop
    vertex 0.3499999999999981 25.549999999999997 13.5
    vertex 0.35124383441595924 24.139330849724292 13.499999999999995
    vertex 0.3506233017114573 24.843205172934777 13.499999999999998
  endloop
endfacet
facet normal 8.963406820429814e-17 -3.0891998504831586e-15 1.0
  outer loop
    vertex 0.35124383441595924 24.139330849724292 13.499999999999995
    vertex 2.6899999999999995 23.639330849724292 13.499999999999995
    vertex 0.8499999999999979 24.139330849724292 13.499999999999995
  endloop
endfacet
facet normal 8.963406820429814e-17 -3.0891998504831586e-15 1.0
  outer loop
    vertex 0.8499999999999979 24.139330849724292 13.499999999999995
    vertex 2.6899999999999995 23.639330849724292 13.499999999999995
    vertex 1.3499999999999979 24.139330849724292 13.499999999999995
  endloop
endfacet
facet normal 8.963406820429814e-17 -3.0891998504831586e-15 1.0
  outer loop
    vertex 0.8499999999999979 24.139330849724292 13.499999999999995
    vertex 1.3499999999999979 24.139330849724292 13.499999999999995
    vertex 0.8499999999999979 24.842893356206204 13.499999999999993
  endloop
endfacet
facet normal 8.963406820429814e-17 -3.0891998504831586e-15 1.0
  outer loop
    vertex 0.8499999999999979 24.842893356206204 13.499999999999993
    vertex 1.3499999999999979 24.139330849724292 13.499999999999995
    vertex 0.8499999999999981 25.549999999999997 13.5
  endloop
endfacet
facet normal 8.963406820429814e-17 -3.0891998504831586e-15 1.0
  outer loop
    vertex 1.3499999999999979 24.139330849724292 13.499999999999995
    vertex 2.6899999999999995 23.639330849724292 13.499999999999995
    vertex 2.6899999999999995 24.139330849724292 13.499999999999995
  endloop
endfacet
facet normal 8.963406820429814e-17 -3.0891998504831586e-15 1.0
  outer loop
    vertex 1.3499999999999979 24.139330849724292 13.499999999999995
    vertex 1.3499999999999979 25.05000019430271 13.5
    vertex 0.8499999999999981 25.549999999999997 13.5
  endloop
endfacet
facet normal 8.963406820429814e-17 -3.0891998504831586e-15 1.0
  outer loop
    vertex 1.3499999999999979 25.05000019430271 13.5
    vertex 1.3499999999999979 24.139330849724292 13.499999999999995
    vertex 1.3499999999999979 24.639330849724292 13.499999999999995
  endloop
endfacet
facet normal 8.963406820429814e-17 -3.0891998504831586e-15 1.0
  outer loop
    vertex 1.3499999999999979 25.05000019430271 13.5
    vertex 1.3499999999999979 24.639330849724292 13.499999999999995
    vertex 2.69 25.05000019430271 13.499999999999998
  endloop
endfacet
facet normal 8.963406820429814e-17 -3.0891998504831586e-15 1.0
  outer loop
    vertex 1.3499999999999979 25.05000019430271 13.5
    vertex 2.69 25.05000019430271 13.499999999999998
    vertex 2.6900000000000004 25.549999999999997 13.5
  endloop
endfacet
facet normal -0.0 -1.0 -3.089199850483159e-15
  outer loop
    vertex 2.6899999999999995 24.13933084972429 13.999999999999995
    vertex 1.3499999999999979 24.139330849724292 13.499999999999995
    vertex 2.6899999999999995 24.139330849724292 13.499999999999995
  endloop
endfacet
facet normal -0.0 -1.0 -3.089199850483159e-15
  outer loop
    vertex 1.3499999999999979 24.139330849724292 13.499999999999995
    vertex 2.6899999999999995 24.13933084972429 13.999999999999995
    vertex 1.3499999999999979 24.13933084972429 13.999999999999995
  endloop
endfacet
facet normal -1.0 -0.0 8.963406820429814e-17
  outer loop
    vertex 1.3499999999999979 24.63933084972429 13.999999999999995
    vertex 1.3499999999999979 24.139330849724292 13.499999999999995
    vertex 1.3499999999999979 24.13933084972429 13.999999999999995
  endloop
endfacet
facet normal -1.0 -0.0 8.963406820429814e-17
  outer loop
    vertex 1.3499999999999979 24.139330849724292 13.499999999999995
    vertex 1.3499999999999979 24.63933084972429 13.999999999999995
    vertex 1.3499999999999979 24.639330849724292 13.499999999999995
  endloop
endfacet
facet normal -0.29301778453569405 0.9561069908466279 2.97986994925345e-15
  outer loop
    vertex 1.3499999999999979 24.63933084972429 13.999999999999995
    vertex 2.69 25.05000019430271 13.499999999999998
    vertex 1.3499999999999979 24.639330849724292 13.499999999999995
  endloop
endfacet
facet normal -0.29301778453569405 0.9561069908466279 2.97986994925345e-15
  outer loop
    vertex 2.69 25.05000019430271 13.499999999999998
    vertex 1.3499999999999979 24.63933084972429 13.999999999999995
    vertex 2.69 25.050000194302708 13.999999999999996
  endloop
endfacet
facet normal -1.0 7.04991894600646e-16 8.963406820430034e-17
  outer loop
    vertex 2.6900000000000004 25.549999999999997 14.0
    vertex 2.69 25.05000019430271 13.499999999999998
    vertex 2.69 25.050000194302708 13.999999999999996
  endloop
endfacet
facet normal -1.0 7.04991894600646e-16 8.963406820430034e-17
  outer loop
    vertex 2.69 25.05000019430271 13.499999999999998
    vertex 2.6900000000000004 25.549999999999997 14.0
    vertex 2.6900000000000004 25.549999999999997 13.5
  endloop
endfacet
facet normal 0.3495904004761394 -0.936902637361499 -2.925614697054266e-15
  outer loop
    vertex 2.6900000000000004 25.549999999999997 14.0
    vertex 1.3499999999999979 25.05000019430271 13.5
    vertex 2.6900000000000004 25.549999999999997 13.5
  endloop
endfacet
facet normal 0.3495904004761394 -0.936902637361499 -2.925614697054266e-15
  outer loop
    vertex 1.3499999999999979 25.05000019430271 13.5
    vertex 2.6900000000000004 25.549999999999997 14.0
    vertex 1.3499999999999979 25.050000194302708 14.0
  endloop
endfacet
facet normal -0.7071066437937434 -0.707106918579325 -2.1210137420133366e-15
  outer loop
    vertex 1.3499999999999979 25.050000194302708 14.0
    vertex 0.8499999999999981 25.549999999999997 13.5
    vertex 1.3499999999999979 25.05000019430271 13.5
  endloop
endfacet
facet normal -0.7071066437937434 -0.707106918579325 -2.1210137420133366e-15
  outer loop
    vertex 0.8499999999999981 25.549999999999997 13.5
    vertex 1.3499999999999979 25.050000194302708 14.0
    vertex 0.8499999999999981 25.549999999999997 14.0
  endloop
endfacet
facet normal -0.0 -1.0 -3.089199850483159e-15
  outer loop
    vertex 0.8499999999999981 25.549999999999997 14.0
    vertex 0.3499999999999981 25.549999999999997 13.5
    vertex 0.8499999999999981 25.549999999999997 13.5
  endloop
endfacet
facet normal -0.0 -1.0 -3.089199850483159e-15
  outer loop
    vertex 0.3499999999999981 25.549999999999997 13.5
    vertex 0.8499999999999981 25.549999999999997 14.0
    vertex 0.34999999999999815 25.549999999999997 14.0
  endloop
endfacet
facet normal 0.7074184036123893 -0.7067950213679343 -2.246839863770432e-15
  outer loop
    vertex -0.1495592022305015 25.05000019430271 13.499999999999998
    vertex 0.34999999999999815 25.549999999999997 14.0
    vertex -0.14955920223050148 25.050000194302708 13.999999999999996
  endloop
endfacet
facet normal 0.7074184036123893 -0.7067950213679343 -2.246839863770432e-15
  outer loop
    vertex 0.34999999999999815 25.549999999999997 14.0
    vertex -0.1495592022305015 25.05000019430271 13.499999999999998
    vertex 0.3499999999999981 25.549999999999997 13.5
  endloop
endfacet
facet normal 0.9999996113945774 0.000881595539000749 -8.691060856474545e-17
  outer loop
    vertex -0.1483155619460307 23.639330849724292 13.499999999999995
    vertex -0.14955920223050148 25.050000194302708 13.999999999999996
    vertex -0.14831556194603066 23.63933084972429 13.999999999999995
  endloop
endfacet
facet normal 0.9999996113945774 0.000881595539000749 -8.691060856474545e-17
  outer loop
    vertex -0.14955920223050148 25.050000194302708 13.999999999999996
    vertex -0.1483155619460307 23.639330849724292 13.499999999999995
    vertex -0.1495592022305015 25.05000019430271 13.499999999999998
  endloop
endfacet
facet normal -0.0 1.0 3.0891998504831586e-15
  outer loop
    vertex -0.14831556194603066 23.63933084972429 13.999999999999995
    vertex 2.6899999999999995 23.639330849724292 13.499999999999995
    vertex -0.1483155619460307 23.639330849724292 13.499999999999995
  endloop
endfacet
facet normal -0.0 1.0 3.0891998504831586e-15
  outer loop
    vertex 2.6899999999999995 23.639330849724292 13.499999999999995
    vertex -0.14831556194603066 23.63933084972429 13.999999999999995
    vertex 2.6899999999999995 23.63933084972429 13.999999999999995
  endloop
endfacet
facet normal -1.0 -0.0 8.963406820429814e-17
  outer loop
    vertex 2.6899999999999995 24.13933084972429 13.999999999999995
    vertex 2.6899999999999995 23.639330849724292 13.499999999999995
    vertex 2.6899999999999995 23.63933084972429 13.999999999999995
  endloop
endfacet
facet normal -1.0 -0.0 8.963406820429814e-17
  outer loop
    vertex 2.6899999999999995 23.639330849724292 13.499999999999995
    vertex 2.6899999999999995 24.13933084972429 13.999999999999995
    vertex 2.6899999999999995 24.139330849724292 13.499999999999995
  endloop
endfacet
facet normal -0.0 -1.0 -3.0891998504831586e-15
  outer loop
    vertex 0.8499999999999979 24.13933084972429 13.999999999999995
    vertex 0.35124383441595924 24.139330849724292 13.499999999999995
    vertex 0.8499999999999979 24.139330849724292 13.499999999999995
  endloop
endfacet
facet normal -0.0 -1.0 -3.0891998504831586e-15
  outer loop
    vertex 0.35124383441595924 24.139330849724292 13.499999999999995
    vertex 0.8499999999999979 24.13933084972429 13.999999999999995
    vertex 0.3512438344159593 24.13933084972429 13.999999999999995
  endloop
endfacet
facet normal -0.9999996113945775 -0.0008815955390007758 8.69106085647454e-17
  outer loop
    vertex 0.35062330171145734 24.843205172934773 13.999999999999996
    vertex 0.35124383441595924 24.139330849724292 13.499999999999995
    vertex 0.3512438344159593 24.13933084972429 13.999999999999995
  endloop
endfacet
facet normal -0.9999996113945775 -0.0008815955390007758 8.69106085647454e-17
  outer loop
    vertex 0.35124383441595924 24.139330849724292 13.499999999999995
    vertex 0.35062330171145734 24.843205172934773 13.999999999999996
    vertex 0.3506233017114573 24.843205172934777 13.499999999999998
  endloop
endfacet
facet normal -0.7074184036123902 0.7067950213679335 2.2468398637704298e-15
  outer loop
    vertex 0.557235899670428 25.05 13.999999999999996
    vertex 0.3506233017114573 24.843205172934777 13.499999999999998
    vertex 0.35062330171145734 24.843205172934773 13.999999999999996
  endloop
endfacet
facet normal -0.7074184036123902 0.7067950213679335 2.2468398637704298e-15
  outer loop
    vertex 0.3506233017114573 24.843205172934777 13.499999999999998
    vertex 0.557235899670428 25.05 13.999999999999996
    vertex 0.5572358996704279 25.05 13.499999999999998
  endloop
endfacet
facet normal -1.017009910607887e-28 1.0 3.0891998504831586e-15
  outer loop
    vertex 0.557235899670428 25.05 13.999999999999996
    vertex 0.6428932757234055 25.05 13.5
    vertex 0.5572358996704279 25.05 13.499999999999998
  endloop
endfacet
facet normal -1.017009910607887e-28 1.0 3.0891998504831586e-15
  outer loop
    vertex 0.6428932757234055 25.05 13.5
    vertex 0.557235899670428 25.05 13.999999999999996
    vertex 0.6428932757234055 25.05 14.0
  endloop
endfacet
facet normal 0.7071066437937467 0.7071069185793217 2.1210137420133267e-15
  outer loop
    vertex 0.6428932757234055 25.05 13.5
    vertex 0.8499999999999979 24.8428933562062 13.999999999999991
    vertex 0.8499999999999979 24.842893356206204 13.499999999999993
  endloop
endfacet
facet normal 0.7071066437937467 0.7071069185793217 2.1210137420133267e-15
  outer loop
    vertex 0.8499999999999979 24.8428933562062 13.999999999999991
    vertex 0.6428932757234055 25.05 13.5
    vertex 0.6428932757234055 25.05 14.0
  endloop
endfacet
facet normal 1.0 -0.0 -0.0
  outer loop
    vertex 0.8499999999999979 24.139330849724292 13.499999999999995
    vertex 0.8499999999999979 24.8428933562062 13.999999999999991
    vertex 0.8499999999999979 24.13933084972429 13.999999999999995
  endloop
endfacet
facet normal 1.0 -0.0 -0.0
  outer loop
    vertex 0.8499999999999979 24.8428933562062 13.999999999999991
    vertex 0.8499999999999979 24.139330849724292 13.499999999999995
    vertex 0.8499999999999979 24.842893356206204 13.499999999999993
  endloop
endfacet
endsolid serial esp harness
