solid serial board harness
facet normal -0.0 1.0 -0.0
  outer loop
    vertex -1.15 26.549999999999997 14.0
    vertex 3.6900000000000013 26.549999999999997 0.0
    vertex -1.15 26.549999999999997 0.0
  endloop
endfacet
facet normal -0.0 1.0 -0.0
  outer loop
    vertex 3.6900000000000013 26.549999999999997 0.0
    vertex -1.15 26.549999999999997 14.0
    vertex 3.6900000000000013 26.549999999999997 14.0
  endloop
endfacet
facet normal 0.0 -1.0 0.0
  outer loop
    vertex 2.6900000000000004 25.549999999999997 14.0
    vertex -0.15000000000000183 25.549999999999997 0.0
    vertex 2.6900000000000004 25.549999999999997 0.0
  endloop
endfacet
facet normal 0.0 -1.0 0.0
  outer loop
    vertex -0.15000000000000183 25.549999999999997 0.0
    vertex 2.6900000000000004 25.549999999999997 14.0
    vertex -0.15000000000000183 25.549999999999997 14.0
  endloop
endfacet
facet normal 1.1652754060115273e-15 -1.0 0.0
  outer loop
    vertex 3.7037000000000138 9.01000000000001 14.0
    vertex -1.1362999999999892 9.010000000000005 0.0
    vertex 3.7037000000000138 9.01000000000001 0.0
  endloop
endfacet
facet normal 1.1652754060115273e-15 -1.0 0.0
  outer loop
    vertex -1.1362999999999892 9.010000000000005 0.0
    vertex 3.7037000000000138 9.01000000000001 14.0
    vertex -1.1362999999999892 9.010000000000005 14.0
  endloop
endfacet
facet normal 0.0 -1.0 0.0
  outer loop
    vertex 1.8200000000000012 11.979999999999995 11.999999999999998
    vertex 0.7337000000000026 11.979999999999995 3.0
    vertex 1.8200000000000012 11.979999999999995 3.0
  endloop
endfacet
facet normal 0.0 -1.0 0.0
  outer loop
    vertex 0.7337000000000026 11.979999999999995 3.0
    vertex 1.8200000000000012 11.979999999999995 11.999999999999998
    vertex 0.7337000000000026 11.979999999999995 11.999999999999998
  endloop
endfacet
facet normal 1.0 -0.0 -0.0
  outer loop
    vertex 0.7337000000000026 11.979999999999995 3.0
    vertex 0.7337000000000026 10.879999999999997 11.999999999999998
    vertex 0.7337000000000026 10.879999999999997 3.0
  endloop
endfacet
facet normal 1.0 -0.0 -0.0
  outer loop
    vertex 0.7337000000000026 10.879999999999997 11.999999999999998
    vertex 0.7337000000000026 11.979999999999995 3.0
    vertex 0.7337000000000026 11.979999999999995 11.999999999999998
  endloop
endfacet
facet normal -0.0 1.0 -0.0
  outer loop
    vertex 0.7337000000000026 10.879999999999997 11.999999999999998
    vertex 1.8200000000000012 10.879999999999997 3.0
    vertex 0.7337000000000026 10.879999999999997 3.0
  endloop
endfacet
facet normal -0.0 1.0 -0.0
  outer loop
    vertex 1.8200000000000012 10.879999999999997 3.0
    vertex 0.7337000000000026 10.879999999999997 11.999999999999998
    vertex 1.8200000000000012 10.879999999999997 11.999999999999998
  endloop
endfacet
facet normal -1.0 0.0 0.0
  outer loop
    vertex 1.8200000000000012 11.979999999999995 11.999999999999998
    vertex 1.8200000000000012 10.879999999999997 3.0
    vertex 1.8200000000000012 10.879999999999997 11.999999999999998
  endloop
endfacet
facet normal -1.0 0.0 0.0
  outer loop
    vertex 1.8200000000000012 10.879999999999997 3.0
    vertex 1.8200000000000012 11.979999999999995 11.999999999999998
    vertex 1.8200000000000012 11.979999999999995 3.0
  endloop
endfacet
facet normal 0.9999995209090168 0.0009774957469563285 -5.180542405608963e-05
  outer loop
    vertex -0.15000000000000183 25.549999999999997 0.0
    vertex -0.13630000000002915 10.010000000000014 3.0
    vertex -0.13630000000002915 10.010000000000014 0.0
  endloop
endfacet
facet normal 0.9999995209090168 0.0009774957469563285 -5.180542405608963e-05
  outer loop
    vertex -0.13630000000002915 10.010000000000014 3.0
    vertex -0.15000000000000183 25.549999999999997 0.0
    vertex -0.13630000000003073 12.549999999999999 3.0
  endloop
endfacet
facet normal 0.9999995209090168 0.0009774957469563285 -5.180542405608963e-05
  outer loop
    vertex -0.13630000000003073 12.549999999999999 3.0
    vertex -0.15000000000000183 25.549999999999997 0.0
    vertex -0.14305871879914758 17.930000200659137 3.0
  endloop
endfacet
facet normal 0.9999995209090168 0.0009774957469563285 -5.180542405608963e-05
  outer loop
    vertex -0.13630000000003073 12.549999999999999 3.0
    vertex -0.14305871879914758 17.930000200659137 3.0
    vertex -0.13630000000003073 12.549999999999999 12.000000000000005
  endloop
endfacet
facet normal 0.9999995209090168 0.0009774957469563285 -5.180542405608963e-05
  outer loop
    vertex -0.13630000000003073 12.549999999999999 12.000000000000005
    vertex -0.14305871879914758 17.930000200659137 3.0
    vertex -0.13630000000003073 12.549999999999999 14.000000000000009
  endloop
endfacet
facet normal 0.9999995209090168 0.0009774957469563285 -5.180542405608963e-05
  outer loop
    vertex -0.14305871879914758 17.930000200659137 3.0
    vertex -0.15000000000000183 25.549999999999997 0.0
    vertex -0.14787476417652926 22.709999999999997 3.0
  endloop
endfacet
facet normal 0.9999995209090168 0.0009774957469563285 -5.180542405608963e-05
  outer loop
    vertex -0.14787476417652926 22.709999999999997 3.0
    vertex -0.15000000000000183 25.549999999999997 0.0
    vertex -0.1478747641765303 22.709999999999997 13.999999999999995
  endloop
endfacet
facet normal 0.9999995209090168 0.0009774957469563285 -5.180542405608963e-05
  outer loop
    vertex -0.1478747641765303 22.709999999999997 13.999999999999995
    vertex -0.15000000000000183 25.549999999999997 0.0
    vertex -0.15000000000000183 25.549999999999997 14.0
  endloop
endfacet
facet normal 0.9999995209090168 0.0009774957469563285 -5.180542405608963e-05
  outer loop
    vertex -0.14305871879914758 17.930000200659137 14.0
    vertex -0.13630000000003073 12.549999999999999 14.000000000000009
    vertex -0.14305871879914758 17.930000200659137 3.0
  endloop
endfacet
facet normal 0.0 0.0 -1.0
  outer loop
    vertex -1.15 26.549999999999997 0.0
    vertex -0.15000000000000183 25.549999999999997 0.0
    vertex -1.1362999999999892 9.010000000000005 0.0
  endloop
endfacet
facet normal 0.0 0.0 -1.0
  outer loop
    vertex -0.15000000000000183 25.549999999999997 0.0
    vertex -1.15 26.549999999999997 0.0
    vertex 3.6900000000000013 26.549999999999997 0.0
  endloop
endfacet
facet normal 0.0 0.0 -1.0
  outer loop
    vertex -0.15000000000000183 25.549999999999997 0.0
    vertex 3.6900000000000013 26.549999999999997 0.0
    vertex 2.6900000000000004 25.549999999999997 0.0
  endloop
endfacet
facet normal 0.0 0.0 -1.0
  outer loop
    vertex 2.6900000000000004 25.549999999999997 0.0
    vertex 3.6900000000000013 26.549999999999997 0.0
    vertex 2.7036999999999654 10.009999999999998 0.0
  endloop
endfacet
facet normal 0.0 0.0 -1.0
  outer loop
    vertex -1.1362999999999892 9.010000000000005 0.0
    vertex -0.13630000000002915 10.010000000000014 0.0
    vertex 3.7037000000000138 9.01000000000001 0.0
  endloop
endfacet
facet normal 0.0 0.0 -1.0
  outer loop
    vertex -0.13630000000002915 10.010000000000014 0.0
    vertex -1.1362999999999892 9.010000000000005 0.0
    vertex -0.15000000000000183 25.549999999999997 0.0
  endloop
endfacet
facet normal 0.0 0.0 -1.0
  outer loop
    vertex 3.7037000000000138 9.01000000000001 0.0
    vertex -0.13630000000002915 10.010000000000014 0.0
    vertex 2.7036999999999654 10.009999999999998 0.0
  endloop
endfacet
facet normal 0.0 0.0 -1.0
  outer loop
    vertex 3.7037000000000138 9.01000000000001 0.0
    vertex 2.7036999999999654 10.009999999999998 0.0
    vertex 3.6900000000000013 26.549999999999997 0.0
  endloop
endfacet
facet normal 0.9999996949635332 0.0007810715975491778 -0.0
  outer loop
    vertex 3.6900000000000013 26.549999999999997 0.0
    vertex 3.7037000000000138 9.01000000000001 14.0
    vertex 3.7037000000000138 9.01000000000001 0.0
  endloop
endfacet
facet normal 0.9999996949635332 0.0007810715975491778 -0.0
  outer loop
    vertex 3.7037000000000138 9.01000000000001 14.0
    vertex 3.6900000000000013 26.549999999999997 0.0
    vertex 3.6900000000000013 26.549999999999997 14.0
  endloop
endfacet
facet normal -0.0 -0.0 1.0
  outer loop
    vertex -0.14305871879914758 17.930000200659137 14.0
    vertex 2.6899999999999995 22.709999999999997 13.999999999999995
    vertex -0.1478747641765303 22.709999999999997 13.999999999999995
  endloop
endfacet
facet normal -0.0 -0.0 1.0
  outer loop
    vertex 2.6899999999999995 22.709999999999997 13.999999999999995
    vertex -0.14305871879914758 17.930000200659137 14.0
    vertex 2.6969412812008495 17.93000020065914 13.999999999999996
  endloop
endfacet
facet normal -0.0 -0.0 1.0
  outer loop
    vertex 2.6899999999999995 22.709999999999997 13.999999999999995
    vertex 2.6969412812008495 17.93000020065914 13.999999999999996
    vertex 2.6900000000000004 25.549999999999997 14.0
  endloop
endfacet
facet normal -0.0 -0.0 1.0
  outer loop
    vertex -1.1362999999999892 9.010000000000005 14.0
    vertex -0.1478747641765303 22.709999999999997 13.999999999999995
    vertex -0.15000000000000183 25.549999999999997 14.0
  endloop
endfacet
facet normal -0.0 -0.0 1.0
  outer loop
    vertex -0.1478747641765303 22.709999999999997 13.999999999999995
    vertex -1.1362999999999892 9.010000000000005 14.0
    vertex -0.13630000000002915 10.010000000000014 14.0
  endloop
endfacet
facet normal -0.0 -0.0 1.0
  outer loop
    vertex -0.13630000000002915 10.010000000000014 14.0
    vertex -1.1362999999999892 9.010000000000005 14.0
    vertex 3.7037000000000138 9.01000000000001 14.0
  endloop
endfacet
facet normal -0.0 -0.0 1.0
  outer loop
    vertex -0.1478747641765303 22.709999999999997 13.999999999999995
    vertex -0.13630000000002915 10.010000000000014 14.0
    vertex -0.13767804176831028 11.573121830593484 14.0
  endloop
endfacet
facet normal -0.0 -0.0 1.0
  outer loop
    vertex -0.1478747641765303 22.709999999999997 13.999999999999995
    vertex -0.13767804176831028 11.573121830593484 14.0
    vertex -0.14305871879914758 17.930000200659137 14.0
  endloop
endfacet
facet normal -0.0 -0.0 1.0
  outer loop
    vertex -0.13767804176831028 11.573121830593484 14.0
    vertex -0.13630000000002915 10.010000000000014 14.0
    vertex -0.13679644622930903 10.573122219198908 14.0
  endloop
endfacet
facet normal -0.0 -0.0 1.0
  outer loop
    vertex -0.13630000000002915 10.010000000000014 14.0
    vertex 3.7037000000000138 9.01000000000001 14.0
    vertex 2.7036999999999654 10.009999999999998 14.0
  endloop
endfacet
facet normal -0.0 -0.0 1.0
  outer loop
    vertex 2.7036999999999654 10.009999999999998 14.0
    vertex 3.7037000000000138 9.01000000000001 14.0
    vertex 2.7036999999999662 12.549999999999999 14.000000000000002
  endloop
endfacet
facet normal -0.0 -0.0 1.0
  outer loop
    vertex 2.7036999999999662 12.549999999999999 14.000000000000002
    vertex 3.7037000000000138 9.01000000000001 14.0
    vertex 3.6900000000000013 26.549999999999997 14.0
  endloop
endfacet
facet normal -0.0 -0.0 1.0
  outer loop
    vertex -1.15 26.549999999999997 14.0
    vertex -0.15000000000000183 25.549999999999997 14.0
    vertex 3.6900000000000013 26.549999999999997 14.0
  endloop
endfacet
facet normal -0.0 -0.0 1.0
  outer loop
    vertex -0.15000000000000183 25.549999999999997 14.0
    vertex -1.15 26.549999999999997 14.0
    vertex -1.1362999999999892 9.010000000000005 14.0
  endloop
endfacet
facet normal -0.0 -0.0 1.0
  outer loop
    vertex 3.6900000000000013 26.549999999999997 14.0
    vertex -0.15000000000000183 25.549999999999997 14.0
    vertex 2.6900000000000004 25.549999999999997 14.0
  endloop
endfacet
facet normal -0.0 -0.0 1.0
  outer loop
    vertex 3.6900000000000013 26.549999999999997 14.0
    vertex 2.6900000000000004 25.549999999999997 14.0
    vertex 2.6969412812008495 17.93000020065914 13.999999999999996
  endloop
endfacet
facet normal -0.0 -0.0 1.0
  outer loop
    vertex 3.6900000000000013 26.549999999999997 14.0
    vertex 2.6969412812008495 17.93000020065914 13.999999999999996
    vertex 2.7036999999999662 12.549999999999999 14.000000000000002
  endloop
endfacet
facet normal -0.0 -0.0 1.0
  outer loop
    vertex 2.7032013464923144 10.575625949556706 14.0
    vertex 2.7036999999999662 12.549999999999999 14.000000000000002
    vertex 2.701878953183813 12.075625366648572 14.0
  endloop
endfacet
facet normal -0.0 -0.0 1.0
  outer loop
    vertex 2.7036999999999662 12.549999999999999 14.000000000000002
    vertex 2.7032013464923144 10.575625949556706 14.0
    vertex 2.7036999999999654 10.009999999999998 14.0
  endloop
endfacet
facet normal -0.0 -0.0 1.0
  outer loop
    vertex -0.13679644622930903 11.073122219198908 14.0
    vertex -0.13767804176831028 11.573121830593484 14.0
    vertex -0.13679644622930903 10.573122219198908 14.0
  endloop
endfacet
facet normal -0.0 -0.0 1.0
  outer loop
    vertex -0.13630000000003073 12.549999999999999 14.000000000000009
    vertex -0.14305871879914758 17.930000200659137 14.0
    vertex -0.13767804176831028 11.573121830593484 14.0
  endloop
endfacet
facet normal 5.957675667354725e-15 1.0 -0.0
  outer loop
    vertex -0.13630000000002915 10.010000000000014 3.0
    vertex 2.7036999999999654 10.009999999999998 0.0
    vertex -0.13630000000002915 10.010000000000014 0.0
  endloop
endfacet
facet normal 5.957675667354725e-15 1.0 -0.0
  outer loop
    vertex 2.7036999999999654 10.009999999999998 0.0
    vertex -0.13630000000002915 10.010000000000014 3.0
    vertex 2.7036999999999654 10.009999999999998 3.0
  endloop
endfacet
facet normal 0.0 0.0 -1.0
  outer loop
    vertex 1.8200000000000012 11.979999999999995 11.999999999999998
    vertex 0.7337000000000026 10.879999999999997 11.999999999999998
    vertex 0.7337000000000026 11.979999999999995 11.999999999999998
  endloop
endfacet
facet normal 0.0 0.0 -1.0
  outer loop
    vertex 0.7337000000000026 10.879999999999997 11.999999999999998
    vertex 1.8200000000000012 11.979999999999995 11.999999999999998
    vertex 1.8200000000000012 10.879999999999997 11.999999999999998
  endloop
endfacet
facet normal -0.0 -0.0 1.0
  outer loop
    vertex -0.13630000000002915 10.010000000000014 14.0
    vertex 2.7032013464923144 10.575625949556706 14.0
    vertex -0.13679644622930903 10.573122219198908 14.0
  endloop
endfacet
facet normal -0.0 -0.0 1.0
  outer loop
    vertex 2.7032013464923144 10.575625949556706 14.0
    vertex -0.13630000000002915 10.010000000000014 14.0
    vertex 2.7036999999999654 10.009999999999998 14.0
  endloop
endfacet
facet normal 0.0 0.0 1.0
  outer loop
    vertex 2.7032013464923144 10.575625949556706 13.5
    vertex -0.13679644622930903 11.073122219198908 13.5
    vertex -0.13679644622930903 10.573122219198908 13.5
  endloop
endfacet
facet normal 0.0 0.0 1.0
  outer loop
    vertex -0.13679644622930903 11.073122219198908 13.5
    vertex 2.7032013464923144 10.575625949556706 13.5
    vertex 2.2018789531838134 11.073122219198908 13.5
  endloop
endfacet
facet normal 0.0 0.0 1.0
  outer loop
    vertex 2.2018789531838134 11.073122219198908 13.5
    vertex 2.7032013464923144 10.575625949556706 13.5
    vertex 2.2018789531838134 12.075625366648572 13.5
  endloop
endfacet
facet normal 0.0 0.0 1.0
  outer loop
    vertex 2.2018789531838134 12.075625366648572 13.5
    vertex 2.7032013464923144 10.575625949556706 13.5
    vertex 2.701878953183813 12.075625366648572 13.5
  endloop
endfacet
facet normal -0.9999996113945775 -0.0008815955390007849 -0.0
  outer loop
    vertex 2.701878953183813 12.075625366648572 14.0
    vertex 2.7032013464923144 10.575625949556706 13.5
    vertex 2.7032013464923144 10.575625949556706 14.0
  endloop
endfacet
facet normal -0.9999996113945775 -0.0008815955390007849 -0.0
  outer loop
    vertex 2.7032013464923144 10.575625949556706 13.5
    vertex 2.701878953183813 12.075625366648572 14.0
    vertex 2.701878953183813 12.075625366648572 13.5
  endloop
endfacet
facet normal -0.0 -1.0 -0.0
  outer loop
    vertex 2.701878953183813 12.075625366648572 14.0
    vertex 2.2018789531838134 12.075625366648572 13.5
    vertex 2.701878953183813 12.075625366648572 13.5
  endloop
endfacet
facet normal -0.0 -1.0 -0.0
  outer loop
    vertex 2.2018789531838134 12.075625366648572 13.5
    vertex 2.701878953183813 12.075625366648572 14.0
    vertex 2.2018789531838134 12.075625366648572 14.0
  endloop
endfacet
facet normal 1.0 0.0 0.0
  outer loop
    vertex 2.2018789531838134 12.075625366648572 13.5
    vertex 2.2018789531838134 11.073122219198908 14.0
    vertex 2.2018789531838134 11.073122219198908 13.5
  endloop
endfacet
facet normal 1.0 0.0 0.0
  outer loop
    vertex 2.2018789531838134 11.073122219198908 14.0
    vertex 2.2018789531838134 12.075625366648572 13.5
    vertex 2.2018789531838134 12.075625366648572 14.0
  endloop
endfacet
facet normal -0.0 -1.0 -0.0
  outer loop
    vertex 2.2018789531838134 11.073122219198908 14.0
    vertex -0.13679644622930903 11.073122219198908 13.5
    vertex 2.2018789531838134 11.073122219198908 13.5
  endloop
endfacet
facet normal -0.0 -1.0 -0.0
  outer loop
    vertex -0.13679644622930903 11.073122219198908 13.5
    vertex 2.2018789531838134 11.073122219198908 14.0
    vertex -0.13679644622930903 11.073122219198908 14.0
  endloop
endfacet
facet normal 1.0 0.0 0.0
  outer loop
    vertex -0.13679644622930903 11.073122219198908 13.5
    vertex -0.13679644622930903 10.573122219198908 14.0
    vertex -0.13679644622930903 10.573122219198908 13.5
  endloop
endfacet
facet normal 1.0 0.0 0.0
  outer loop
    vertex -0.13679644622930903 10.573122219198908 14.0
    vertex -0.13679644622930903 11.073122219198908 13.5
    vertex -0.13679644622930903 11.073122219198908 14.0
  endloop
endfacet
facet normal -0.0008815955390010186 0.9999996113945775 -0.0
  outer loop
    vertex -0.13679644622930903 10.573122219198908 14.0
    vertex 2.7032013464923144 10.575625949556706 13.5
    vertex -0.13679644622930903 10.573122219198908 13.5
  endloop
endfacet
facet normal -0.0008815955390010186 0.9999996113945775 -0.0
  outer loop
    vertex 2.7032013464923144 10.575625949556706 13.5
    vertex -0.13679644622930903 10.573122219198908 14.0
    vertex 2.7032013464923144 10.575625949556706 14.0
  endloop
endfacet
facet normal 0.0 0.0 -1.0
  outer loop
    vertex 1.8200000000000014 19.599999999999998 12.0
    vertex 0.733700000000002 18.500000000000004 12.0
    vertex 0.733700000000002 19.599999999999998 12.0
  endloop
endfacet
facet normal 0.0 0.0 -1.0
  outer loop
    vertex 0.733700000000002 18.500000000000004 12.0
    vertex 1.8200000000000014 19.599999999999998 12.0
    vertex 1.8200000000000014 18.500000000000004 12.0
  endloop
endfacet
facet normal 0.0 -1.0 0.0
  outer loop
    vertex 1.8200000000000014 19.599999999999998 12.0
    vertex 0.7337000000000022 19.599999999999998 3.0
    vertex 1.8200000000000018 19.599999999999998 3.0
  endloop
endfacet
facet normal 0.0 -1.0 0.0
  outer loop
    vertex 0.7337000000000022 19.599999999999998 3.0
    vertex 1.8200000000000014 19.599999999999998 12.0
    vertex 0.733700000000002 19.599999999999998 12.0
  endloop
endfacet
facet normal -1.0 0.0 -3.9166201146498574e-17
  outer loop
    vertex 1.8200000000000014 19.599999999999998 12.0
    vertex 1.8200000000000018 18.500000000000004 3.0
    vertex 1.8200000000000014 18.500000000000004 12.0
  endloop
endfacet
facet normal -1.0 0.0 -3.9166201146498574e-17
  outer loop
    vertex 1.8200000000000018 18.500000000000004 3.0
    vertex 1.8200000000000014 19.599999999999998 12.0
    vertex 1.8200000000000018 19.599999999999998 3.0
  endloop
endfacet
facet normal -0.0 1.0 -0.0
  outer loop
    vertex 0.733700000000002 18.500000000000004 12.0
    vertex 1.8200000000000018 18.500000000000004 3.0
    vertex 0.7337000000000022 18.500000000000004 3.0
  endloop
endfacet
facet normal -0.0 1.0 -0.0
  outer loop
    vertex 1.8200000000000018 18.500000000000004 3.0
    vertex 0.733700000000002 18.500000000000004 12.0
    vertex 1.8200000000000014 18.500000000000004 12.0
  endloop
endfacet
facet normal 1.0 -0.0 1.9583100573249287e-17
  outer loop
    vertex 0.7337000000000022 19.599999999999998 3.0
    vertex 0.733700000000002 18.500000000000004 12.0
    vertex 0.7337000000000022 18.500000000000004 3.0
  endloop
endfacet
facet normal 1.0 -0.0 1.9583100573249287e-17
  outer loop
    vertex 0.733700000000002 18.500000000000004 12.0
    vertex 0.7337000000000022 19.599999999999998 3.0
    vertex 0.733700000000002 19.599999999999998 12.0
  endloop
endfacet
facet normal 0.0 0.0 -1.0
  outer loop
    vertex 1.8200000000000014 22.14 12.0
    vertex 0.7337000000000022 21.040000000000006 12.0
    vertex 0.7337000000000022 22.14 12.0
  endloop
endfacet
facet normal 0.0 0.0 -1.0
  outer loop
    vertex 0.7337000000000022 21.040000000000006 12.0
    vertex 1.8200000000000014 22.14 12.0
    vertex 1.8200000000000014 21.040000000000006 12.0
  endloop
endfacet
facet normal 1.0 -0.0 1.9583100573249287e-17
  outer loop
    vertex 0.7337000000000025 22.14 3.0
    vertex 0.7337000000000022 21.040000000000006 12.0
    vertex 0.7337000000000025 21.040000000000006 3.0
  endloop
endfacet
facet normal 1.0 -0.0 1.9583100573249287e-17
  outer loop
    vertex 0.7337000000000022 21.040000000000006 12.0
    vertex 0.7337000000000025 22.14 3.0
    vertex 0.7337000000000022 22.14 12.0
  endloop
endfacet
facet normal -0.0 1.0 -0.0
  outer loop
    vertex 0.7337000000000022 21.040000000000006 12.0
    vertex 1.820000000000002 21.040000000000006 3.0
    vertex 0.7337000000000025 21.040000000000006 3.0
  endloop
endfacet
facet normal -0.0 1.0 -0.0
  outer loop
    vertex 1.820000000000002 21.040000000000006 3.0
    vertex 0.7337000000000022 21.040000000000006 12.0
    vertex 1.8200000000000014 21.040000000000006 12.0
  endloop
endfacet
facet normal 0.0 -1.0 0.0
  outer loop
    vertex 1.8200000000000014 22.14 12.0
    vertex 0.7337000000000025 22.14 3.0
    vertex 1.820000000000002 22.14 3.0
  endloop
endfacet
facet normal 0.0 -1.0 0.0
  outer loop
    vertex 0.7337000000000025 22.14 3.0
    vertex 1.8200000000000014 22.14 12.0
    vertex 0.7337000000000022 22.14 12.0
  endloop
endfacet
facet normal -1.0 0.0 -7.833240229299715e-17
  outer loop
    vertex 1.8200000000000014 22.14 12.0
    vertex 1.820000000000002 21.040000000000006 3.0
    vertex 1.8200000000000014 21.040000000000006 12.0
  endloop
endfacet
facet normal -1.0 0.0 -7.833240229299715e-17
  outer loop
    vertex 1.820000000000002 21.040000000000006 3.0
    vertex 1.8200000000000014 22.14 12.0
    vertex 1.820000000000002 22.14 3.0
  endloop
endfacet
facet normal -0.0 1.0 -0.0
  outer loop
    vertex -0.1478747641765303 22.709999999999997 13.999999999999995
    vertex 2.69 22.709999999999997 3.0
    vertex -0.14787476417652926 22.709999999999997 3.0
  endloop
endfacet
facet normal -0.0 1.0 -0.0
  outer loop
    vertex 2.69 22.709999999999997 3.0
    vertex -0.1478747641765303 22.709999999999997 13.999999999999995
    vertex 2.6899999999999995 22.709999999999997 13.999999999999995
  endloop
endfacet
facet normal 9.929459445591199e-16 -1.0 -2.553708523547196e-32
  outer loop
    vertex 2.6969412812008495 17.93000020065914 13.999999999999996
    vertex -0.14305871879914758 17.930000200659137 3.0
    vertex 2.6969412812008495 17.93000020065914 3.0
  endloop
endfacet
facet normal 9.929459445591199e-16 -1.0 -2.553708523547196e-32
  outer loop
    vertex -0.14305871879914758 17.930000200659137 3.0
    vertex 2.6969412812008495 17.93000020065914 13.999999999999996
    vertex -0.14305871879914758 17.930000200659137 14.0
  endloop
endfacet
facet normal -4.964729722795598e-16 1.0 -1.384533089238539e-32
  outer loop
    vertex -0.13630000000003073 12.549999999999999 12.000000000000005
    vertex 2.7036999999999662 12.549999999999999 3.0
    vertex -0.13630000000003073 12.549999999999999 3.0
  endloop
endfacet
facet normal -4.964729722795598e-16 1.0 -1.384533089238539e-32
  outer loop
    vertex 2.7036999999999662 12.549999999999999 3.0
    vertex -0.13630000000003073 12.549999999999999 12.000000000000005
    vertex 2.7036999999999662 12.549999999999999 12.000000000000005
  endloop
endfacet
facet normal -4.964729722795598e-16 1.0 -1.384533089238539e-32
  outer loop
    vertex 2.7036999999999662 12.549999999999999 12.000000000000005
    vertex -0.13630000000003073 12.549999999999999 12.000000000000005
    vertex -0.13630000000003073 12.549999999999999 14.000000000000009
  endloop
endfacet
facet normal -4.964729722795598e-16 1.0 -1.384533089238539e-32
  outer loop
    vertex 2.7036999999999662 12.549999999999999 12.000000000000005
    vertex -0.13630000000003073 12.549999999999999 14.000000000000009
    vertex 2.7036999999999662 12.549999999999999 14.000000000000002
  endloop
endfacet
facet normal 1.1822583664692364e-15 -3.9784965645131475e-15 1.0
  outer loop
    vertex -0.13679644622930903 11.073122219198908 14.0
    vertex -0.13630000000003073 12.549999999999999 14.000000000000009
    vertex -0.13767804176831028 11.573121830593484 14.0
  endloop
endfacet
facet normal 1.1822583664692364e-15 -3.9784965645131475e-15 1.0
  outer loop
    vertex -0.13630000000003073 12.549999999999999 14.000000000000009
    vertex -0.13679644622930903 11.073122219198908 14.0
    vertex 2.2018789531838134 11.073122219198908 14.0
  endloop
endfacet
facet normal 1.1822583664692364e-15 -3.9784965645131475e-15 1.0
  outer loop
    vertex -0.13630000000003073 12.549999999999999 14.000000000000009
    vertex 2.2018789531838134 11.073122219198908 14.0
    vertex 2.2018789531838134 12.075625366648572 14.0
  endloop
endfacet
facet normal 1.1822583664692364e-15 -3.9784965645131475e-15 1.0
  outer loop
    vertex -0.13630000000003073 12.549999999999999 14.000000000000009
    vertex 2.2018789531838134 12.075625366648572 14.0
    vertex 2.7036999999999662 12.549999999999999 14.000000000000002
  endloop
endfacet
facet normal 1.1822583664692364e-15 -3.9784965645131475e-15 1.0
  outer loop
    vertex 2.7036999999999662 12.549999999999999 14.000000000000002
    vertex 2.2018789531838134 12.075625366648572 14.0
    vertex 2.701878953183813 12.075625366648572 14.0
  endloop
endfacet
facet normal 0.0 0.0 -1.0
  outer loop
    vertex 0.7337000000000022 19.599999999999998 3.0
    vertex 0.7337000000000025 21.040000000000006 3.0
    vertex 1.8200000000000018 19.599999999999998 3.0
  endloop
endfacet
facet normal 0.0 0.0 -1.0
  outer loop
    vertex 0.7337000000000025 21.040000000000006 3.0
    vertex 0.7337000000000022 19.599999999999998 3.0
    vertex 0.7337000000000025 22.14 3.0
  endloop
endfacet
facet normal 0.0 0.0 -1.0
  outer loop
    vertex 1.8200000000000018 19.599999999999998 3.0
    vertex 0.7337000000000025 21.040000000000006 3.0
    vertex 1.820000000000002 21.040000000000006 3.0
  endloop
endfacet
facet normal 0.0 0.0 -1.0
  outer loop
    vertex 1.8200000000000018 19.599999999999998 3.0
    vertex 1.820000000000002 21.040000000000006 3.0
    vertex 1.8200000000000018 18.500000000000004 3.0
  endloop
endfacet
facet normal 0.0 0.0 -1.0
  outer loop
    vertex -0.14787476417652926 22.709999999999997 3.0
    vertex 0.7337000000000025 22.14 3.0
    vertex -0.14305871879914758 17.930000200659137 3.0
  endloop
endfacet
facet normal 0.0 0.0 -1.0
  outer loop
    vertex 0.7337000000000025 22.14 3.0
    vertex -0.14787476417652926 22.709999999999997 3.0
    vertex 2.69 22.709999999999997 3.0
  endloop
endfacet
facet normal 0.0 0.0 -1.0
  outer loop
    vertex -0.14305871879914758 17.930000200659137 3.0
    vertex 0.7337000000000025 22.14 3.0
    vertex 0.7337000000000022 19.599999999999998 3.0
  endloop
endfacet
facet normal 0.0 0.0 -1.0
  outer loop
    vertex 0.7337000000000025 22.14 3.0
    vertex 2.69 22.709999999999997 3.0
    vertex 1.820000000000002 22.14 3.0
  endloop
endfacet
facet normal 0.0 0.0 -1.0
  outer loop
    vertex 1.820000000000002 22.14 3.0
    vertex 2.69 22.709999999999997 3.0
    vertex 1.820000000000002 21.040000000000006 3.0
  endloop
endfacet
facet normal 0.0 0.0 -1.0
  outer loop
    vertex -0.14305871879914758 17.930000200659137 3.0
    vertex 0.7337000000000022 18.500000000000004 3.0
    vertex 2.6969412812008495 17.93000020065914 3.0
  endloop
endfacet
facet normal 0.0 0.0 -1.0
  outer loop
    vertex 0.7337000000000022 18.500000000000004 3.0
    vertex -0.14305871879914758 17.930000200659137 3.0
    vertex 0.7337000000000022 19.599999999999998 3.0
  endloop
endfacet
facet normal 0.0 0.0 -1.0
  outer loop
    vertex 2.6969412812008495 17.93000020065914 3.0
    vertex 0.7337000000000022 18.500000000000004 3.0
    vertex 1.8200000000000018 18.500000000000004 3.0
  endloop
endfacet
facet normal 0.0 0.0 -1.0
  outer loop
    vertex 2.6969412812008495 17.93000020065914 3.0
    vertex 1.8200000000000018 18.500000000000004 3.0
    vertex 1.820000000000002 21.040000000000006 3.0
  endloop
endfacet
facet normal 0.0 0.0 -1.0
  outer loop
    vertex 2.6969412812008495 17.93000020065914 3.0
    vertex 1.820000000000002 21.040000000000006 3.0
    vertex 2.69 22.709999999999997 3.0
  endloop
endfacet
facet normal 0.0 0.0 -1.0
  outer loop
    vertex -0.13630000000003073 12.549999999999999 3.0
    vertex 0.7337000000000026 11.979999999999995 3.0
    vertex -0.13630000000002915 10.010000000000014 3.0
  endloop
endfacet
facet normal 0.0 0.0 -1.0
  outer loop
    vertex 0.7337000000000026 11.979999999999995 3.0
    vertex -0.13630000000003073 12.549999999999999 3.0
    vertex 2.7036999999999662 12.549999999999999 3.0
  endloop
endfacet
facet normal 0.0 0.0 -1.0
  outer loop
    vertex 0.7337000000000026 11.979999999999995 3.0
    vertex 2.7036999999999662 12.549999999999999 3.0
    vertex 1.8200000000000012 11.979999999999995 3.0
  endloop
endfacet
facet normal 0.0 0.0 -1.0
  outer loop
    vertex 1.8200000000000012 11.979999999999995 3.0
    vertex 2.7036999999999662 12.549999999999999 3.0
    vertex 1.8200000000000012 10.879999999999997 3.0
  endloop
endfacet
facet normal 0.0 0.0 -1.0
  outer loop
    vertex 1.8200000000000012 10.879999999999997 3.0
    vertex 2.7036999999999662 12.549999999999999 3.0
    vertex 2.7036999999999654 10.009999999999998 3.0
  endloop
endfacet
facet normal 0.0 0.0 -1.0
  outer loop
    vertex -0.13630000000002915 10.010000000000014 3.0
    vertex 0.7337000000000026 10.879999999999997 3.0
    vertex 2.7036999999999654 10.009999999999998 3.0
  endloop
endfacet
facet normal 0.0 0.0 -1.0
  outer loop
    vertex 0.7337000000000026 10.879999999999997 3.0
    vertex -0.13630000000002915 10.010000000000014 3.0
    vertex 0.7337000000000026 11.979999999999995 3.0
  endloop
endfacet
facet normal 0.0 0.0 -1.0
  outer loop
    vertex 2.7036999999999654 10.009999999999998 3.0
    vertex 0.7337000000000026 10.879999999999997 3.0
    vertex 1.8200000000000012 10.879999999999997 3.0
  endloop
endfacet
facet normal -0.9999996949635332 -0.0007810715975490974 0.0
  outer loop
    vertex -1.15 26.549999999999997 14.0
    vertex -1.1362999999999892 9.010000000000005 0.0
    vertex -1.1362999999999892 9.010000000000005 14.0
  endloop
endfacet
facet normal -0.9999996949635332 -0.0007810715975490974 0.0
  outer loop
    vertex -1.1362999999999892 9.010000000000005 0.0
    vertex -1.15 26.549999999999997 14.0
    vertex -1.15 26.549999999999997 0.0
  endloop
endfacet
facet normal -0.9999994481159248 -0.0010492191740833637 5.391633307710143e-05
  outer loop
    vertex 2.6969412812008495 17.93000020065914 13.999999999999996
    vertex 2.7036999999999662 12.549999999999999 12.000000000000005
    vertex 2.7036999999999662 12.549999999999999 14.000000000000002
  endloop
endfacet
facet normal -0.9999994481159248 -0.0010492191740833637 5.391633307710143e-05
  outer loop
    vertex 2.7036999999999662 12.549999999999999 12.000000000000005
    vertex 2.6969412812008495 17.93000020065914 13.999999999999996
    vertex 2.7036999999999662 12.549999999999999 3.0
  endloop
endfacet
facet normal -0.9999994481159248 -0.0010492191740833637 5.391633307710143e-05
  outer loop
    vertex 2.6900000000000004 25.549999999999997 14.0
    vertex 2.69 22.709999999999997 3.0
    vertex 2.6899999999999995 22.709999999999997 13.999999999999995
  endloop
endfacet
facet normal -0.9999994481159248 -0.0010492191740833637 5.391633307710143e-05
  outer loop
    vertex 2.7036999999999662 12.549999999999999 3.0
    vertex 2.7036999999999654 10.009999999999998 0.0
    vertex 2.7036999999999654 10.009999999999998 3.0
  endloop
endfacet
facet normal -0.9999994481159248 -0.0010492191740833637 5.391633307710143e-05
  outer loop
    vertex 2.7036999999999654 10.009999999999998 0.0
    vertex 2.7036999999999662 12.549999999999999 3.0
    vertex 2.6900000000000004 25.549999999999997 0.0
  endloop
endfacet
facet normal -0.9999994481159248 -0.0010492191740833637 5.391633307710143e-05
  outer loop
    vertex 2.6900000000000004 25.549999999999997 0.0
    vertex 2.7036999999999662 12.549999999999999 3.0
    vertex 2.6969412812008495 17.93000020065914 3.0
  endloop
endfacet
facet normal -0.9999994481159248 -0.0010492191740833637 5.391633307710143e-05
  outer loop
    vertex 2.6969412812008495 17.93000020065914 3.0
    vertex 2.7036999999999662 12.549999999999999 3.0
    vertex 2.6969412812008495 17.93000020065914 13.999999999999996
  endloop
endfacet
facet normal -0.9999994481159248 -0.0010492191740833637 5.391633307710143e-05
  outer loop
    vertex 2.6900000000000004 25.549999999999997 0.0
    vertex 2.6969412812008495 17.93000020065914 3.0
    vertex 2.69 22.709999999999997 3.0
  endloop
endfacet
facet normal -0.9999994481159248 -0.0010492191740833637 5.391633307710143e-05
  outer loop
    vertex 2.6900000000000004 25.549999999999997 0.0
    vertex 2.69 22.709999999999997 3.0
    vertex 2.6900000000000004 25.549999999999997 14.0
  endloop
endfacet
endsolid serial board harness
